M48
; DRILL file {KiCad 8.0.1} date 2024-05-02T11:20:11+0530
; FORMAT={-:-/ absolute / inch / decimal}
; #@! TF.CreationDate,2024-05-02T11:20:11+05:30
; #@! TF.GenerationSoftware,Kicad,Pcbnew,8.0.1
; #@! TF.FileFunction,Plated,1,4,PTH
FMAT,2
INCH
; #@! TA.AperFunction,Plated,PTH,ViaDrill
T1C0.0118
; #@! TA.AperFunction,Plated,PTH,ComponentDrill
T2C0.0197
; #@! TA.AperFunction,Plated,PTH,ComponentDrill
T3C0.0354
; #@! TA.AperFunction,Plated,PTH,ComponentDrill
T4C0.0394
; #@! TA.AperFunction,Plated,PTH,ComponentDrill
T5C0.0449
; #@! TA.AperFunction,Plated,PTH,ComponentDrill
T6C0.0512
%
G90
G05
T1
X4.34Y-4.155
X4.485Y-4.1782
X4.485Y-4.2091
X4.485Y-4.24
X4.485Y-4.2709
X4.485Y-4.3018
X4.485Y-4.3327
X4.695Y-3.395
X4.752Y-2.647
X4.897Y-4.774
X5.193Y-4.032
X5.193Y-4.435
X5.2Y-3.89
X5.205Y-3.423
X5.21Y-3.035
X5.305Y-4.205
X5.305Y-4.287
X5.32Y-3.035
X5.32Y-3.205
X5.32Y-3.287
X5.34Y-3.865
X5.395Y-3.96
X5.456Y-3.993
X5.498Y-4.458
X5.506Y-3.421
X5.6515Y-3.8307
X5.693Y-3.3966
X5.693Y-3.4397
X5.693Y-3.4706
X5.693Y-3.5015
X5.693Y-3.5324
X5.6938Y-3.3529
X5.694Y-3.322
X5.694Y-3.65
X5.7078Y-3.8088
X5.7079Y-3.7779
X5.716Y-3.3744
X5.716Y-3.4181
X5.7322Y-4.0564
X5.7995Y-3.9355
X5.82Y-3.184
X5.84Y-3.512
X5.84Y-3.57
X5.84Y-3.807
X5.84Y-3.866
X5.8592Y-3.5942
X5.86Y-3.65
X5.8656Y-3.0825
X5.895Y-3.5334
X5.9018Y-4.045
X5.905Y-3.6158
X5.928Y-3.727
X5.944Y-3.9054
X5.966Y-3.414
X5.984Y-2.999
X6.024Y-2.857
X6.026Y-3.234
X6.045Y-3.285
X6.0477Y-3.333
X6.049Y-3.208
X6.0504Y-2.907
X6.063Y-3.794
X6.0677Y-4.1338
X6.0704Y-2.974
X6.081Y-3.9054
X6.0926Y-3.031
X6.103Y-4.133
X6.1076Y-3.7894
X6.1136Y-2.998
X6.122Y-3.927
X6.1338Y-2.9542
X6.139Y-2.8585
X6.1454Y-3.196
X6.146Y-3.229
X6.16Y-3.9054
X6.1606Y-3.0832
X6.1774Y-4.0385
X6.2187Y-2.9423
X6.222Y-3.39
X6.298Y-3.77
X6.3Y-3.1924
X6.3209Y-4.0929
X6.3209Y-4.1238
X6.3366Y-4.0663
X6.341Y-3.7936
X6.3544Y-3.342
X6.3566Y-4.0385
X6.37Y-3.2355
X6.3797Y-4.074
X6.381Y-3.461
X6.385Y-3.037
X6.3884Y-4.4732
X6.3884Y-4.5041
X6.395Y-3.894
X6.3954Y-2.9923
X6.3997Y-4.037
X6.4034Y-3.79
X6.407Y-3.082
X6.4106Y-4.074
X6.419Y-3.26
X6.4386Y-3.019
X6.447Y-3.7576
X6.456Y-4.04
X6.457Y-3.0564
X6.462Y-3.425
X6.476Y-3.245
X6.478Y-4.075
X6.4833Y-3.3514
X6.491Y-3.866
X6.4991Y-4.042
X6.5302Y-3.2956
X6.533Y-3.5296
X6.536Y-3.4922
X6.556Y-4.109
X6.557Y-3.45
X6.557Y-3.6534
X6.558Y-3.239
X6.569Y-3.078
X6.579Y-4.021
X6.586Y-3.132
X6.614Y-3.159
X6.666Y-3.297
X6.668Y-3.347
X6.668Y-3.4353
X6.681Y-3.77
X6.7054Y-3.3775
X6.923Y-2.7234
X6.9632Y-2.745
X7.03Y-3.429
X7.061Y-3.975
X7.1Y-4.24
X7.2Y-5.105
T2
X4.4606Y-3.815
X4.54Y-3.815
X4.685Y-3.075
X4.701Y-3.52
X4.76Y-3.735
X4.76Y-3.815
X4.781Y-3.52
X5.34Y-2.825
X5.34Y-2.905
T3
X7.05Y-2.495
X7.05Y-2.595
X7.05Y-2.695
X7.05Y-2.795
X7.05Y-2.895
X7.05Y-2.995
X7.05Y-3.095
X7.05Y-3.195
X7.05Y-3.295
X7.15Y-2.495
X7.15Y-2.595
X7.15Y-2.695
X7.15Y-2.795
X7.15Y-2.895
X7.15Y-2.995
X7.15Y-3.095
X7.15Y-3.195
X7.15Y-3.295
X7.25Y-2.495
X7.25Y-2.595
X7.25Y-2.695
X7.25Y-2.795
X7.25Y-2.895
X7.25Y-2.995
X7.25Y-3.095
X7.25Y-3.195
X7.25Y-3.295
X7.35Y-2.495
X7.35Y-2.595
X7.35Y-2.695
X7.35Y-2.795
X7.35Y-2.895
X7.35Y-2.995
X7.35Y-3.095
X7.35Y-3.195
X7.35Y-3.295
X7.45Y-2.495
X7.45Y-2.595
X7.45Y-2.695
X7.45Y-2.795
X7.45Y-2.895
X7.45Y-2.995
X7.45Y-3.095
X7.45Y-3.195
X7.45Y-3.295
T4
X4.76Y-3.985
X4.76Y-4.085
X4.76Y-4.185
X4.76Y-4.33
X4.76Y-4.43
X4.76Y-4.53
X5.004Y-5.17
X5.004Y-5.27
X5.005Y-2.26
X5.005Y-2.36
X5.006Y-3.0856
X5.006Y-3.1856
X5.006Y-3.2856
X5.006Y-3.3856
X5.006Y-3.4856
X5.006Y-3.5856
X5.006Y-3.6856
X5.006Y-3.7856
X5.006Y-3.9856
X5.006Y-4.0856
X5.006Y-4.1856
X5.006Y-4.2856
X5.006Y-4.3856
X5.006Y-4.4856
X5.006Y-4.5856
X5.006Y-4.6856
X5.104Y-5.17
X5.104Y-5.27
X5.105Y-2.26
X5.105Y-2.36
X5.204Y-5.17
X5.204Y-5.27
X5.205Y-2.26
X5.205Y-2.36
X5.304Y-5.17
X5.304Y-5.27
X5.305Y-2.26
X5.305Y-2.36
X5.404Y-5.17
X5.404Y-5.27
X5.405Y-2.26
X5.405Y-2.36
X5.504Y-5.17
X5.504Y-5.27
X5.505Y-2.26
X5.505Y-2.36
X5.604Y-5.17
X5.604Y-5.27
X5.605Y-2.26
X5.605Y-2.36
X5.704Y-5.17
X5.704Y-5.27
X5.705Y-2.26
X5.705Y-2.36
X5.804Y-5.17
X5.804Y-5.27
X5.805Y-2.26
X5.805Y-2.36
X5.904Y-5.17
X5.904Y-5.27
X5.905Y-2.26
X5.905Y-2.36
X5.935Y-4.505
X5.935Y-4.605
X6.004Y-5.17
X6.004Y-5.27
X6.005Y-2.26
X6.005Y-2.36
X6.035Y-4.505
X6.035Y-4.605
X6.104Y-5.17
X6.104Y-5.27
X6.105Y-2.26
X6.105Y-2.36
X6.135Y-4.505
X6.135Y-4.605
X6.204Y-5.17
X6.204Y-5.27
X6.205Y-2.26
X6.205Y-2.36
X6.304Y-5.17
X6.304Y-5.27
X6.305Y-2.26
X6.305Y-2.36
X6.404Y-5.17
X6.404Y-5.27
X6.405Y-2.26
X6.405Y-2.36
X6.504Y-5.17
X6.504Y-5.27
X6.505Y-2.26
X6.505Y-2.36
X6.604Y-5.17
X6.604Y-5.27
X6.605Y-2.26
X6.605Y-2.36
X6.704Y-5.17
X6.704Y-5.27
X6.705Y-2.26
X6.705Y-2.36
X6.804Y-5.17
X6.804Y-5.27
X6.805Y-2.26
X6.805Y-2.36
X6.904Y-5.17
X6.904Y-5.27
X6.905Y-2.26
X6.905Y-2.36
X6.906Y-2.9256
X6.906Y-3.0256
X6.906Y-3.1256
X6.906Y-3.2256
X6.906Y-3.3256
X6.906Y-3.4256
X6.906Y-3.5256
X6.906Y-3.6256
X6.906Y-3.7856
X6.906Y-3.8856
X6.906Y-3.9856
X6.906Y-4.0856
X6.906Y-4.1856
X6.906Y-4.2856
X6.906Y-4.3856
X6.906Y-4.4856
T5
X7.2Y-4.23
X7.2Y-4.33
X7.2Y-4.43
X7.2Y-4.53
X7.2Y-4.63
X7.3Y-4.23
X7.3Y-4.33
X7.3Y-4.43
X7.3Y-4.53
X7.3Y-4.63
T6
X4.6126Y-5.1284
X4.711Y-4.9316
X4.8094Y-5.1284
M30
