%TF.GenerationSoftware,KiCad,Pcbnew,8.0.1*%
%TF.CreationDate,2024-05-02T11:18:55+05:30*%
%TF.ProjectId,MAX10eval,4d415831-3065-4766-916c-2e6b69636164,rev?*%
%TF.SameCoordinates,Original*%
%TF.FileFunction,Paste,Bot*%
%TF.FilePolarity,Positive*%
%FSLAX46Y46*%
G04 Gerber Fmt 4.6, Leading zero omitted, Abs format (unit mm)*
G04 Created by KiCad (PCBNEW 8.0.1) date 2024-05-02 11:18:55*
%MOMM*%
%LPD*%
G01*
G04 APERTURE LIST*
G04 Aperture macros list*
%AMRoundRect*
0 Rectangle with rounded corners*
0 $1 Rounding radius*
0 $2 $3 $4 $5 $6 $7 $8 $9 X,Y pos of 4 corners*
0 Add a 4 corners polygon primitive as box body*
4,1,4,$2,$3,$4,$5,$6,$7,$8,$9,$2,$3,0*
0 Add four circle primitives for the rounded corners*
1,1,$1+$1,$2,$3*
1,1,$1+$1,$4,$5*
1,1,$1+$1,$6,$7*
1,1,$1+$1,$8,$9*
0 Add four rect primitives between the rounded corners*
20,1,$1+$1,$2,$3,$4,$5,0*
20,1,$1+$1,$4,$5,$6,$7,0*
20,1,$1+$1,$6,$7,$8,$9,0*
20,1,$1+$1,$8,$9,$2,$3,0*%
G04 Aperture macros list end*
%ADD10RoundRect,0.079500X0.079500X0.100500X-0.079500X0.100500X-0.079500X-0.100500X0.079500X-0.100500X0*%
%ADD11RoundRect,0.079500X-0.100500X0.079500X-0.100500X-0.079500X0.100500X-0.079500X0.100500X0.079500X0*%
%ADD12RoundRect,0.079500X-0.079500X-0.100500X0.079500X-0.100500X0.079500X0.100500X-0.079500X0.100500X0*%
%ADD13RoundRect,0.079500X0.100500X-0.079500X0.100500X0.079500X-0.100500X0.079500X-0.100500X-0.079500X0*%
%ADD14RoundRect,0.150000X0.150000X-0.587500X0.150000X0.587500X-0.150000X0.587500X-0.150000X-0.587500X0*%
G04 APERTURE END LIST*
D10*
%TO.C,C7*%
X153014200Y-97713800D03*
X152324200Y-97713800D03*
%TD*%
D11*
%TO.C,R38*%
X154305000Y-97481000D03*
X154305000Y-98171000D03*
%TD*%
%TO.C,R74*%
X155829000Y-86051000D03*
X155829000Y-86741000D03*
%TD*%
D10*
%TO.C,C5*%
X153014200Y-96951800D03*
X152324200Y-96951800D03*
%TD*%
D12*
%TO.C,C46*%
X154292000Y-84353400D03*
X154982000Y-84353400D03*
%TD*%
D13*
%TO.C,C17*%
X152450800Y-86741000D03*
X152450800Y-86051000D03*
%TD*%
%TO.C,R40*%
X165328600Y-89367600D03*
X165328600Y-88677600D03*
%TD*%
D12*
%TO.C,R64*%
X112177000Y-109982000D03*
X112867000Y-109982000D03*
%TD*%
D13*
%TO.C,C33*%
X155829000Y-98171000D03*
X155829000Y-97481000D03*
%TD*%
%TO.C,C61*%
X155829000Y-85177000D03*
X155829000Y-84487000D03*
%TD*%
D11*
%TO.C,R25*%
X160909000Y-97491000D03*
X160909000Y-98181000D03*
%TD*%
D12*
%TO.C,C41*%
X159400000Y-82804000D03*
X160090000Y-82804000D03*
%TD*%
%TO.C,C10*%
X164562000Y-85852000D03*
X165252000Y-85852000D03*
%TD*%
D10*
%TO.C,C40*%
X156153000Y-82804000D03*
X155463000Y-82804000D03*
%TD*%
%TO.C,C6*%
X166440000Y-86614000D03*
X165750000Y-86614000D03*
%TD*%
%TO.C,C44*%
X152933000Y-83997800D03*
X152243000Y-83997800D03*
%TD*%
D12*
%TO.C,C48*%
X153996000Y-82804000D03*
X154686000Y-82804000D03*
%TD*%
D11*
%TO.C,C43*%
X151511000Y-93529000D03*
X151511000Y-94219000D03*
%TD*%
D12*
%TO.C,R73*%
X154292000Y-83566000D03*
X154982000Y-83566000D03*
%TD*%
D11*
%TO.C,C52*%
X134747000Y-107499000D03*
X134747000Y-108189000D03*
%TD*%
D10*
%TO.C,C8*%
X153014200Y-98602800D03*
X152324200Y-98602800D03*
%TD*%
D13*
%TO.C,C34*%
X155067000Y-98171000D03*
X155067000Y-97481000D03*
%TD*%
%TO.C,C49*%
X163957000Y-98181000D03*
X163957000Y-97491000D03*
%TD*%
D10*
%TO.C,C37*%
X164530600Y-89382600D03*
X163840600Y-89382600D03*
%TD*%
D12*
%TO.C,R68*%
X112177000Y-106934000D03*
X112867000Y-106934000D03*
%TD*%
D13*
%TO.C,R26*%
X165862000Y-96672000D03*
X165862000Y-95982000D03*
%TD*%
D11*
%TO.C,R27*%
X153035000Y-95011000D03*
X153035000Y-95701000D03*
%TD*%
D13*
%TO.C,C32*%
X152273000Y-95701000D03*
X152273000Y-95011000D03*
%TD*%
%TO.C,C27*%
X162433000Y-98196000D03*
X162433000Y-97506000D03*
%TD*%
%TO.C,C31*%
X151511000Y-95701000D03*
X151511000Y-95011000D03*
%TD*%
D10*
%TO.C,C16*%
X157317000Y-97466000D03*
X156627000Y-97466000D03*
%TD*%
D13*
%TO.C,C18*%
X153212800Y-86741000D03*
X153212800Y-86051000D03*
%TD*%
D10*
%TO.C,C4*%
X152933000Y-84759800D03*
X152243000Y-84759800D03*
%TD*%
D12*
%TO.C,R66*%
X112177000Y-108458000D03*
X112867000Y-108458000D03*
%TD*%
D13*
%TO.C,R62*%
X185420000Y-120254000D03*
X185420000Y-119564000D03*
%TD*%
D11*
%TO.C,C42*%
X152273000Y-93529000D03*
X152273000Y-94219000D03*
%TD*%
%TO.C,C29*%
X164338000Y-95982000D03*
X164338000Y-96672000D03*
%TD*%
%TO.C,C30*%
X165100000Y-95982000D03*
X165100000Y-96672000D03*
%TD*%
D12*
%TO.C,R55*%
X180350600Y-110744000D03*
X181040600Y-110744000D03*
%TD*%
%TO.C,R56*%
X180355000Y-109982000D03*
X181045000Y-109982000D03*
%TD*%
D11*
%TO.C,C51*%
X135128000Y-82099000D03*
X135128000Y-82789000D03*
%TD*%
D12*
%TO.C,R65*%
X112177000Y-109220000D03*
X112867000Y-109220000D03*
%TD*%
D14*
%TO.C,U5*%
X159004000Y-86106000D03*
X157104000Y-86106000D03*
X158054000Y-84231000D03*
%TD*%
D13*
%TO.C,C38*%
X164592000Y-84398000D03*
X164592000Y-83708000D03*
%TD*%
%TO.C,C39*%
X163830000Y-84398000D03*
X163830000Y-83708000D03*
%TD*%
D10*
%TO.C,C36*%
X164530600Y-88620600D03*
X163840600Y-88620600D03*
%TD*%
D12*
%TO.C,C12*%
X154292000Y-85140800D03*
X154982000Y-85140800D03*
%TD*%
%TO.C,R67*%
X112177000Y-107696000D03*
X112867000Y-107696000D03*
%TD*%
D13*
%TO.C,R47*%
X163830000Y-85866800D03*
X163830000Y-85176800D03*
%TD*%
D12*
%TO.C,R63*%
X157897000Y-82804000D03*
X158587000Y-82804000D03*
%TD*%
D13*
%TO.C,R70*%
X153035000Y-94219000D03*
X153035000Y-93529000D03*
%TD*%
%TO.C,C45*%
X163195000Y-98181000D03*
X163195000Y-97491000D03*
%TD*%
%TO.C,R6*%
X153974800Y-86741000D03*
X153974800Y-86051000D03*
%TD*%
%TO.C,C28*%
X161671000Y-98196000D03*
X161671000Y-97506000D03*
%TD*%
D12*
%TO.C,R54*%
X180355000Y-109220000D03*
X181045000Y-109220000D03*
%TD*%
D13*
%TO.C,C47*%
X160274000Y-85825000D03*
X160274000Y-85135000D03*
%TD*%
D12*
%TO.C,R69*%
X112177000Y-106172000D03*
X112867000Y-106172000D03*
%TD*%
M02*
