%TF.GenerationSoftware,KiCad,Pcbnew,8.0.1*%
%TF.CreationDate,2024-05-02T11:19:57+05:30*%
%TF.ProjectId,MAX10eval,4d415831-3065-4766-916c-2e6b69636164,rev?*%
%TF.SameCoordinates,Original*%
%TF.FileFunction,Drillmap*%
%TF.FilePolarity,Positive*%
%FSLAX45Y45*%
G04 Gerber Fmt 4.5, Leading zero omitted, Abs format (unit mm)*
G04 Created by KiCad (PCBNEW 8.0.1) date 2024-05-02 11:19:57*
%MOMM*%
%LPD*%
G01*
G04 APERTURE LIST*
%ADD10C,0.100000*%
%ADD11C,0.200000*%
%ADD12C,0.320000*%
G04 APERTURE END LIST*
D10*
X10793113Y-5421013D02*
X19088100Y-5421013D01*
X19088100Y-13716000D01*
X10793113Y-13716000D01*
X10793113Y-5421013D01*
D11*
D10*
X11182450Y-7613050D02*
X11282450Y-7713050D01*
X11282450Y-7613050D02*
X11182450Y-7713050D01*
X11182450Y-8053050D02*
X11282450Y-8153050D01*
X11282450Y-8053050D02*
X11182450Y-8153050D01*
D12*
X11297900Y-5765800D02*
G75*
G02*
X10977900Y-5765800I-160000J0D01*
G01*
X10977900Y-5765800D02*
G75*
G02*
X11297900Y-5765800I160000J0D01*
G01*
X11297900Y-13360400D02*
G75*
G02*
X10977900Y-13360400I-160000J0D01*
G01*
X10977900Y-13360400D02*
G75*
G02*
X11297900Y-13360400I160000J0D01*
G01*
X18892500Y-5765800D02*
G75*
G02*
X18572500Y-5765800I-160000J0D01*
G01*
X18572500Y-5765800D02*
G75*
G02*
X18892500Y-5765800I160000J0D01*
G01*
X18905200Y-13373100D02*
G75*
G02*
X18585200Y-13373100I-160000J0D01*
G01*
X18585200Y-13373100D02*
G75*
G02*
X18905200Y-13373100I160000J0D01*
G01*
D11*
X11048890Y-14032484D02*
X11048890Y-13832484D01*
X11048890Y-13832484D02*
X11096509Y-13832484D01*
X11096509Y-13832484D02*
X11125080Y-13842008D01*
X11125080Y-13842008D02*
X11144128Y-13861055D01*
X11144128Y-13861055D02*
X11153652Y-13880103D01*
X11153652Y-13880103D02*
X11163175Y-13918198D01*
X11163175Y-13918198D02*
X11163175Y-13946769D01*
X11163175Y-13946769D02*
X11153652Y-13984865D01*
X11153652Y-13984865D02*
X11144128Y-14003912D01*
X11144128Y-14003912D02*
X11125080Y-14022960D01*
X11125080Y-14022960D02*
X11096509Y-14032484D01*
X11096509Y-14032484D02*
X11048890Y-14032484D01*
X11248890Y-14032484D02*
X11248890Y-13899150D01*
X11248890Y-13937246D02*
X11258413Y-13918198D01*
X11258413Y-13918198D02*
X11267937Y-13908674D01*
X11267937Y-13908674D02*
X11286985Y-13899150D01*
X11286985Y-13899150D02*
X11306033Y-13899150D01*
X11372699Y-14032484D02*
X11372699Y-13899150D01*
X11372699Y-13832484D02*
X11363175Y-13842008D01*
X11363175Y-13842008D02*
X11372699Y-13851531D01*
X11372699Y-13851531D02*
X11382223Y-13842008D01*
X11382223Y-13842008D02*
X11372699Y-13832484D01*
X11372699Y-13832484D02*
X11372699Y-13851531D01*
X11496509Y-14032484D02*
X11477461Y-14022960D01*
X11477461Y-14022960D02*
X11467937Y-14003912D01*
X11467937Y-14003912D02*
X11467937Y-13832484D01*
X11601271Y-14032484D02*
X11582223Y-14022960D01*
X11582223Y-14022960D02*
X11572699Y-14003912D01*
X11572699Y-14003912D02*
X11572699Y-13832484D01*
X11829842Y-14032484D02*
X11829842Y-13832484D01*
X11829842Y-13832484D02*
X11896509Y-13975341D01*
X11896509Y-13975341D02*
X11963175Y-13832484D01*
X11963175Y-13832484D02*
X11963175Y-14032484D01*
X12144128Y-14032484D02*
X12144128Y-13927722D01*
X12144128Y-13927722D02*
X12134604Y-13908674D01*
X12134604Y-13908674D02*
X12115556Y-13899150D01*
X12115556Y-13899150D02*
X12077461Y-13899150D01*
X12077461Y-13899150D02*
X12058413Y-13908674D01*
X12144128Y-14022960D02*
X12125080Y-14032484D01*
X12125080Y-14032484D02*
X12077461Y-14032484D01*
X12077461Y-14032484D02*
X12058413Y-14022960D01*
X12058413Y-14022960D02*
X12048890Y-14003912D01*
X12048890Y-14003912D02*
X12048890Y-13984865D01*
X12048890Y-13984865D02*
X12058413Y-13965817D01*
X12058413Y-13965817D02*
X12077461Y-13956293D01*
X12077461Y-13956293D02*
X12125080Y-13956293D01*
X12125080Y-13956293D02*
X12144128Y-13946769D01*
X12239366Y-13899150D02*
X12239366Y-14099150D01*
X12239366Y-13908674D02*
X12258413Y-13899150D01*
X12258413Y-13899150D02*
X12296509Y-13899150D01*
X12296509Y-13899150D02*
X12315556Y-13908674D01*
X12315556Y-13908674D02*
X12325080Y-13918198D01*
X12325080Y-13918198D02*
X12334604Y-13937246D01*
X12334604Y-13937246D02*
X12334604Y-13994388D01*
X12334604Y-13994388D02*
X12325080Y-14013436D01*
X12325080Y-14013436D02*
X12315556Y-14022960D01*
X12315556Y-14022960D02*
X12296509Y-14032484D01*
X12296509Y-14032484D02*
X12258413Y-14032484D01*
X12258413Y-14032484D02*
X12239366Y-14022960D01*
X12420318Y-14013436D02*
X12429842Y-14022960D01*
X12429842Y-14022960D02*
X12420318Y-14032484D01*
X12420318Y-14032484D02*
X12410794Y-14022960D01*
X12410794Y-14022960D02*
X12420318Y-14013436D01*
X12420318Y-14013436D02*
X12420318Y-14032484D01*
X12420318Y-13908674D02*
X12429842Y-13918198D01*
X12429842Y-13918198D02*
X12420318Y-13927722D01*
X12420318Y-13927722D02*
X12410794Y-13918198D01*
X12410794Y-13918198D02*
X12420318Y-13908674D01*
X12420318Y-13908674D02*
X12420318Y-13927722D01*
D10*
X10688113Y-14311000D02*
X10788113Y-14411000D01*
X10788113Y-14311000D02*
X10688113Y-14411000D01*
D11*
X11153652Y-14452484D02*
X11039366Y-14452484D01*
X11096509Y-14452484D02*
X11096509Y-14252484D01*
X11096509Y-14252484D02*
X11077461Y-14281055D01*
X11077461Y-14281055D02*
X11058414Y-14300103D01*
X11058414Y-14300103D02*
X11039366Y-14309627D01*
X11239366Y-14433436D02*
X11248890Y-14442960D01*
X11248890Y-14442960D02*
X11239366Y-14452484D01*
X11239366Y-14452484D02*
X11229842Y-14442960D01*
X11229842Y-14442960D02*
X11239366Y-14433436D01*
X11239366Y-14433436D02*
X11239366Y-14452484D01*
X11372699Y-14252484D02*
X11391747Y-14252484D01*
X11391747Y-14252484D02*
X11410794Y-14262008D01*
X11410794Y-14262008D02*
X11420318Y-14271531D01*
X11420318Y-14271531D02*
X11429842Y-14290579D01*
X11429842Y-14290579D02*
X11439366Y-14328674D01*
X11439366Y-14328674D02*
X11439366Y-14376293D01*
X11439366Y-14376293D02*
X11429842Y-14414388D01*
X11429842Y-14414388D02*
X11420318Y-14433436D01*
X11420318Y-14433436D02*
X11410794Y-14442960D01*
X11410794Y-14442960D02*
X11391747Y-14452484D01*
X11391747Y-14452484D02*
X11372699Y-14452484D01*
X11372699Y-14452484D02*
X11353652Y-14442960D01*
X11353652Y-14442960D02*
X11344128Y-14433436D01*
X11344128Y-14433436D02*
X11334604Y-14414388D01*
X11334604Y-14414388D02*
X11325080Y-14376293D01*
X11325080Y-14376293D02*
X11325080Y-14328674D01*
X11325080Y-14328674D02*
X11334604Y-14290579D01*
X11334604Y-14290579D02*
X11344128Y-14271531D01*
X11344128Y-14271531D02*
X11353652Y-14262008D01*
X11353652Y-14262008D02*
X11372699Y-14252484D01*
X11563175Y-14252484D02*
X11582223Y-14252484D01*
X11582223Y-14252484D02*
X11601271Y-14262008D01*
X11601271Y-14262008D02*
X11610794Y-14271531D01*
X11610794Y-14271531D02*
X11620318Y-14290579D01*
X11620318Y-14290579D02*
X11629842Y-14328674D01*
X11629842Y-14328674D02*
X11629842Y-14376293D01*
X11629842Y-14376293D02*
X11620318Y-14414388D01*
X11620318Y-14414388D02*
X11610794Y-14433436D01*
X11610794Y-14433436D02*
X11601271Y-14442960D01*
X11601271Y-14442960D02*
X11582223Y-14452484D01*
X11582223Y-14452484D02*
X11563175Y-14452484D01*
X11563175Y-14452484D02*
X11544128Y-14442960D01*
X11544128Y-14442960D02*
X11534604Y-14433436D01*
X11534604Y-14433436D02*
X11525080Y-14414388D01*
X11525080Y-14414388D02*
X11515556Y-14376293D01*
X11515556Y-14376293D02*
X11515556Y-14328674D01*
X11515556Y-14328674D02*
X11525080Y-14290579D01*
X11525080Y-14290579D02*
X11534604Y-14271531D01*
X11534604Y-14271531D02*
X11544128Y-14262008D01*
X11544128Y-14262008D02*
X11563175Y-14252484D01*
X11753652Y-14252484D02*
X11772699Y-14252484D01*
X11772699Y-14252484D02*
X11791747Y-14262008D01*
X11791747Y-14262008D02*
X11801271Y-14271531D01*
X11801271Y-14271531D02*
X11810794Y-14290579D01*
X11810794Y-14290579D02*
X11820318Y-14328674D01*
X11820318Y-14328674D02*
X11820318Y-14376293D01*
X11820318Y-14376293D02*
X11810794Y-14414388D01*
X11810794Y-14414388D02*
X11801271Y-14433436D01*
X11801271Y-14433436D02*
X11791747Y-14442960D01*
X11791747Y-14442960D02*
X11772699Y-14452484D01*
X11772699Y-14452484D02*
X11753652Y-14452484D01*
X11753652Y-14452484D02*
X11734604Y-14442960D01*
X11734604Y-14442960D02*
X11725080Y-14433436D01*
X11725080Y-14433436D02*
X11715556Y-14414388D01*
X11715556Y-14414388D02*
X11706033Y-14376293D01*
X11706033Y-14376293D02*
X11706033Y-14328674D01*
X11706033Y-14328674D02*
X11715556Y-14290579D01*
X11715556Y-14290579D02*
X11725080Y-14271531D01*
X11725080Y-14271531D02*
X11734604Y-14262008D01*
X11734604Y-14262008D02*
X11753652Y-14252484D01*
X11906033Y-14452484D02*
X11906033Y-14319150D01*
X11906033Y-14338198D02*
X11915556Y-14328674D01*
X11915556Y-14328674D02*
X11934604Y-14319150D01*
X11934604Y-14319150D02*
X11963175Y-14319150D01*
X11963175Y-14319150D02*
X11982223Y-14328674D01*
X11982223Y-14328674D02*
X11991747Y-14347722D01*
X11991747Y-14347722D02*
X11991747Y-14452484D01*
X11991747Y-14347722D02*
X12001271Y-14328674D01*
X12001271Y-14328674D02*
X12020318Y-14319150D01*
X12020318Y-14319150D02*
X12048890Y-14319150D01*
X12048890Y-14319150D02*
X12067937Y-14328674D01*
X12067937Y-14328674D02*
X12077461Y-14347722D01*
X12077461Y-14347722D02*
X12077461Y-14452484D01*
X12172699Y-14452484D02*
X12172699Y-14319150D01*
X12172699Y-14338198D02*
X12182223Y-14328674D01*
X12182223Y-14328674D02*
X12201271Y-14319150D01*
X12201271Y-14319150D02*
X12229842Y-14319150D01*
X12229842Y-14319150D02*
X12248890Y-14328674D01*
X12248890Y-14328674D02*
X12258414Y-14347722D01*
X12258414Y-14347722D02*
X12258414Y-14452484D01*
X12258414Y-14347722D02*
X12267937Y-14328674D01*
X12267937Y-14328674D02*
X12286985Y-14319150D01*
X12286985Y-14319150D02*
X12315556Y-14319150D01*
X12315556Y-14319150D02*
X12334604Y-14328674D01*
X12334604Y-14328674D02*
X12344128Y-14347722D01*
X12344128Y-14347722D02*
X12344128Y-14452484D01*
X12734604Y-14242960D02*
X12563176Y-14500103D01*
X12991747Y-14252484D02*
X13010795Y-14252484D01*
X13010795Y-14252484D02*
X13029842Y-14262008D01*
X13029842Y-14262008D02*
X13039366Y-14271531D01*
X13039366Y-14271531D02*
X13048890Y-14290579D01*
X13048890Y-14290579D02*
X13058414Y-14328674D01*
X13058414Y-14328674D02*
X13058414Y-14376293D01*
X13058414Y-14376293D02*
X13048890Y-14414388D01*
X13048890Y-14414388D02*
X13039366Y-14433436D01*
X13039366Y-14433436D02*
X13029842Y-14442960D01*
X13029842Y-14442960D02*
X13010795Y-14452484D01*
X13010795Y-14452484D02*
X12991747Y-14452484D01*
X12991747Y-14452484D02*
X12972699Y-14442960D01*
X12972699Y-14442960D02*
X12963176Y-14433436D01*
X12963176Y-14433436D02*
X12953652Y-14414388D01*
X12953652Y-14414388D02*
X12944128Y-14376293D01*
X12944128Y-14376293D02*
X12944128Y-14328674D01*
X12944128Y-14328674D02*
X12953652Y-14290579D01*
X12953652Y-14290579D02*
X12963176Y-14271531D01*
X12963176Y-14271531D02*
X12972699Y-14262008D01*
X12972699Y-14262008D02*
X12991747Y-14252484D01*
X13144128Y-14433436D02*
X13153652Y-14442960D01*
X13153652Y-14442960D02*
X13144128Y-14452484D01*
X13144128Y-14452484D02*
X13134604Y-14442960D01*
X13134604Y-14442960D02*
X13144128Y-14433436D01*
X13144128Y-14433436D02*
X13144128Y-14452484D01*
X13277461Y-14252484D02*
X13296509Y-14252484D01*
X13296509Y-14252484D02*
X13315557Y-14262008D01*
X13315557Y-14262008D02*
X13325080Y-14271531D01*
X13325080Y-14271531D02*
X13334604Y-14290579D01*
X13334604Y-14290579D02*
X13344128Y-14328674D01*
X13344128Y-14328674D02*
X13344128Y-14376293D01*
X13344128Y-14376293D02*
X13334604Y-14414388D01*
X13334604Y-14414388D02*
X13325080Y-14433436D01*
X13325080Y-14433436D02*
X13315557Y-14442960D01*
X13315557Y-14442960D02*
X13296509Y-14452484D01*
X13296509Y-14452484D02*
X13277461Y-14452484D01*
X13277461Y-14452484D02*
X13258414Y-14442960D01*
X13258414Y-14442960D02*
X13248890Y-14433436D01*
X13248890Y-14433436D02*
X13239366Y-14414388D01*
X13239366Y-14414388D02*
X13229842Y-14376293D01*
X13229842Y-14376293D02*
X13229842Y-14328674D01*
X13229842Y-14328674D02*
X13239366Y-14290579D01*
X13239366Y-14290579D02*
X13248890Y-14271531D01*
X13248890Y-14271531D02*
X13258414Y-14262008D01*
X13258414Y-14262008D02*
X13277461Y-14252484D01*
X13410795Y-14252484D02*
X13534604Y-14252484D01*
X13534604Y-14252484D02*
X13467937Y-14328674D01*
X13467937Y-14328674D02*
X13496509Y-14328674D01*
X13496509Y-14328674D02*
X13515557Y-14338198D01*
X13515557Y-14338198D02*
X13525080Y-14347722D01*
X13525080Y-14347722D02*
X13534604Y-14366769D01*
X13534604Y-14366769D02*
X13534604Y-14414388D01*
X13534604Y-14414388D02*
X13525080Y-14433436D01*
X13525080Y-14433436D02*
X13515557Y-14442960D01*
X13515557Y-14442960D02*
X13496509Y-14452484D01*
X13496509Y-14452484D02*
X13439366Y-14452484D01*
X13439366Y-14452484D02*
X13420318Y-14442960D01*
X13420318Y-14442960D02*
X13410795Y-14433436D01*
X13629842Y-14452484D02*
X13667937Y-14452484D01*
X13667937Y-14452484D02*
X13686985Y-14442960D01*
X13686985Y-14442960D02*
X13696509Y-14433436D01*
X13696509Y-14433436D02*
X13715557Y-14404865D01*
X13715557Y-14404865D02*
X13725080Y-14366769D01*
X13725080Y-14366769D02*
X13725080Y-14290579D01*
X13725080Y-14290579D02*
X13715557Y-14271531D01*
X13715557Y-14271531D02*
X13706033Y-14262008D01*
X13706033Y-14262008D02*
X13686985Y-14252484D01*
X13686985Y-14252484D02*
X13648890Y-14252484D01*
X13648890Y-14252484D02*
X13629842Y-14262008D01*
X13629842Y-14262008D02*
X13620318Y-14271531D01*
X13620318Y-14271531D02*
X13610795Y-14290579D01*
X13610795Y-14290579D02*
X13610795Y-14338198D01*
X13610795Y-14338198D02*
X13620318Y-14357246D01*
X13620318Y-14357246D02*
X13629842Y-14366769D01*
X13629842Y-14366769D02*
X13648890Y-14376293D01*
X13648890Y-14376293D02*
X13686985Y-14376293D01*
X13686985Y-14376293D02*
X13706033Y-14366769D01*
X13706033Y-14366769D02*
X13715557Y-14357246D01*
X13715557Y-14357246D02*
X13725080Y-14338198D01*
X13896509Y-14319150D02*
X13896509Y-14452484D01*
X13848890Y-14242960D02*
X13801271Y-14385817D01*
X13801271Y-14385817D02*
X13925080Y-14385817D01*
X13991747Y-14252484D02*
X13991747Y-14290579D01*
X14067938Y-14252484D02*
X14067938Y-14290579D01*
X14363176Y-14528674D02*
X14353652Y-14519150D01*
X14353652Y-14519150D02*
X14334604Y-14490579D01*
X14334604Y-14490579D02*
X14325080Y-14471531D01*
X14325080Y-14471531D02*
X14315557Y-14442960D01*
X14315557Y-14442960D02*
X14306033Y-14395341D01*
X14306033Y-14395341D02*
X14306033Y-14357246D01*
X14306033Y-14357246D02*
X14315557Y-14309627D01*
X14315557Y-14309627D02*
X14325080Y-14281055D01*
X14325080Y-14281055D02*
X14334604Y-14262008D01*
X14334604Y-14262008D02*
X14353652Y-14233436D01*
X14353652Y-14233436D02*
X14363176Y-14223912D01*
X14429842Y-14271531D02*
X14439366Y-14262008D01*
X14439366Y-14262008D02*
X14458414Y-14252484D01*
X14458414Y-14252484D02*
X14506033Y-14252484D01*
X14506033Y-14252484D02*
X14525080Y-14262008D01*
X14525080Y-14262008D02*
X14534604Y-14271531D01*
X14534604Y-14271531D02*
X14544128Y-14290579D01*
X14544128Y-14290579D02*
X14544128Y-14309627D01*
X14544128Y-14309627D02*
X14534604Y-14338198D01*
X14534604Y-14338198D02*
X14420319Y-14452484D01*
X14420319Y-14452484D02*
X14544128Y-14452484D01*
X14782223Y-14452484D02*
X14782223Y-14252484D01*
X14867938Y-14452484D02*
X14867938Y-14347722D01*
X14867938Y-14347722D02*
X14858414Y-14328674D01*
X14858414Y-14328674D02*
X14839366Y-14319150D01*
X14839366Y-14319150D02*
X14810795Y-14319150D01*
X14810795Y-14319150D02*
X14791747Y-14328674D01*
X14791747Y-14328674D02*
X14782223Y-14338198D01*
X14991747Y-14452484D02*
X14972700Y-14442960D01*
X14972700Y-14442960D02*
X14963176Y-14433436D01*
X14963176Y-14433436D02*
X14953652Y-14414388D01*
X14953652Y-14414388D02*
X14953652Y-14357246D01*
X14953652Y-14357246D02*
X14963176Y-14338198D01*
X14963176Y-14338198D02*
X14972700Y-14328674D01*
X14972700Y-14328674D02*
X14991747Y-14319150D01*
X14991747Y-14319150D02*
X15020319Y-14319150D01*
X15020319Y-14319150D02*
X15039366Y-14328674D01*
X15039366Y-14328674D02*
X15048890Y-14338198D01*
X15048890Y-14338198D02*
X15058414Y-14357246D01*
X15058414Y-14357246D02*
X15058414Y-14414388D01*
X15058414Y-14414388D02*
X15048890Y-14433436D01*
X15048890Y-14433436D02*
X15039366Y-14442960D01*
X15039366Y-14442960D02*
X15020319Y-14452484D01*
X15020319Y-14452484D02*
X14991747Y-14452484D01*
X15172700Y-14452484D02*
X15153652Y-14442960D01*
X15153652Y-14442960D02*
X15144128Y-14423912D01*
X15144128Y-14423912D02*
X15144128Y-14252484D01*
X15325081Y-14442960D02*
X15306033Y-14452484D01*
X15306033Y-14452484D02*
X15267938Y-14452484D01*
X15267938Y-14452484D02*
X15248890Y-14442960D01*
X15248890Y-14442960D02*
X15239366Y-14423912D01*
X15239366Y-14423912D02*
X15239366Y-14347722D01*
X15239366Y-14347722D02*
X15248890Y-14328674D01*
X15248890Y-14328674D02*
X15267938Y-14319150D01*
X15267938Y-14319150D02*
X15306033Y-14319150D01*
X15306033Y-14319150D02*
X15325081Y-14328674D01*
X15325081Y-14328674D02*
X15334604Y-14347722D01*
X15334604Y-14347722D02*
X15334604Y-14366769D01*
X15334604Y-14366769D02*
X15239366Y-14385817D01*
X15410795Y-14442960D02*
X15429842Y-14452484D01*
X15429842Y-14452484D02*
X15467938Y-14452484D01*
X15467938Y-14452484D02*
X15486985Y-14442960D01*
X15486985Y-14442960D02*
X15496509Y-14423912D01*
X15496509Y-14423912D02*
X15496509Y-14414388D01*
X15496509Y-14414388D02*
X15486985Y-14395341D01*
X15486985Y-14395341D02*
X15467938Y-14385817D01*
X15467938Y-14385817D02*
X15439366Y-14385817D01*
X15439366Y-14385817D02*
X15420319Y-14376293D01*
X15420319Y-14376293D02*
X15410795Y-14357246D01*
X15410795Y-14357246D02*
X15410795Y-14347722D01*
X15410795Y-14347722D02*
X15420319Y-14328674D01*
X15420319Y-14328674D02*
X15439366Y-14319150D01*
X15439366Y-14319150D02*
X15467938Y-14319150D01*
X15467938Y-14319150D02*
X15486985Y-14328674D01*
X15563176Y-14528674D02*
X15572700Y-14519150D01*
X15572700Y-14519150D02*
X15591747Y-14490579D01*
X15591747Y-14490579D02*
X15601271Y-14471531D01*
X15601271Y-14471531D02*
X15610795Y-14442960D01*
X15610795Y-14442960D02*
X15620319Y-14395341D01*
X15620319Y-14395341D02*
X15620319Y-14357246D01*
X15620319Y-14357246D02*
X15610795Y-14309627D01*
X15610795Y-14309627D02*
X15601271Y-14281055D01*
X15601271Y-14281055D02*
X15591747Y-14262008D01*
X15591747Y-14262008D02*
X15572700Y-14233436D01*
X15572700Y-14233436D02*
X15563176Y-14223912D01*
X15925081Y-14528674D02*
X15915557Y-14519150D01*
X15915557Y-14519150D02*
X15896509Y-14490579D01*
X15896509Y-14490579D02*
X15886985Y-14471531D01*
X15886985Y-14471531D02*
X15877462Y-14442960D01*
X15877462Y-14442960D02*
X15867938Y-14395341D01*
X15867938Y-14395341D02*
X15867938Y-14357246D01*
X15867938Y-14357246D02*
X15877462Y-14309627D01*
X15877462Y-14309627D02*
X15886985Y-14281055D01*
X15886985Y-14281055D02*
X15896509Y-14262008D01*
X15896509Y-14262008D02*
X15915557Y-14233436D01*
X15915557Y-14233436D02*
X15925081Y-14223912D01*
X16001271Y-14319150D02*
X16001271Y-14452484D01*
X16001271Y-14338198D02*
X16010795Y-14328674D01*
X16010795Y-14328674D02*
X16029842Y-14319150D01*
X16029842Y-14319150D02*
X16058414Y-14319150D01*
X16058414Y-14319150D02*
X16077462Y-14328674D01*
X16077462Y-14328674D02*
X16086985Y-14347722D01*
X16086985Y-14347722D02*
X16086985Y-14452484D01*
X16210795Y-14452484D02*
X16191747Y-14442960D01*
X16191747Y-14442960D02*
X16182223Y-14433436D01*
X16182223Y-14433436D02*
X16172700Y-14414388D01*
X16172700Y-14414388D02*
X16172700Y-14357246D01*
X16172700Y-14357246D02*
X16182223Y-14338198D01*
X16182223Y-14338198D02*
X16191747Y-14328674D01*
X16191747Y-14328674D02*
X16210795Y-14319150D01*
X16210795Y-14319150D02*
X16239366Y-14319150D01*
X16239366Y-14319150D02*
X16258414Y-14328674D01*
X16258414Y-14328674D02*
X16267938Y-14338198D01*
X16267938Y-14338198D02*
X16277462Y-14357246D01*
X16277462Y-14357246D02*
X16277462Y-14414388D01*
X16277462Y-14414388D02*
X16267938Y-14433436D01*
X16267938Y-14433436D02*
X16258414Y-14442960D01*
X16258414Y-14442960D02*
X16239366Y-14452484D01*
X16239366Y-14452484D02*
X16210795Y-14452484D01*
X16334604Y-14319150D02*
X16410795Y-14319150D01*
X16363176Y-14252484D02*
X16363176Y-14423912D01*
X16363176Y-14423912D02*
X16372700Y-14442960D01*
X16372700Y-14442960D02*
X16391747Y-14452484D01*
X16391747Y-14452484D02*
X16410795Y-14452484D01*
X16629843Y-14319150D02*
X16629843Y-14519150D01*
X16629843Y-14328674D02*
X16648890Y-14319150D01*
X16648890Y-14319150D02*
X16686985Y-14319150D01*
X16686985Y-14319150D02*
X16706033Y-14328674D01*
X16706033Y-14328674D02*
X16715557Y-14338198D01*
X16715557Y-14338198D02*
X16725081Y-14357246D01*
X16725081Y-14357246D02*
X16725081Y-14414388D01*
X16725081Y-14414388D02*
X16715557Y-14433436D01*
X16715557Y-14433436D02*
X16706033Y-14442960D01*
X16706033Y-14442960D02*
X16686985Y-14452484D01*
X16686985Y-14452484D02*
X16648890Y-14452484D01*
X16648890Y-14452484D02*
X16629843Y-14442960D01*
X16839366Y-14452484D02*
X16820319Y-14442960D01*
X16820319Y-14442960D02*
X16810795Y-14423912D01*
X16810795Y-14423912D02*
X16810795Y-14252484D01*
X17001271Y-14452484D02*
X17001271Y-14347722D01*
X17001271Y-14347722D02*
X16991747Y-14328674D01*
X16991747Y-14328674D02*
X16972700Y-14319150D01*
X16972700Y-14319150D02*
X16934605Y-14319150D01*
X16934605Y-14319150D02*
X16915557Y-14328674D01*
X17001271Y-14442960D02*
X16982224Y-14452484D01*
X16982224Y-14452484D02*
X16934605Y-14452484D01*
X16934605Y-14452484D02*
X16915557Y-14442960D01*
X16915557Y-14442960D02*
X16906033Y-14423912D01*
X16906033Y-14423912D02*
X16906033Y-14404865D01*
X16906033Y-14404865D02*
X16915557Y-14385817D01*
X16915557Y-14385817D02*
X16934605Y-14376293D01*
X16934605Y-14376293D02*
X16982224Y-14376293D01*
X16982224Y-14376293D02*
X17001271Y-14366769D01*
X17067938Y-14319150D02*
X17144128Y-14319150D01*
X17096509Y-14252484D02*
X17096509Y-14423912D01*
X17096509Y-14423912D02*
X17106033Y-14442960D01*
X17106033Y-14442960D02*
X17125081Y-14452484D01*
X17125081Y-14452484D02*
X17144128Y-14452484D01*
X17286986Y-14442960D02*
X17267938Y-14452484D01*
X17267938Y-14452484D02*
X17229843Y-14452484D01*
X17229843Y-14452484D02*
X17210795Y-14442960D01*
X17210795Y-14442960D02*
X17201271Y-14423912D01*
X17201271Y-14423912D02*
X17201271Y-14347722D01*
X17201271Y-14347722D02*
X17210795Y-14328674D01*
X17210795Y-14328674D02*
X17229843Y-14319150D01*
X17229843Y-14319150D02*
X17267938Y-14319150D01*
X17267938Y-14319150D02*
X17286986Y-14328674D01*
X17286986Y-14328674D02*
X17296509Y-14347722D01*
X17296509Y-14347722D02*
X17296509Y-14366769D01*
X17296509Y-14366769D02*
X17201271Y-14385817D01*
X17467938Y-14452484D02*
X17467938Y-14252484D01*
X17467938Y-14442960D02*
X17448890Y-14452484D01*
X17448890Y-14452484D02*
X17410795Y-14452484D01*
X17410795Y-14452484D02*
X17391747Y-14442960D01*
X17391747Y-14442960D02*
X17382224Y-14433436D01*
X17382224Y-14433436D02*
X17372700Y-14414388D01*
X17372700Y-14414388D02*
X17372700Y-14357246D01*
X17372700Y-14357246D02*
X17382224Y-14338198D01*
X17382224Y-14338198D02*
X17391747Y-14328674D01*
X17391747Y-14328674D02*
X17410795Y-14319150D01*
X17410795Y-14319150D02*
X17448890Y-14319150D01*
X17448890Y-14319150D02*
X17467938Y-14328674D01*
X17544128Y-14528674D02*
X17553652Y-14519150D01*
X17553652Y-14519150D02*
X17572700Y-14490579D01*
X17572700Y-14490579D02*
X17582224Y-14471531D01*
X17582224Y-14471531D02*
X17591747Y-14442960D01*
X17591747Y-14442960D02*
X17601271Y-14395341D01*
X17601271Y-14395341D02*
X17601271Y-14357246D01*
X17601271Y-14357246D02*
X17591747Y-14309627D01*
X17591747Y-14309627D02*
X17582224Y-14281055D01*
X17582224Y-14281055D02*
X17572700Y-14262008D01*
X17572700Y-14262008D02*
X17553652Y-14233436D01*
X17553652Y-14233436D02*
X17544128Y-14223912D01*
X10788113Y-14625000D02*
G75*
G02*
X10588113Y-14625000I-100000J0D01*
G01*
X10588113Y-14625000D02*
G75*
G02*
X10788113Y-14625000I100000J0D01*
G01*
X11029842Y-14516484D02*
X11153652Y-14516484D01*
X11153652Y-14516484D02*
X11086985Y-14592674D01*
X11086985Y-14592674D02*
X11115556Y-14592674D01*
X11115556Y-14592674D02*
X11134604Y-14602198D01*
X11134604Y-14602198D02*
X11144128Y-14611722D01*
X11144128Y-14611722D02*
X11153652Y-14630769D01*
X11153652Y-14630769D02*
X11153652Y-14678388D01*
X11153652Y-14678388D02*
X11144128Y-14697436D01*
X11144128Y-14697436D02*
X11134604Y-14706960D01*
X11134604Y-14706960D02*
X11115556Y-14716484D01*
X11115556Y-14716484D02*
X11058414Y-14716484D01*
X11058414Y-14716484D02*
X11039366Y-14706960D01*
X11039366Y-14706960D02*
X11029842Y-14697436D01*
X11239366Y-14697436D02*
X11248890Y-14706960D01*
X11248890Y-14706960D02*
X11239366Y-14716484D01*
X11239366Y-14716484D02*
X11229842Y-14706960D01*
X11229842Y-14706960D02*
X11239366Y-14697436D01*
X11239366Y-14697436D02*
X11239366Y-14716484D01*
X11325080Y-14535531D02*
X11334604Y-14526008D01*
X11334604Y-14526008D02*
X11353652Y-14516484D01*
X11353652Y-14516484D02*
X11401271Y-14516484D01*
X11401271Y-14516484D02*
X11420318Y-14526008D01*
X11420318Y-14526008D02*
X11429842Y-14535531D01*
X11429842Y-14535531D02*
X11439366Y-14554579D01*
X11439366Y-14554579D02*
X11439366Y-14573627D01*
X11439366Y-14573627D02*
X11429842Y-14602198D01*
X11429842Y-14602198D02*
X11315556Y-14716484D01*
X11315556Y-14716484D02*
X11439366Y-14716484D01*
X11563175Y-14516484D02*
X11582223Y-14516484D01*
X11582223Y-14516484D02*
X11601271Y-14526008D01*
X11601271Y-14526008D02*
X11610794Y-14535531D01*
X11610794Y-14535531D02*
X11620318Y-14554579D01*
X11620318Y-14554579D02*
X11629842Y-14592674D01*
X11629842Y-14592674D02*
X11629842Y-14640293D01*
X11629842Y-14640293D02*
X11620318Y-14678388D01*
X11620318Y-14678388D02*
X11610794Y-14697436D01*
X11610794Y-14697436D02*
X11601271Y-14706960D01*
X11601271Y-14706960D02*
X11582223Y-14716484D01*
X11582223Y-14716484D02*
X11563175Y-14716484D01*
X11563175Y-14716484D02*
X11544128Y-14706960D01*
X11544128Y-14706960D02*
X11534604Y-14697436D01*
X11534604Y-14697436D02*
X11525080Y-14678388D01*
X11525080Y-14678388D02*
X11515556Y-14640293D01*
X11515556Y-14640293D02*
X11515556Y-14592674D01*
X11515556Y-14592674D02*
X11525080Y-14554579D01*
X11525080Y-14554579D02*
X11534604Y-14535531D01*
X11534604Y-14535531D02*
X11544128Y-14526008D01*
X11544128Y-14526008D02*
X11563175Y-14516484D01*
X11753652Y-14516484D02*
X11772699Y-14516484D01*
X11772699Y-14516484D02*
X11791747Y-14526008D01*
X11791747Y-14526008D02*
X11801271Y-14535531D01*
X11801271Y-14535531D02*
X11810794Y-14554579D01*
X11810794Y-14554579D02*
X11820318Y-14592674D01*
X11820318Y-14592674D02*
X11820318Y-14640293D01*
X11820318Y-14640293D02*
X11810794Y-14678388D01*
X11810794Y-14678388D02*
X11801271Y-14697436D01*
X11801271Y-14697436D02*
X11791747Y-14706960D01*
X11791747Y-14706960D02*
X11772699Y-14716484D01*
X11772699Y-14716484D02*
X11753652Y-14716484D01*
X11753652Y-14716484D02*
X11734604Y-14706960D01*
X11734604Y-14706960D02*
X11725080Y-14697436D01*
X11725080Y-14697436D02*
X11715556Y-14678388D01*
X11715556Y-14678388D02*
X11706033Y-14640293D01*
X11706033Y-14640293D02*
X11706033Y-14592674D01*
X11706033Y-14592674D02*
X11715556Y-14554579D01*
X11715556Y-14554579D02*
X11725080Y-14535531D01*
X11725080Y-14535531D02*
X11734604Y-14526008D01*
X11734604Y-14526008D02*
X11753652Y-14516484D01*
X11906033Y-14716484D02*
X11906033Y-14583150D01*
X11906033Y-14602198D02*
X11915556Y-14592674D01*
X11915556Y-14592674D02*
X11934604Y-14583150D01*
X11934604Y-14583150D02*
X11963175Y-14583150D01*
X11963175Y-14583150D02*
X11982223Y-14592674D01*
X11982223Y-14592674D02*
X11991747Y-14611722D01*
X11991747Y-14611722D02*
X11991747Y-14716484D01*
X11991747Y-14611722D02*
X12001271Y-14592674D01*
X12001271Y-14592674D02*
X12020318Y-14583150D01*
X12020318Y-14583150D02*
X12048890Y-14583150D01*
X12048890Y-14583150D02*
X12067937Y-14592674D01*
X12067937Y-14592674D02*
X12077461Y-14611722D01*
X12077461Y-14611722D02*
X12077461Y-14716484D01*
X12172699Y-14716484D02*
X12172699Y-14583150D01*
X12172699Y-14602198D02*
X12182223Y-14592674D01*
X12182223Y-14592674D02*
X12201271Y-14583150D01*
X12201271Y-14583150D02*
X12229842Y-14583150D01*
X12229842Y-14583150D02*
X12248890Y-14592674D01*
X12248890Y-14592674D02*
X12258414Y-14611722D01*
X12258414Y-14611722D02*
X12258414Y-14716484D01*
X12258414Y-14611722D02*
X12267937Y-14592674D01*
X12267937Y-14592674D02*
X12286985Y-14583150D01*
X12286985Y-14583150D02*
X12315556Y-14583150D01*
X12315556Y-14583150D02*
X12334604Y-14592674D01*
X12334604Y-14592674D02*
X12344128Y-14611722D01*
X12344128Y-14611722D02*
X12344128Y-14716484D01*
X12734604Y-14506960D02*
X12563176Y-14764103D01*
X12991747Y-14516484D02*
X13010795Y-14516484D01*
X13010795Y-14516484D02*
X13029842Y-14526008D01*
X13029842Y-14526008D02*
X13039366Y-14535531D01*
X13039366Y-14535531D02*
X13048890Y-14554579D01*
X13048890Y-14554579D02*
X13058414Y-14592674D01*
X13058414Y-14592674D02*
X13058414Y-14640293D01*
X13058414Y-14640293D02*
X13048890Y-14678388D01*
X13048890Y-14678388D02*
X13039366Y-14697436D01*
X13039366Y-14697436D02*
X13029842Y-14706960D01*
X13029842Y-14706960D02*
X13010795Y-14716484D01*
X13010795Y-14716484D02*
X12991747Y-14716484D01*
X12991747Y-14716484D02*
X12972699Y-14706960D01*
X12972699Y-14706960D02*
X12963176Y-14697436D01*
X12963176Y-14697436D02*
X12953652Y-14678388D01*
X12953652Y-14678388D02*
X12944128Y-14640293D01*
X12944128Y-14640293D02*
X12944128Y-14592674D01*
X12944128Y-14592674D02*
X12953652Y-14554579D01*
X12953652Y-14554579D02*
X12963176Y-14535531D01*
X12963176Y-14535531D02*
X12972699Y-14526008D01*
X12972699Y-14526008D02*
X12991747Y-14516484D01*
X13144128Y-14697436D02*
X13153652Y-14706960D01*
X13153652Y-14706960D02*
X13144128Y-14716484D01*
X13144128Y-14716484D02*
X13134604Y-14706960D01*
X13134604Y-14706960D02*
X13144128Y-14697436D01*
X13144128Y-14697436D02*
X13144128Y-14716484D01*
X13344128Y-14716484D02*
X13229842Y-14716484D01*
X13286985Y-14716484D02*
X13286985Y-14516484D01*
X13286985Y-14516484D02*
X13267937Y-14545055D01*
X13267937Y-14545055D02*
X13248890Y-14564103D01*
X13248890Y-14564103D02*
X13229842Y-14573627D01*
X13420318Y-14535531D02*
X13429842Y-14526008D01*
X13429842Y-14526008D02*
X13448890Y-14516484D01*
X13448890Y-14516484D02*
X13496509Y-14516484D01*
X13496509Y-14516484D02*
X13515557Y-14526008D01*
X13515557Y-14526008D02*
X13525080Y-14535531D01*
X13525080Y-14535531D02*
X13534604Y-14554579D01*
X13534604Y-14554579D02*
X13534604Y-14573627D01*
X13534604Y-14573627D02*
X13525080Y-14602198D01*
X13525080Y-14602198D02*
X13410795Y-14716484D01*
X13410795Y-14716484D02*
X13534604Y-14716484D01*
X13706033Y-14516484D02*
X13667937Y-14516484D01*
X13667937Y-14516484D02*
X13648890Y-14526008D01*
X13648890Y-14526008D02*
X13639366Y-14535531D01*
X13639366Y-14535531D02*
X13620318Y-14564103D01*
X13620318Y-14564103D02*
X13610795Y-14602198D01*
X13610795Y-14602198D02*
X13610795Y-14678388D01*
X13610795Y-14678388D02*
X13620318Y-14697436D01*
X13620318Y-14697436D02*
X13629842Y-14706960D01*
X13629842Y-14706960D02*
X13648890Y-14716484D01*
X13648890Y-14716484D02*
X13686985Y-14716484D01*
X13686985Y-14716484D02*
X13706033Y-14706960D01*
X13706033Y-14706960D02*
X13715557Y-14697436D01*
X13715557Y-14697436D02*
X13725080Y-14678388D01*
X13725080Y-14678388D02*
X13725080Y-14630769D01*
X13725080Y-14630769D02*
X13715557Y-14611722D01*
X13715557Y-14611722D02*
X13706033Y-14602198D01*
X13706033Y-14602198D02*
X13686985Y-14592674D01*
X13686985Y-14592674D02*
X13648890Y-14592674D01*
X13648890Y-14592674D02*
X13629842Y-14602198D01*
X13629842Y-14602198D02*
X13620318Y-14611722D01*
X13620318Y-14611722D02*
X13610795Y-14630769D01*
X13848890Y-14516484D02*
X13867938Y-14516484D01*
X13867938Y-14516484D02*
X13886985Y-14526008D01*
X13886985Y-14526008D02*
X13896509Y-14535531D01*
X13896509Y-14535531D02*
X13906033Y-14554579D01*
X13906033Y-14554579D02*
X13915557Y-14592674D01*
X13915557Y-14592674D02*
X13915557Y-14640293D01*
X13915557Y-14640293D02*
X13906033Y-14678388D01*
X13906033Y-14678388D02*
X13896509Y-14697436D01*
X13896509Y-14697436D02*
X13886985Y-14706960D01*
X13886985Y-14706960D02*
X13867938Y-14716484D01*
X13867938Y-14716484D02*
X13848890Y-14716484D01*
X13848890Y-14716484D02*
X13829842Y-14706960D01*
X13829842Y-14706960D02*
X13820318Y-14697436D01*
X13820318Y-14697436D02*
X13810795Y-14678388D01*
X13810795Y-14678388D02*
X13801271Y-14640293D01*
X13801271Y-14640293D02*
X13801271Y-14592674D01*
X13801271Y-14592674D02*
X13810795Y-14554579D01*
X13810795Y-14554579D02*
X13820318Y-14535531D01*
X13820318Y-14535531D02*
X13829842Y-14526008D01*
X13829842Y-14526008D02*
X13848890Y-14516484D01*
X13991747Y-14516484D02*
X13991747Y-14554579D01*
X14067938Y-14516484D02*
X14067938Y-14554579D01*
X14363176Y-14792674D02*
X14353652Y-14783150D01*
X14353652Y-14783150D02*
X14334604Y-14754579D01*
X14334604Y-14754579D02*
X14325080Y-14735531D01*
X14325080Y-14735531D02*
X14315557Y-14706960D01*
X14315557Y-14706960D02*
X14306033Y-14659341D01*
X14306033Y-14659341D02*
X14306033Y-14621246D01*
X14306033Y-14621246D02*
X14315557Y-14573627D01*
X14315557Y-14573627D02*
X14325080Y-14545055D01*
X14325080Y-14545055D02*
X14334604Y-14526008D01*
X14334604Y-14526008D02*
X14353652Y-14497436D01*
X14353652Y-14497436D02*
X14363176Y-14487912D01*
X14525080Y-14583150D02*
X14525080Y-14716484D01*
X14477461Y-14506960D02*
X14429842Y-14649817D01*
X14429842Y-14649817D02*
X14553652Y-14649817D01*
X14782223Y-14716484D02*
X14782223Y-14516484D01*
X14867938Y-14716484D02*
X14867938Y-14611722D01*
X14867938Y-14611722D02*
X14858414Y-14592674D01*
X14858414Y-14592674D02*
X14839366Y-14583150D01*
X14839366Y-14583150D02*
X14810795Y-14583150D01*
X14810795Y-14583150D02*
X14791747Y-14592674D01*
X14791747Y-14592674D02*
X14782223Y-14602198D01*
X14991747Y-14716484D02*
X14972700Y-14706960D01*
X14972700Y-14706960D02*
X14963176Y-14697436D01*
X14963176Y-14697436D02*
X14953652Y-14678388D01*
X14953652Y-14678388D02*
X14953652Y-14621246D01*
X14953652Y-14621246D02*
X14963176Y-14602198D01*
X14963176Y-14602198D02*
X14972700Y-14592674D01*
X14972700Y-14592674D02*
X14991747Y-14583150D01*
X14991747Y-14583150D02*
X15020319Y-14583150D01*
X15020319Y-14583150D02*
X15039366Y-14592674D01*
X15039366Y-14592674D02*
X15048890Y-14602198D01*
X15048890Y-14602198D02*
X15058414Y-14621246D01*
X15058414Y-14621246D02*
X15058414Y-14678388D01*
X15058414Y-14678388D02*
X15048890Y-14697436D01*
X15048890Y-14697436D02*
X15039366Y-14706960D01*
X15039366Y-14706960D02*
X15020319Y-14716484D01*
X15020319Y-14716484D02*
X14991747Y-14716484D01*
X15172700Y-14716484D02*
X15153652Y-14706960D01*
X15153652Y-14706960D02*
X15144128Y-14687912D01*
X15144128Y-14687912D02*
X15144128Y-14516484D01*
X15325081Y-14706960D02*
X15306033Y-14716484D01*
X15306033Y-14716484D02*
X15267938Y-14716484D01*
X15267938Y-14716484D02*
X15248890Y-14706960D01*
X15248890Y-14706960D02*
X15239366Y-14687912D01*
X15239366Y-14687912D02*
X15239366Y-14611722D01*
X15239366Y-14611722D02*
X15248890Y-14592674D01*
X15248890Y-14592674D02*
X15267938Y-14583150D01*
X15267938Y-14583150D02*
X15306033Y-14583150D01*
X15306033Y-14583150D02*
X15325081Y-14592674D01*
X15325081Y-14592674D02*
X15334604Y-14611722D01*
X15334604Y-14611722D02*
X15334604Y-14630769D01*
X15334604Y-14630769D02*
X15239366Y-14649817D01*
X15410795Y-14706960D02*
X15429842Y-14716484D01*
X15429842Y-14716484D02*
X15467938Y-14716484D01*
X15467938Y-14716484D02*
X15486985Y-14706960D01*
X15486985Y-14706960D02*
X15496509Y-14687912D01*
X15496509Y-14687912D02*
X15496509Y-14678388D01*
X15496509Y-14678388D02*
X15486985Y-14659341D01*
X15486985Y-14659341D02*
X15467938Y-14649817D01*
X15467938Y-14649817D02*
X15439366Y-14649817D01*
X15439366Y-14649817D02*
X15420319Y-14640293D01*
X15420319Y-14640293D02*
X15410795Y-14621246D01*
X15410795Y-14621246D02*
X15410795Y-14611722D01*
X15410795Y-14611722D02*
X15420319Y-14592674D01*
X15420319Y-14592674D02*
X15439366Y-14583150D01*
X15439366Y-14583150D02*
X15467938Y-14583150D01*
X15467938Y-14583150D02*
X15486985Y-14592674D01*
X15563176Y-14792674D02*
X15572700Y-14783150D01*
X15572700Y-14783150D02*
X15591747Y-14754579D01*
X15591747Y-14754579D02*
X15601271Y-14735531D01*
X15601271Y-14735531D02*
X15610795Y-14706960D01*
X15610795Y-14706960D02*
X15620319Y-14659341D01*
X15620319Y-14659341D02*
X15620319Y-14621246D01*
X15620319Y-14621246D02*
X15610795Y-14573627D01*
X15610795Y-14573627D02*
X15601271Y-14545055D01*
X15601271Y-14545055D02*
X15591747Y-14526008D01*
X15591747Y-14526008D02*
X15572700Y-14497436D01*
X15572700Y-14497436D02*
X15563176Y-14487912D01*
X15925081Y-14792674D02*
X15915557Y-14783150D01*
X15915557Y-14783150D02*
X15896509Y-14754579D01*
X15896509Y-14754579D02*
X15886985Y-14735531D01*
X15886985Y-14735531D02*
X15877462Y-14706960D01*
X15877462Y-14706960D02*
X15867938Y-14659341D01*
X15867938Y-14659341D02*
X15867938Y-14621246D01*
X15867938Y-14621246D02*
X15877462Y-14573627D01*
X15877462Y-14573627D02*
X15886985Y-14545055D01*
X15886985Y-14545055D02*
X15896509Y-14526008D01*
X15896509Y-14526008D02*
X15915557Y-14497436D01*
X15915557Y-14497436D02*
X15925081Y-14487912D01*
X16001271Y-14583150D02*
X16001271Y-14716484D01*
X16001271Y-14602198D02*
X16010795Y-14592674D01*
X16010795Y-14592674D02*
X16029842Y-14583150D01*
X16029842Y-14583150D02*
X16058414Y-14583150D01*
X16058414Y-14583150D02*
X16077462Y-14592674D01*
X16077462Y-14592674D02*
X16086985Y-14611722D01*
X16086985Y-14611722D02*
X16086985Y-14716484D01*
X16210795Y-14716484D02*
X16191747Y-14706960D01*
X16191747Y-14706960D02*
X16182223Y-14697436D01*
X16182223Y-14697436D02*
X16172700Y-14678388D01*
X16172700Y-14678388D02*
X16172700Y-14621246D01*
X16172700Y-14621246D02*
X16182223Y-14602198D01*
X16182223Y-14602198D02*
X16191747Y-14592674D01*
X16191747Y-14592674D02*
X16210795Y-14583150D01*
X16210795Y-14583150D02*
X16239366Y-14583150D01*
X16239366Y-14583150D02*
X16258414Y-14592674D01*
X16258414Y-14592674D02*
X16267938Y-14602198D01*
X16267938Y-14602198D02*
X16277462Y-14621246D01*
X16277462Y-14621246D02*
X16277462Y-14678388D01*
X16277462Y-14678388D02*
X16267938Y-14697436D01*
X16267938Y-14697436D02*
X16258414Y-14706960D01*
X16258414Y-14706960D02*
X16239366Y-14716484D01*
X16239366Y-14716484D02*
X16210795Y-14716484D01*
X16334604Y-14583150D02*
X16410795Y-14583150D01*
X16363176Y-14516484D02*
X16363176Y-14687912D01*
X16363176Y-14687912D02*
X16372700Y-14706960D01*
X16372700Y-14706960D02*
X16391747Y-14716484D01*
X16391747Y-14716484D02*
X16410795Y-14716484D01*
X16629843Y-14583150D02*
X16629843Y-14783150D01*
X16629843Y-14592674D02*
X16648890Y-14583150D01*
X16648890Y-14583150D02*
X16686985Y-14583150D01*
X16686985Y-14583150D02*
X16706033Y-14592674D01*
X16706033Y-14592674D02*
X16715557Y-14602198D01*
X16715557Y-14602198D02*
X16725081Y-14621246D01*
X16725081Y-14621246D02*
X16725081Y-14678388D01*
X16725081Y-14678388D02*
X16715557Y-14697436D01*
X16715557Y-14697436D02*
X16706033Y-14706960D01*
X16706033Y-14706960D02*
X16686985Y-14716484D01*
X16686985Y-14716484D02*
X16648890Y-14716484D01*
X16648890Y-14716484D02*
X16629843Y-14706960D01*
X16839366Y-14716484D02*
X16820319Y-14706960D01*
X16820319Y-14706960D02*
X16810795Y-14687912D01*
X16810795Y-14687912D02*
X16810795Y-14516484D01*
X17001271Y-14716484D02*
X17001271Y-14611722D01*
X17001271Y-14611722D02*
X16991747Y-14592674D01*
X16991747Y-14592674D02*
X16972700Y-14583150D01*
X16972700Y-14583150D02*
X16934605Y-14583150D01*
X16934605Y-14583150D02*
X16915557Y-14592674D01*
X17001271Y-14706960D02*
X16982224Y-14716484D01*
X16982224Y-14716484D02*
X16934605Y-14716484D01*
X16934605Y-14716484D02*
X16915557Y-14706960D01*
X16915557Y-14706960D02*
X16906033Y-14687912D01*
X16906033Y-14687912D02*
X16906033Y-14668865D01*
X16906033Y-14668865D02*
X16915557Y-14649817D01*
X16915557Y-14649817D02*
X16934605Y-14640293D01*
X16934605Y-14640293D02*
X16982224Y-14640293D01*
X16982224Y-14640293D02*
X17001271Y-14630769D01*
X17067938Y-14583150D02*
X17144128Y-14583150D01*
X17096509Y-14516484D02*
X17096509Y-14687912D01*
X17096509Y-14687912D02*
X17106033Y-14706960D01*
X17106033Y-14706960D02*
X17125081Y-14716484D01*
X17125081Y-14716484D02*
X17144128Y-14716484D01*
X17286986Y-14706960D02*
X17267938Y-14716484D01*
X17267938Y-14716484D02*
X17229843Y-14716484D01*
X17229843Y-14716484D02*
X17210795Y-14706960D01*
X17210795Y-14706960D02*
X17201271Y-14687912D01*
X17201271Y-14687912D02*
X17201271Y-14611722D01*
X17201271Y-14611722D02*
X17210795Y-14592674D01*
X17210795Y-14592674D02*
X17229843Y-14583150D01*
X17229843Y-14583150D02*
X17267938Y-14583150D01*
X17267938Y-14583150D02*
X17286986Y-14592674D01*
X17286986Y-14592674D02*
X17296509Y-14611722D01*
X17296509Y-14611722D02*
X17296509Y-14630769D01*
X17296509Y-14630769D02*
X17201271Y-14649817D01*
X17467938Y-14716484D02*
X17467938Y-14516484D01*
X17467938Y-14706960D02*
X17448890Y-14716484D01*
X17448890Y-14716484D02*
X17410795Y-14716484D01*
X17410795Y-14716484D02*
X17391747Y-14706960D01*
X17391747Y-14706960D02*
X17382224Y-14697436D01*
X17382224Y-14697436D02*
X17372700Y-14678388D01*
X17372700Y-14678388D02*
X17372700Y-14621246D01*
X17372700Y-14621246D02*
X17382224Y-14602198D01*
X17382224Y-14602198D02*
X17391747Y-14592674D01*
X17391747Y-14592674D02*
X17410795Y-14583150D01*
X17410795Y-14583150D02*
X17448890Y-14583150D01*
X17448890Y-14583150D02*
X17467938Y-14592674D01*
X17544128Y-14792674D02*
X17553652Y-14783150D01*
X17553652Y-14783150D02*
X17572700Y-14754579D01*
X17572700Y-14754579D02*
X17582224Y-14735531D01*
X17582224Y-14735531D02*
X17591747Y-14706960D01*
X17591747Y-14706960D02*
X17601271Y-14659341D01*
X17601271Y-14659341D02*
X17601271Y-14621246D01*
X17601271Y-14621246D02*
X17591747Y-14573627D01*
X17591747Y-14573627D02*
X17582224Y-14545055D01*
X17582224Y-14545055D02*
X17572700Y-14526008D01*
X17572700Y-14526008D02*
X17553652Y-14497436D01*
X17553652Y-14497436D02*
X17544128Y-14487912D01*
M02*
