%TF.GenerationSoftware,KiCad,Pcbnew,8.0.1*%
%TF.CreationDate,2024-05-02T11:18:55+05:30*%
%TF.ProjectId,MAX10eval,4d415831-3065-4766-916c-2e6b69636164,rev?*%
%TF.SameCoordinates,Original*%
%TF.FileFunction,Soldermask,Top*%
%TF.FilePolarity,Negative*%
%FSLAX46Y46*%
G04 Gerber Fmt 4.6, Leading zero omitted, Abs format (unit mm)*
G04 Created by KiCad (PCBNEW 8.0.1) date 2024-05-02 11:18:55*
%MOMM*%
%LPD*%
G01*
G04 APERTURE LIST*
G04 Aperture macros list*
%AMRoundRect*
0 Rectangle with rounded corners*
0 $1 Rounding radius*
0 $2 $3 $4 $5 $6 $7 $8 $9 X,Y pos of 4 corners*
0 Add a 4 corners polygon primitive as box body*
4,1,4,$2,$3,$4,$5,$6,$7,$8,$9,$2,$3,0*
0 Add four circle primitives for the rounded corners*
1,1,$1+$1,$2,$3*
1,1,$1+$1,$4,$5*
1,1,$1+$1,$6,$7*
1,1,$1+$1,$8,$9*
0 Add four rect primitives between the rounded corners*
20,1,$1+$1,$2,$3,$4,$5,0*
20,1,$1+$1,$4,$5,$6,$7,0*
20,1,$1+$1,$6,$7,$8,$9,0*
20,1,$1+$1,$8,$9,$2,$3,0*%
G04 Aperture macros list end*
%ADD10C,0.000100*%
%ADD11RoundRect,0.100000X0.130000X0.100000X-0.130000X0.100000X-0.130000X-0.100000X0.130000X-0.100000X0*%
%ADD12RoundRect,0.100000X-0.130000X-0.100000X0.130000X-0.100000X0.130000X0.100000X-0.130000X0.100000X0*%
%ADD13C,1.800000*%
%ADD14RoundRect,0.102000X-0.774700X-0.647700X0.774700X-0.647700X0.774700X0.647700X-0.774700X0.647700X0*%
%ADD15RoundRect,0.100000X-0.100000X0.130000X-0.100000X-0.130000X0.100000X-0.130000X0.100000X0.130000X0*%
%ADD16R,1.000000X1.000000*%
%ADD17R,1.700000X1.700000*%
%ADD18O,1.700000X1.700000*%
%ADD19RoundRect,0.100000X0.100000X-0.130000X0.100000X0.130000X-0.100000X0.130000X-0.100000X-0.130000X0*%
%ADD20RoundRect,0.120600X-0.281400X0.966400X-0.281400X-0.966400X0.281400X-0.966400X0.281400X0.966400X0*%
%ADD21RoundRect,0.102000X-0.900000X-1.000000X0.900000X-1.000000X0.900000X1.000000X-0.900000X1.000000X0*%
%ADD22C,3.200000*%
%ADD23C,2.340000*%
%ADD24RoundRect,0.102000X-0.735000X-0.140000X0.735000X-0.140000X0.735000X0.140000X-0.735000X0.140000X0*%
%ADD25RoundRect,0.102000X-0.140000X-0.735000X0.140000X-0.735000X0.140000X0.735000X-0.140000X0.735000X0*%
%ADD26RoundRect,0.102000X-3.305000X-2.810000X3.305000X-2.810000X3.305000X2.810000X-3.305000X2.810000X0*%
%ADD27R,2.160000X1.120000*%
%ADD28RoundRect,0.250001X0.924999X0.499999X-0.924999X0.499999X-0.924999X-0.499999X0.924999X-0.499999X0*%
%ADD29RoundRect,0.102000X-0.460000X-0.690000X0.460000X-0.690000X0.460000X0.690000X-0.460000X0.690000X0*%
%ADD30R,1.300000X2.000000*%
%ADD31R,2.000000X2.000000*%
%ADD32C,1.000000*%
%ADD33R,2.000000X0.500000*%
%ADD34R,1.700000X2.000000*%
%ADD35R,1.490000X1.490000*%
%ADD36C,1.490000*%
%ADD37RoundRect,0.102000X0.690000X-0.460000X0.690000X0.460000X-0.690000X0.460000X-0.690000X-0.460000X0*%
G04 APERTURE END LIST*
D10*
%TO.C,U1*%
X113109500Y-87680000D02*
X113120500Y-87682000D01*
X113132500Y-87684000D01*
X113143500Y-87687000D01*
X113155500Y-87690000D01*
X113166500Y-87694000D01*
X113177500Y-87698000D01*
X113187500Y-87704000D01*
X113197500Y-87709000D01*
X113208500Y-87715000D01*
X113217500Y-87722000D01*
X113227500Y-87729000D01*
X113236500Y-87737000D01*
X113244500Y-87745000D01*
X113252500Y-87753000D01*
X113260500Y-87762000D01*
X113267500Y-87772000D01*
X113274500Y-87781000D01*
X113280500Y-87791000D01*
X113285500Y-87802000D01*
X113291500Y-87812000D01*
X113295500Y-87823000D01*
X113299500Y-87834000D01*
X113302500Y-87846000D01*
X113305500Y-87857000D01*
X113307500Y-87869000D01*
X113309500Y-87880000D01*
X113310500Y-87892000D01*
X113310500Y-87904000D01*
X113310500Y-87916000D01*
X113309500Y-87928000D01*
X113307500Y-87939000D01*
X113305500Y-87951000D01*
X113302500Y-87962000D01*
X113299500Y-87974000D01*
X113295500Y-87985000D01*
X113291500Y-87996000D01*
X113285500Y-88006000D01*
X113280500Y-88017000D01*
X113274500Y-88027000D01*
X113267500Y-88036000D01*
X113260500Y-88046000D01*
X113252500Y-88055000D01*
X113244500Y-88063000D01*
X113236500Y-88071000D01*
X113227500Y-88079000D01*
X113217500Y-88086000D01*
X113208500Y-88093000D01*
X113197500Y-88099000D01*
X113187500Y-88104000D01*
X113177500Y-88110000D01*
X113166500Y-88114000D01*
X113155500Y-88118000D01*
X113143500Y-88121000D01*
X113132500Y-88124000D01*
X113120500Y-88126000D01*
X113109500Y-88128000D01*
X113097500Y-88129000D01*
X113085500Y-88129000D01*
X112560500Y-88129000D01*
X112560500Y-87679000D01*
X113085500Y-87679000D01*
X113097500Y-87679000D01*
X113109500Y-87680000D01*
G36*
X113109500Y-87680000D02*
G01*
X113120500Y-87682000D01*
X113132500Y-87684000D01*
X113143500Y-87687000D01*
X113155500Y-87690000D01*
X113166500Y-87694000D01*
X113177500Y-87698000D01*
X113187500Y-87704000D01*
X113197500Y-87709000D01*
X113208500Y-87715000D01*
X113217500Y-87722000D01*
X113227500Y-87729000D01*
X113236500Y-87737000D01*
X113244500Y-87745000D01*
X113252500Y-87753000D01*
X113260500Y-87762000D01*
X113267500Y-87772000D01*
X113274500Y-87781000D01*
X113280500Y-87791000D01*
X113285500Y-87802000D01*
X113291500Y-87812000D01*
X113295500Y-87823000D01*
X113299500Y-87834000D01*
X113302500Y-87846000D01*
X113305500Y-87857000D01*
X113307500Y-87869000D01*
X113309500Y-87880000D01*
X113310500Y-87892000D01*
X113310500Y-87904000D01*
X113310500Y-87916000D01*
X113309500Y-87928000D01*
X113307500Y-87939000D01*
X113305500Y-87951000D01*
X113302500Y-87962000D01*
X113299500Y-87974000D01*
X113295500Y-87985000D01*
X113291500Y-87996000D01*
X113285500Y-88006000D01*
X113280500Y-88017000D01*
X113274500Y-88027000D01*
X113267500Y-88036000D01*
X113260500Y-88046000D01*
X113252500Y-88055000D01*
X113244500Y-88063000D01*
X113236500Y-88071000D01*
X113227500Y-88079000D01*
X113217500Y-88086000D01*
X113208500Y-88093000D01*
X113197500Y-88099000D01*
X113187500Y-88104000D01*
X113177500Y-88110000D01*
X113166500Y-88114000D01*
X113155500Y-88118000D01*
X113143500Y-88121000D01*
X113132500Y-88124000D01*
X113120500Y-88126000D01*
X113109500Y-88128000D01*
X113097500Y-88129000D01*
X113085500Y-88129000D01*
X112560500Y-88129000D01*
X112560500Y-87679000D01*
X113085500Y-87679000D01*
X113097500Y-87679000D01*
X113109500Y-87680000D01*
G37*
X113109500Y-88180000D02*
X113120500Y-88182000D01*
X113132500Y-88184000D01*
X113143500Y-88187000D01*
X113155500Y-88190000D01*
X113166500Y-88194000D01*
X113177500Y-88198000D01*
X113187500Y-88204000D01*
X113197500Y-88209000D01*
X113208500Y-88215000D01*
X113217500Y-88222000D01*
X113227500Y-88229000D01*
X113236500Y-88237000D01*
X113244500Y-88245000D01*
X113252500Y-88253000D01*
X113260500Y-88262000D01*
X113267500Y-88272000D01*
X113274500Y-88281000D01*
X113280500Y-88291000D01*
X113285500Y-88302000D01*
X113291500Y-88312000D01*
X113295500Y-88323000D01*
X113299500Y-88334000D01*
X113302500Y-88346000D01*
X113305500Y-88357000D01*
X113307500Y-88369000D01*
X113309500Y-88380000D01*
X113310500Y-88392000D01*
X113310500Y-88404000D01*
X113310500Y-88416000D01*
X113309500Y-88428000D01*
X113307500Y-88439000D01*
X113305500Y-88451000D01*
X113302500Y-88462000D01*
X113299500Y-88474000D01*
X113295500Y-88485000D01*
X113291500Y-88496000D01*
X113285500Y-88506000D01*
X113280500Y-88517000D01*
X113274500Y-88527000D01*
X113267500Y-88536000D01*
X113260500Y-88546000D01*
X113252500Y-88555000D01*
X113244500Y-88563000D01*
X113236500Y-88571000D01*
X113227500Y-88579000D01*
X113217500Y-88586000D01*
X113208500Y-88593000D01*
X113197500Y-88599000D01*
X113187500Y-88604000D01*
X113177500Y-88610000D01*
X113166500Y-88614000D01*
X113155500Y-88618000D01*
X113143500Y-88621000D01*
X113132500Y-88624000D01*
X113120500Y-88626000D01*
X113109500Y-88628000D01*
X113097500Y-88629000D01*
X113085500Y-88629000D01*
X112560500Y-88629000D01*
X112560500Y-88179000D01*
X113085500Y-88179000D01*
X113097500Y-88179000D01*
X113109500Y-88180000D01*
G36*
X113109500Y-88180000D02*
G01*
X113120500Y-88182000D01*
X113132500Y-88184000D01*
X113143500Y-88187000D01*
X113155500Y-88190000D01*
X113166500Y-88194000D01*
X113177500Y-88198000D01*
X113187500Y-88204000D01*
X113197500Y-88209000D01*
X113208500Y-88215000D01*
X113217500Y-88222000D01*
X113227500Y-88229000D01*
X113236500Y-88237000D01*
X113244500Y-88245000D01*
X113252500Y-88253000D01*
X113260500Y-88262000D01*
X113267500Y-88272000D01*
X113274500Y-88281000D01*
X113280500Y-88291000D01*
X113285500Y-88302000D01*
X113291500Y-88312000D01*
X113295500Y-88323000D01*
X113299500Y-88334000D01*
X113302500Y-88346000D01*
X113305500Y-88357000D01*
X113307500Y-88369000D01*
X113309500Y-88380000D01*
X113310500Y-88392000D01*
X113310500Y-88404000D01*
X113310500Y-88416000D01*
X113309500Y-88428000D01*
X113307500Y-88439000D01*
X113305500Y-88451000D01*
X113302500Y-88462000D01*
X113299500Y-88474000D01*
X113295500Y-88485000D01*
X113291500Y-88496000D01*
X113285500Y-88506000D01*
X113280500Y-88517000D01*
X113274500Y-88527000D01*
X113267500Y-88536000D01*
X113260500Y-88546000D01*
X113252500Y-88555000D01*
X113244500Y-88563000D01*
X113236500Y-88571000D01*
X113227500Y-88579000D01*
X113217500Y-88586000D01*
X113208500Y-88593000D01*
X113197500Y-88599000D01*
X113187500Y-88604000D01*
X113177500Y-88610000D01*
X113166500Y-88614000D01*
X113155500Y-88618000D01*
X113143500Y-88621000D01*
X113132500Y-88624000D01*
X113120500Y-88626000D01*
X113109500Y-88628000D01*
X113097500Y-88629000D01*
X113085500Y-88629000D01*
X112560500Y-88629000D01*
X112560500Y-88179000D01*
X113085500Y-88179000D01*
X113097500Y-88179000D01*
X113109500Y-88180000D01*
G37*
X113109500Y-88680000D02*
X113120500Y-88682000D01*
X113132500Y-88684000D01*
X113143500Y-88687000D01*
X113155500Y-88690000D01*
X113166500Y-88694000D01*
X113177500Y-88698000D01*
X113187500Y-88704000D01*
X113197500Y-88709000D01*
X113208500Y-88715000D01*
X113217500Y-88722000D01*
X113227500Y-88729000D01*
X113236500Y-88737000D01*
X113244500Y-88745000D01*
X113252500Y-88753000D01*
X113260500Y-88762000D01*
X113267500Y-88772000D01*
X113274500Y-88781000D01*
X113280500Y-88792000D01*
X113285500Y-88802000D01*
X113291500Y-88812000D01*
X113295500Y-88823000D01*
X113299500Y-88834000D01*
X113302500Y-88846000D01*
X113305500Y-88857000D01*
X113307500Y-88869000D01*
X113309500Y-88880000D01*
X113310500Y-88892000D01*
X113310500Y-88904000D01*
X113310500Y-88916000D01*
X113309500Y-88928000D01*
X113307500Y-88939000D01*
X113305500Y-88951000D01*
X113302500Y-88962000D01*
X113299500Y-88974000D01*
X113295500Y-88985000D01*
X113291500Y-88996000D01*
X113285500Y-89006000D01*
X113280500Y-89017000D01*
X113274500Y-89027000D01*
X113267500Y-89036000D01*
X113260500Y-89046000D01*
X113252500Y-89055000D01*
X113244500Y-89063000D01*
X113236500Y-89071000D01*
X113227500Y-89079000D01*
X113217500Y-89086000D01*
X113208500Y-89093000D01*
X113197500Y-89099000D01*
X113187500Y-89104000D01*
X113177500Y-89110000D01*
X113166500Y-89114000D01*
X113155500Y-89118000D01*
X113143500Y-89121000D01*
X113132500Y-89124000D01*
X113120500Y-89126000D01*
X113109500Y-89128000D01*
X113097500Y-89129000D01*
X113085500Y-89129000D01*
X112560500Y-89129000D01*
X112560500Y-88679000D01*
X113085500Y-88679000D01*
X113097500Y-88679000D01*
X113109500Y-88680000D01*
G36*
X113109500Y-88680000D02*
G01*
X113120500Y-88682000D01*
X113132500Y-88684000D01*
X113143500Y-88687000D01*
X113155500Y-88690000D01*
X113166500Y-88694000D01*
X113177500Y-88698000D01*
X113187500Y-88704000D01*
X113197500Y-88709000D01*
X113208500Y-88715000D01*
X113217500Y-88722000D01*
X113227500Y-88729000D01*
X113236500Y-88737000D01*
X113244500Y-88745000D01*
X113252500Y-88753000D01*
X113260500Y-88762000D01*
X113267500Y-88772000D01*
X113274500Y-88781000D01*
X113280500Y-88792000D01*
X113285500Y-88802000D01*
X113291500Y-88812000D01*
X113295500Y-88823000D01*
X113299500Y-88834000D01*
X113302500Y-88846000D01*
X113305500Y-88857000D01*
X113307500Y-88869000D01*
X113309500Y-88880000D01*
X113310500Y-88892000D01*
X113310500Y-88904000D01*
X113310500Y-88916000D01*
X113309500Y-88928000D01*
X113307500Y-88939000D01*
X113305500Y-88951000D01*
X113302500Y-88962000D01*
X113299500Y-88974000D01*
X113295500Y-88985000D01*
X113291500Y-88996000D01*
X113285500Y-89006000D01*
X113280500Y-89017000D01*
X113274500Y-89027000D01*
X113267500Y-89036000D01*
X113260500Y-89046000D01*
X113252500Y-89055000D01*
X113244500Y-89063000D01*
X113236500Y-89071000D01*
X113227500Y-89079000D01*
X113217500Y-89086000D01*
X113208500Y-89093000D01*
X113197500Y-89099000D01*
X113187500Y-89104000D01*
X113177500Y-89110000D01*
X113166500Y-89114000D01*
X113155500Y-89118000D01*
X113143500Y-89121000D01*
X113132500Y-89124000D01*
X113120500Y-89126000D01*
X113109500Y-89128000D01*
X113097500Y-89129000D01*
X113085500Y-89129000D01*
X112560500Y-89129000D01*
X112560500Y-88679000D01*
X113085500Y-88679000D01*
X113097500Y-88679000D01*
X113109500Y-88680000D01*
G37*
X113109500Y-89180000D02*
X113120500Y-89182000D01*
X113132500Y-89184000D01*
X113143500Y-89187000D01*
X113155500Y-89190000D01*
X113166500Y-89194000D01*
X113177500Y-89198000D01*
X113187500Y-89204000D01*
X113197500Y-89209000D01*
X113208500Y-89215000D01*
X113217500Y-89222000D01*
X113227500Y-89229000D01*
X113236500Y-89237000D01*
X113244500Y-89245000D01*
X113252500Y-89253000D01*
X113260500Y-89262000D01*
X113267500Y-89272000D01*
X113274500Y-89281000D01*
X113280500Y-89291000D01*
X113285500Y-89302000D01*
X113291500Y-89312000D01*
X113295500Y-89323000D01*
X113299500Y-89334000D01*
X113302500Y-89346000D01*
X113305500Y-89357000D01*
X113307500Y-89369000D01*
X113309500Y-89380000D01*
X113310500Y-89392000D01*
X113310500Y-89404000D01*
X113310500Y-89416000D01*
X113309500Y-89428000D01*
X113307500Y-89439000D01*
X113305500Y-89451000D01*
X113302500Y-89462000D01*
X113299500Y-89474000D01*
X113295500Y-89485000D01*
X113291500Y-89496000D01*
X113285500Y-89506000D01*
X113280500Y-89516000D01*
X113274500Y-89527000D01*
X113267500Y-89536000D01*
X113260500Y-89546000D01*
X113252500Y-89555000D01*
X113244500Y-89563000D01*
X113236500Y-89571000D01*
X113227500Y-89579000D01*
X113217500Y-89586000D01*
X113208500Y-89593000D01*
X113197500Y-89599000D01*
X113187500Y-89604000D01*
X113177500Y-89610000D01*
X113166500Y-89614000D01*
X113155500Y-89618000D01*
X113143500Y-89621000D01*
X113132500Y-89624000D01*
X113120500Y-89626000D01*
X113109500Y-89628000D01*
X113097500Y-89629000D01*
X113085500Y-89629000D01*
X112560500Y-89629000D01*
X112560500Y-89179000D01*
X113085500Y-89179000D01*
X113097500Y-89179000D01*
X113109500Y-89180000D01*
G36*
X113109500Y-89180000D02*
G01*
X113120500Y-89182000D01*
X113132500Y-89184000D01*
X113143500Y-89187000D01*
X113155500Y-89190000D01*
X113166500Y-89194000D01*
X113177500Y-89198000D01*
X113187500Y-89204000D01*
X113197500Y-89209000D01*
X113208500Y-89215000D01*
X113217500Y-89222000D01*
X113227500Y-89229000D01*
X113236500Y-89237000D01*
X113244500Y-89245000D01*
X113252500Y-89253000D01*
X113260500Y-89262000D01*
X113267500Y-89272000D01*
X113274500Y-89281000D01*
X113280500Y-89291000D01*
X113285500Y-89302000D01*
X113291500Y-89312000D01*
X113295500Y-89323000D01*
X113299500Y-89334000D01*
X113302500Y-89346000D01*
X113305500Y-89357000D01*
X113307500Y-89369000D01*
X113309500Y-89380000D01*
X113310500Y-89392000D01*
X113310500Y-89404000D01*
X113310500Y-89416000D01*
X113309500Y-89428000D01*
X113307500Y-89439000D01*
X113305500Y-89451000D01*
X113302500Y-89462000D01*
X113299500Y-89474000D01*
X113295500Y-89485000D01*
X113291500Y-89496000D01*
X113285500Y-89506000D01*
X113280500Y-89516000D01*
X113274500Y-89527000D01*
X113267500Y-89536000D01*
X113260500Y-89546000D01*
X113252500Y-89555000D01*
X113244500Y-89563000D01*
X113236500Y-89571000D01*
X113227500Y-89579000D01*
X113217500Y-89586000D01*
X113208500Y-89593000D01*
X113197500Y-89599000D01*
X113187500Y-89604000D01*
X113177500Y-89610000D01*
X113166500Y-89614000D01*
X113155500Y-89618000D01*
X113143500Y-89621000D01*
X113132500Y-89624000D01*
X113120500Y-89626000D01*
X113109500Y-89628000D01*
X113097500Y-89629000D01*
X113085500Y-89629000D01*
X112560500Y-89629000D01*
X112560500Y-89179000D01*
X113085500Y-89179000D01*
X113097500Y-89179000D01*
X113109500Y-89180000D01*
G37*
X113109500Y-89680000D02*
X113120500Y-89682000D01*
X113132500Y-89684000D01*
X113143500Y-89687000D01*
X113155500Y-89690000D01*
X113166500Y-89694000D01*
X113177500Y-89698000D01*
X113187500Y-89704000D01*
X113197500Y-89709000D01*
X113208500Y-89715000D01*
X113217500Y-89722000D01*
X113227500Y-89729000D01*
X113236500Y-89737000D01*
X113244500Y-89745000D01*
X113252500Y-89753000D01*
X113260500Y-89762000D01*
X113267500Y-89772000D01*
X113274500Y-89781000D01*
X113280500Y-89791000D01*
X113285500Y-89802000D01*
X113291500Y-89812000D01*
X113295500Y-89823000D01*
X113299500Y-89834000D01*
X113302500Y-89846000D01*
X113305500Y-89857000D01*
X113307500Y-89869000D01*
X113309500Y-89880000D01*
X113310500Y-89892000D01*
X113310500Y-89904000D01*
X113310500Y-89916000D01*
X113309500Y-89928000D01*
X113307500Y-89939000D01*
X113305500Y-89951000D01*
X113302500Y-89962000D01*
X113299500Y-89974000D01*
X113295500Y-89985000D01*
X113291500Y-89996000D01*
X113285500Y-90006000D01*
X113280500Y-90017000D01*
X113274500Y-90027000D01*
X113267500Y-90036000D01*
X113260500Y-90046000D01*
X113252500Y-90055000D01*
X113244500Y-90063000D01*
X113236500Y-90071000D01*
X113227500Y-90079000D01*
X113217500Y-90086000D01*
X113208500Y-90093000D01*
X113197500Y-90099000D01*
X113187500Y-90104000D01*
X113177500Y-90110000D01*
X113166500Y-90114000D01*
X113155500Y-90118000D01*
X113143500Y-90121000D01*
X113132500Y-90124000D01*
X113120500Y-90126000D01*
X113109500Y-90128000D01*
X113097500Y-90129000D01*
X113085500Y-90129000D01*
X112560500Y-90129000D01*
X112560500Y-89679000D01*
X113085500Y-89679000D01*
X113097500Y-89679000D01*
X113109500Y-89680000D01*
G36*
X113109500Y-89680000D02*
G01*
X113120500Y-89682000D01*
X113132500Y-89684000D01*
X113143500Y-89687000D01*
X113155500Y-89690000D01*
X113166500Y-89694000D01*
X113177500Y-89698000D01*
X113187500Y-89704000D01*
X113197500Y-89709000D01*
X113208500Y-89715000D01*
X113217500Y-89722000D01*
X113227500Y-89729000D01*
X113236500Y-89737000D01*
X113244500Y-89745000D01*
X113252500Y-89753000D01*
X113260500Y-89762000D01*
X113267500Y-89772000D01*
X113274500Y-89781000D01*
X113280500Y-89791000D01*
X113285500Y-89802000D01*
X113291500Y-89812000D01*
X113295500Y-89823000D01*
X113299500Y-89834000D01*
X113302500Y-89846000D01*
X113305500Y-89857000D01*
X113307500Y-89869000D01*
X113309500Y-89880000D01*
X113310500Y-89892000D01*
X113310500Y-89904000D01*
X113310500Y-89916000D01*
X113309500Y-89928000D01*
X113307500Y-89939000D01*
X113305500Y-89951000D01*
X113302500Y-89962000D01*
X113299500Y-89974000D01*
X113295500Y-89985000D01*
X113291500Y-89996000D01*
X113285500Y-90006000D01*
X113280500Y-90017000D01*
X113274500Y-90027000D01*
X113267500Y-90036000D01*
X113260500Y-90046000D01*
X113252500Y-90055000D01*
X113244500Y-90063000D01*
X113236500Y-90071000D01*
X113227500Y-90079000D01*
X113217500Y-90086000D01*
X113208500Y-90093000D01*
X113197500Y-90099000D01*
X113187500Y-90104000D01*
X113177500Y-90110000D01*
X113166500Y-90114000D01*
X113155500Y-90118000D01*
X113143500Y-90121000D01*
X113132500Y-90124000D01*
X113120500Y-90126000D01*
X113109500Y-90128000D01*
X113097500Y-90129000D01*
X113085500Y-90129000D01*
X112560500Y-90129000D01*
X112560500Y-89679000D01*
X113085500Y-89679000D01*
X113097500Y-89679000D01*
X113109500Y-89680000D01*
G37*
X113109500Y-90180000D02*
X113120500Y-90182000D01*
X113132500Y-90184000D01*
X113143500Y-90187000D01*
X113155500Y-90190000D01*
X113166500Y-90194000D01*
X113177500Y-90198000D01*
X113187500Y-90204000D01*
X113197500Y-90209000D01*
X113208500Y-90215000D01*
X113217500Y-90222000D01*
X113227500Y-90229000D01*
X113236500Y-90237000D01*
X113244500Y-90245000D01*
X113252500Y-90253000D01*
X113260500Y-90262000D01*
X113267500Y-90272000D01*
X113274500Y-90281000D01*
X113280500Y-90291000D01*
X113285500Y-90302000D01*
X113291500Y-90312000D01*
X113295500Y-90323000D01*
X113299500Y-90334000D01*
X113302500Y-90346000D01*
X113305500Y-90357000D01*
X113307500Y-90369000D01*
X113309500Y-90380000D01*
X113310500Y-90392000D01*
X113310500Y-90404000D01*
X113310500Y-90416000D01*
X113309500Y-90428000D01*
X113307500Y-90439000D01*
X113305500Y-90451000D01*
X113302500Y-90462000D01*
X113299500Y-90474000D01*
X113295500Y-90485000D01*
X113291500Y-90496000D01*
X113285500Y-90506000D01*
X113280500Y-90517000D01*
X113274500Y-90527000D01*
X113267500Y-90536000D01*
X113260500Y-90546000D01*
X113252500Y-90555000D01*
X113244500Y-90563000D01*
X113236500Y-90571000D01*
X113227500Y-90579000D01*
X113217500Y-90586000D01*
X113208500Y-90593000D01*
X113197500Y-90599000D01*
X113187500Y-90604000D01*
X113177500Y-90610000D01*
X113166500Y-90614000D01*
X113155500Y-90618000D01*
X113143500Y-90621000D01*
X113132500Y-90624000D01*
X113120500Y-90626000D01*
X113109500Y-90628000D01*
X113097500Y-90629000D01*
X113085500Y-90629000D01*
X112560500Y-90629000D01*
X112560500Y-90179000D01*
X113085500Y-90179000D01*
X113097500Y-90179000D01*
X113109500Y-90180000D01*
G36*
X113109500Y-90180000D02*
G01*
X113120500Y-90182000D01*
X113132500Y-90184000D01*
X113143500Y-90187000D01*
X113155500Y-90190000D01*
X113166500Y-90194000D01*
X113177500Y-90198000D01*
X113187500Y-90204000D01*
X113197500Y-90209000D01*
X113208500Y-90215000D01*
X113217500Y-90222000D01*
X113227500Y-90229000D01*
X113236500Y-90237000D01*
X113244500Y-90245000D01*
X113252500Y-90253000D01*
X113260500Y-90262000D01*
X113267500Y-90272000D01*
X113274500Y-90281000D01*
X113280500Y-90291000D01*
X113285500Y-90302000D01*
X113291500Y-90312000D01*
X113295500Y-90323000D01*
X113299500Y-90334000D01*
X113302500Y-90346000D01*
X113305500Y-90357000D01*
X113307500Y-90369000D01*
X113309500Y-90380000D01*
X113310500Y-90392000D01*
X113310500Y-90404000D01*
X113310500Y-90416000D01*
X113309500Y-90428000D01*
X113307500Y-90439000D01*
X113305500Y-90451000D01*
X113302500Y-90462000D01*
X113299500Y-90474000D01*
X113295500Y-90485000D01*
X113291500Y-90496000D01*
X113285500Y-90506000D01*
X113280500Y-90517000D01*
X113274500Y-90527000D01*
X113267500Y-90536000D01*
X113260500Y-90546000D01*
X113252500Y-90555000D01*
X113244500Y-90563000D01*
X113236500Y-90571000D01*
X113227500Y-90579000D01*
X113217500Y-90586000D01*
X113208500Y-90593000D01*
X113197500Y-90599000D01*
X113187500Y-90604000D01*
X113177500Y-90610000D01*
X113166500Y-90614000D01*
X113155500Y-90618000D01*
X113143500Y-90621000D01*
X113132500Y-90624000D01*
X113120500Y-90626000D01*
X113109500Y-90628000D01*
X113097500Y-90629000D01*
X113085500Y-90629000D01*
X112560500Y-90629000D01*
X112560500Y-90179000D01*
X113085500Y-90179000D01*
X113097500Y-90179000D01*
X113109500Y-90180000D01*
G37*
X114134500Y-90205000D02*
X114145500Y-90207000D01*
X114157500Y-90209000D01*
X114168500Y-90212000D01*
X114180500Y-90215000D01*
X114191500Y-90219000D01*
X114202500Y-90223000D01*
X114212500Y-90229000D01*
X114223500Y-90234000D01*
X114233500Y-90240000D01*
X114242500Y-90247000D01*
X114252500Y-90254000D01*
X114261500Y-90262000D01*
X114269500Y-90270000D01*
X114277500Y-90278000D01*
X114285500Y-90287000D01*
X114292500Y-90297000D01*
X114299500Y-90306000D01*
X114305500Y-90317000D01*
X114310500Y-90327000D01*
X114316500Y-90337000D01*
X114320500Y-90348000D01*
X114324500Y-90359000D01*
X114327500Y-90371000D01*
X114330500Y-90382000D01*
X114332500Y-90394000D01*
X114334500Y-90405000D01*
X114335500Y-90417000D01*
X114335500Y-90429000D01*
X114335500Y-90954000D01*
X113885500Y-90954000D01*
X113885500Y-90429000D01*
X113885500Y-90417000D01*
X113886500Y-90405000D01*
X113888500Y-90394000D01*
X113890500Y-90382000D01*
X113893500Y-90371000D01*
X113896500Y-90359000D01*
X113900500Y-90348000D01*
X113904500Y-90337000D01*
X113910500Y-90327000D01*
X113915500Y-90317000D01*
X113921500Y-90306000D01*
X113928500Y-90297000D01*
X113935500Y-90287000D01*
X113943500Y-90278000D01*
X113951500Y-90270000D01*
X113959500Y-90262000D01*
X113968500Y-90254000D01*
X113978500Y-90247000D01*
X113987500Y-90240000D01*
X113998500Y-90234000D01*
X114008500Y-90229000D01*
X114018500Y-90223000D01*
X114029500Y-90219000D01*
X114040500Y-90215000D01*
X114052500Y-90212000D01*
X114063500Y-90209000D01*
X114075500Y-90207000D01*
X114086500Y-90205000D01*
X114098500Y-90204000D01*
X114110500Y-90204000D01*
X114122500Y-90204000D01*
X114134500Y-90205000D01*
G36*
X114134500Y-90205000D02*
G01*
X114145500Y-90207000D01*
X114157500Y-90209000D01*
X114168500Y-90212000D01*
X114180500Y-90215000D01*
X114191500Y-90219000D01*
X114202500Y-90223000D01*
X114212500Y-90229000D01*
X114223500Y-90234000D01*
X114233500Y-90240000D01*
X114242500Y-90247000D01*
X114252500Y-90254000D01*
X114261500Y-90262000D01*
X114269500Y-90270000D01*
X114277500Y-90278000D01*
X114285500Y-90287000D01*
X114292500Y-90297000D01*
X114299500Y-90306000D01*
X114305500Y-90317000D01*
X114310500Y-90327000D01*
X114316500Y-90337000D01*
X114320500Y-90348000D01*
X114324500Y-90359000D01*
X114327500Y-90371000D01*
X114330500Y-90382000D01*
X114332500Y-90394000D01*
X114334500Y-90405000D01*
X114335500Y-90417000D01*
X114335500Y-90429000D01*
X114335500Y-90954000D01*
X113885500Y-90954000D01*
X113885500Y-90429000D01*
X113885500Y-90417000D01*
X113886500Y-90405000D01*
X113888500Y-90394000D01*
X113890500Y-90382000D01*
X113893500Y-90371000D01*
X113896500Y-90359000D01*
X113900500Y-90348000D01*
X113904500Y-90337000D01*
X113910500Y-90327000D01*
X113915500Y-90317000D01*
X113921500Y-90306000D01*
X113928500Y-90297000D01*
X113935500Y-90287000D01*
X113943500Y-90278000D01*
X113951500Y-90270000D01*
X113959500Y-90262000D01*
X113968500Y-90254000D01*
X113978500Y-90247000D01*
X113987500Y-90240000D01*
X113998500Y-90234000D01*
X114008500Y-90229000D01*
X114018500Y-90223000D01*
X114029500Y-90219000D01*
X114040500Y-90215000D01*
X114052500Y-90212000D01*
X114063500Y-90209000D01*
X114075500Y-90207000D01*
X114086500Y-90205000D01*
X114098500Y-90204000D01*
X114110500Y-90204000D01*
X114122500Y-90204000D01*
X114134500Y-90205000D01*
G37*
X114335500Y-87879000D02*
X114335500Y-87891000D01*
X114334500Y-87903000D01*
X114332500Y-87914000D01*
X114330500Y-87926000D01*
X114327500Y-87937000D01*
X114324500Y-87949000D01*
X114320500Y-87960000D01*
X114316500Y-87971000D01*
X114310500Y-87981000D01*
X114305500Y-87991000D01*
X114299500Y-88002000D01*
X114292500Y-88011000D01*
X114285500Y-88021000D01*
X114277500Y-88030000D01*
X114269500Y-88038000D01*
X114261500Y-88046000D01*
X114252500Y-88054000D01*
X114242500Y-88061000D01*
X114233500Y-88068000D01*
X114223500Y-88074000D01*
X114212500Y-88079000D01*
X114202500Y-88085000D01*
X114191500Y-88089000D01*
X114180500Y-88093000D01*
X114168500Y-88096000D01*
X114157500Y-88099000D01*
X114145500Y-88101000D01*
X114134500Y-88103000D01*
X114122500Y-88104000D01*
X114110500Y-88104000D01*
X114098500Y-88104000D01*
X114086500Y-88103000D01*
X114075500Y-88101000D01*
X114063500Y-88099000D01*
X114052500Y-88096000D01*
X114040500Y-88093000D01*
X114029500Y-88089000D01*
X114018500Y-88085000D01*
X114008500Y-88079000D01*
X113998500Y-88074000D01*
X113987500Y-88068000D01*
X113978500Y-88061000D01*
X113968500Y-88054000D01*
X113959500Y-88046000D01*
X113951500Y-88038000D01*
X113943500Y-88030000D01*
X113935500Y-88021000D01*
X113928500Y-88011000D01*
X113921500Y-88002000D01*
X113915500Y-87991000D01*
X113910500Y-87981000D01*
X113904500Y-87971000D01*
X113900500Y-87960000D01*
X113896500Y-87949000D01*
X113893500Y-87937000D01*
X113890500Y-87926000D01*
X113888500Y-87914000D01*
X113886500Y-87903000D01*
X113885500Y-87891000D01*
X113885500Y-87879000D01*
X113885500Y-87354000D01*
X114335500Y-87354000D01*
X114335500Y-87879000D01*
G36*
X114335500Y-87879000D02*
G01*
X114335500Y-87891000D01*
X114334500Y-87903000D01*
X114332500Y-87914000D01*
X114330500Y-87926000D01*
X114327500Y-87937000D01*
X114324500Y-87949000D01*
X114320500Y-87960000D01*
X114316500Y-87971000D01*
X114310500Y-87981000D01*
X114305500Y-87991000D01*
X114299500Y-88002000D01*
X114292500Y-88011000D01*
X114285500Y-88021000D01*
X114277500Y-88030000D01*
X114269500Y-88038000D01*
X114261500Y-88046000D01*
X114252500Y-88054000D01*
X114242500Y-88061000D01*
X114233500Y-88068000D01*
X114223500Y-88074000D01*
X114212500Y-88079000D01*
X114202500Y-88085000D01*
X114191500Y-88089000D01*
X114180500Y-88093000D01*
X114168500Y-88096000D01*
X114157500Y-88099000D01*
X114145500Y-88101000D01*
X114134500Y-88103000D01*
X114122500Y-88104000D01*
X114110500Y-88104000D01*
X114098500Y-88104000D01*
X114086500Y-88103000D01*
X114075500Y-88101000D01*
X114063500Y-88099000D01*
X114052500Y-88096000D01*
X114040500Y-88093000D01*
X114029500Y-88089000D01*
X114018500Y-88085000D01*
X114008500Y-88079000D01*
X113998500Y-88074000D01*
X113987500Y-88068000D01*
X113978500Y-88061000D01*
X113968500Y-88054000D01*
X113959500Y-88046000D01*
X113951500Y-88038000D01*
X113943500Y-88030000D01*
X113935500Y-88021000D01*
X113928500Y-88011000D01*
X113921500Y-88002000D01*
X113915500Y-87991000D01*
X113910500Y-87981000D01*
X113904500Y-87971000D01*
X113900500Y-87960000D01*
X113896500Y-87949000D01*
X113893500Y-87937000D01*
X113890500Y-87926000D01*
X113888500Y-87914000D01*
X113886500Y-87903000D01*
X113885500Y-87891000D01*
X113885500Y-87879000D01*
X113885500Y-87354000D01*
X114335500Y-87354000D01*
X114335500Y-87879000D01*
G37*
X114634500Y-90205000D02*
X114645500Y-90207000D01*
X114657500Y-90209000D01*
X114668500Y-90212000D01*
X114680500Y-90215000D01*
X114691500Y-90219000D01*
X114702500Y-90223000D01*
X114712500Y-90229000D01*
X114723500Y-90234000D01*
X114733500Y-90240000D01*
X114742500Y-90247000D01*
X114752500Y-90254000D01*
X114761500Y-90262000D01*
X114769500Y-90270000D01*
X114777500Y-90278000D01*
X114785500Y-90287000D01*
X114792500Y-90297000D01*
X114799500Y-90306000D01*
X114805500Y-90317000D01*
X114810500Y-90327000D01*
X114816500Y-90337000D01*
X114820500Y-90348000D01*
X114824500Y-90359000D01*
X114827500Y-90371000D01*
X114830500Y-90382000D01*
X114832500Y-90394000D01*
X114834500Y-90405000D01*
X114835500Y-90417000D01*
X114835500Y-90429000D01*
X114835500Y-90954000D01*
X114385500Y-90954000D01*
X114385500Y-90429000D01*
X114385500Y-90417000D01*
X114386500Y-90405000D01*
X114388500Y-90394000D01*
X114390500Y-90382000D01*
X114393500Y-90371000D01*
X114396500Y-90359000D01*
X114400500Y-90348000D01*
X114404500Y-90337000D01*
X114410500Y-90327000D01*
X114415500Y-90317000D01*
X114421500Y-90306000D01*
X114428500Y-90297000D01*
X114435500Y-90287000D01*
X114443500Y-90278000D01*
X114451500Y-90270000D01*
X114459500Y-90262000D01*
X114468500Y-90254000D01*
X114478500Y-90247000D01*
X114487500Y-90240000D01*
X114498500Y-90234000D01*
X114508500Y-90229000D01*
X114518500Y-90223000D01*
X114529500Y-90219000D01*
X114540500Y-90215000D01*
X114552500Y-90212000D01*
X114563500Y-90209000D01*
X114575500Y-90207000D01*
X114586500Y-90205000D01*
X114598500Y-90204000D01*
X114610500Y-90204000D01*
X114622500Y-90204000D01*
X114634500Y-90205000D01*
G36*
X114634500Y-90205000D02*
G01*
X114645500Y-90207000D01*
X114657500Y-90209000D01*
X114668500Y-90212000D01*
X114680500Y-90215000D01*
X114691500Y-90219000D01*
X114702500Y-90223000D01*
X114712500Y-90229000D01*
X114723500Y-90234000D01*
X114733500Y-90240000D01*
X114742500Y-90247000D01*
X114752500Y-90254000D01*
X114761500Y-90262000D01*
X114769500Y-90270000D01*
X114777500Y-90278000D01*
X114785500Y-90287000D01*
X114792500Y-90297000D01*
X114799500Y-90306000D01*
X114805500Y-90317000D01*
X114810500Y-90327000D01*
X114816500Y-90337000D01*
X114820500Y-90348000D01*
X114824500Y-90359000D01*
X114827500Y-90371000D01*
X114830500Y-90382000D01*
X114832500Y-90394000D01*
X114834500Y-90405000D01*
X114835500Y-90417000D01*
X114835500Y-90429000D01*
X114835500Y-90954000D01*
X114385500Y-90954000D01*
X114385500Y-90429000D01*
X114385500Y-90417000D01*
X114386500Y-90405000D01*
X114388500Y-90394000D01*
X114390500Y-90382000D01*
X114393500Y-90371000D01*
X114396500Y-90359000D01*
X114400500Y-90348000D01*
X114404500Y-90337000D01*
X114410500Y-90327000D01*
X114415500Y-90317000D01*
X114421500Y-90306000D01*
X114428500Y-90297000D01*
X114435500Y-90287000D01*
X114443500Y-90278000D01*
X114451500Y-90270000D01*
X114459500Y-90262000D01*
X114468500Y-90254000D01*
X114478500Y-90247000D01*
X114487500Y-90240000D01*
X114498500Y-90234000D01*
X114508500Y-90229000D01*
X114518500Y-90223000D01*
X114529500Y-90219000D01*
X114540500Y-90215000D01*
X114552500Y-90212000D01*
X114563500Y-90209000D01*
X114575500Y-90207000D01*
X114586500Y-90205000D01*
X114598500Y-90204000D01*
X114610500Y-90204000D01*
X114622500Y-90204000D01*
X114634500Y-90205000D01*
G37*
X114835500Y-87879000D02*
X114835500Y-87891000D01*
X114834500Y-87903000D01*
X114832500Y-87914000D01*
X114830500Y-87926000D01*
X114827500Y-87937000D01*
X114824500Y-87949000D01*
X114820500Y-87960000D01*
X114816500Y-87971000D01*
X114810500Y-87981000D01*
X114805500Y-87991000D01*
X114799500Y-88002000D01*
X114792500Y-88011000D01*
X114785500Y-88021000D01*
X114777500Y-88030000D01*
X114769500Y-88038000D01*
X114761500Y-88046000D01*
X114752500Y-88054000D01*
X114742500Y-88061000D01*
X114733500Y-88068000D01*
X114723500Y-88074000D01*
X114712500Y-88079000D01*
X114702500Y-88085000D01*
X114691500Y-88089000D01*
X114680500Y-88093000D01*
X114668500Y-88096000D01*
X114657500Y-88099000D01*
X114645500Y-88101000D01*
X114634500Y-88103000D01*
X114622500Y-88104000D01*
X114610500Y-88104000D01*
X114598500Y-88104000D01*
X114586500Y-88103000D01*
X114575500Y-88101000D01*
X114563500Y-88099000D01*
X114552500Y-88096000D01*
X114540500Y-88093000D01*
X114529500Y-88089000D01*
X114518500Y-88085000D01*
X114508500Y-88079000D01*
X114498500Y-88074000D01*
X114487500Y-88068000D01*
X114478500Y-88061000D01*
X114468500Y-88054000D01*
X114459500Y-88046000D01*
X114451500Y-88038000D01*
X114443500Y-88030000D01*
X114435500Y-88021000D01*
X114428500Y-88011000D01*
X114421500Y-88002000D01*
X114415500Y-87991000D01*
X114410500Y-87981000D01*
X114404500Y-87971000D01*
X114400500Y-87960000D01*
X114396500Y-87949000D01*
X114393500Y-87937000D01*
X114390500Y-87926000D01*
X114388500Y-87914000D01*
X114386500Y-87903000D01*
X114385500Y-87891000D01*
X114385500Y-87879000D01*
X114385500Y-87354000D01*
X114835500Y-87354000D01*
X114835500Y-87879000D01*
G36*
X114835500Y-87879000D02*
G01*
X114835500Y-87891000D01*
X114834500Y-87903000D01*
X114832500Y-87914000D01*
X114830500Y-87926000D01*
X114827500Y-87937000D01*
X114824500Y-87949000D01*
X114820500Y-87960000D01*
X114816500Y-87971000D01*
X114810500Y-87981000D01*
X114805500Y-87991000D01*
X114799500Y-88002000D01*
X114792500Y-88011000D01*
X114785500Y-88021000D01*
X114777500Y-88030000D01*
X114769500Y-88038000D01*
X114761500Y-88046000D01*
X114752500Y-88054000D01*
X114742500Y-88061000D01*
X114733500Y-88068000D01*
X114723500Y-88074000D01*
X114712500Y-88079000D01*
X114702500Y-88085000D01*
X114691500Y-88089000D01*
X114680500Y-88093000D01*
X114668500Y-88096000D01*
X114657500Y-88099000D01*
X114645500Y-88101000D01*
X114634500Y-88103000D01*
X114622500Y-88104000D01*
X114610500Y-88104000D01*
X114598500Y-88104000D01*
X114586500Y-88103000D01*
X114575500Y-88101000D01*
X114563500Y-88099000D01*
X114552500Y-88096000D01*
X114540500Y-88093000D01*
X114529500Y-88089000D01*
X114518500Y-88085000D01*
X114508500Y-88079000D01*
X114498500Y-88074000D01*
X114487500Y-88068000D01*
X114478500Y-88061000D01*
X114468500Y-88054000D01*
X114459500Y-88046000D01*
X114451500Y-88038000D01*
X114443500Y-88030000D01*
X114435500Y-88021000D01*
X114428500Y-88011000D01*
X114421500Y-88002000D01*
X114415500Y-87991000D01*
X114410500Y-87981000D01*
X114404500Y-87971000D01*
X114400500Y-87960000D01*
X114396500Y-87949000D01*
X114393500Y-87937000D01*
X114390500Y-87926000D01*
X114388500Y-87914000D01*
X114386500Y-87903000D01*
X114385500Y-87891000D01*
X114385500Y-87879000D01*
X114385500Y-87354000D01*
X114835500Y-87354000D01*
X114835500Y-87879000D01*
G37*
X116160500Y-88129000D02*
X115635500Y-88129000D01*
X115623500Y-88129000D01*
X115611500Y-88128000D01*
X115600500Y-88126000D01*
X115588500Y-88124000D01*
X115577500Y-88121000D01*
X115565500Y-88118000D01*
X115554500Y-88114000D01*
X115543500Y-88110000D01*
X115533500Y-88104000D01*
X115523500Y-88099000D01*
X115512500Y-88093000D01*
X115503500Y-88086000D01*
X115493500Y-88079000D01*
X115484500Y-88071000D01*
X115476500Y-88063000D01*
X115468500Y-88055000D01*
X115460500Y-88046000D01*
X115453500Y-88036000D01*
X115446500Y-88027000D01*
X115440500Y-88017000D01*
X115435500Y-88006000D01*
X115429500Y-87996000D01*
X115425500Y-87985000D01*
X115421500Y-87974000D01*
X115418500Y-87962000D01*
X115415500Y-87951000D01*
X115413500Y-87939000D01*
X115411500Y-87928000D01*
X115410500Y-87916000D01*
X115410500Y-87904000D01*
X115410500Y-87892000D01*
X115411500Y-87880000D01*
X115413500Y-87869000D01*
X115415500Y-87857000D01*
X115418500Y-87846000D01*
X115421500Y-87834000D01*
X115425500Y-87823000D01*
X115429500Y-87812000D01*
X115435500Y-87802000D01*
X115440500Y-87791000D01*
X115446500Y-87781000D01*
X115453500Y-87772000D01*
X115460500Y-87762000D01*
X115468500Y-87753000D01*
X115476500Y-87745000D01*
X115484500Y-87737000D01*
X115493500Y-87729000D01*
X115503500Y-87722000D01*
X115512500Y-87715000D01*
X115523500Y-87709000D01*
X115533500Y-87704000D01*
X115543500Y-87698000D01*
X115554500Y-87694000D01*
X115565500Y-87690000D01*
X115577500Y-87687000D01*
X115588500Y-87684000D01*
X115600500Y-87682000D01*
X115611500Y-87680000D01*
X115623500Y-87679000D01*
X115635500Y-87679000D01*
X116160500Y-87679000D01*
X116160500Y-88129000D01*
G36*
X116160500Y-88129000D02*
G01*
X115635500Y-88129000D01*
X115623500Y-88129000D01*
X115611500Y-88128000D01*
X115600500Y-88126000D01*
X115588500Y-88124000D01*
X115577500Y-88121000D01*
X115565500Y-88118000D01*
X115554500Y-88114000D01*
X115543500Y-88110000D01*
X115533500Y-88104000D01*
X115523500Y-88099000D01*
X115512500Y-88093000D01*
X115503500Y-88086000D01*
X115493500Y-88079000D01*
X115484500Y-88071000D01*
X115476500Y-88063000D01*
X115468500Y-88055000D01*
X115460500Y-88046000D01*
X115453500Y-88036000D01*
X115446500Y-88027000D01*
X115440500Y-88017000D01*
X115435500Y-88006000D01*
X115429500Y-87996000D01*
X115425500Y-87985000D01*
X115421500Y-87974000D01*
X115418500Y-87962000D01*
X115415500Y-87951000D01*
X115413500Y-87939000D01*
X115411500Y-87928000D01*
X115410500Y-87916000D01*
X115410500Y-87904000D01*
X115410500Y-87892000D01*
X115411500Y-87880000D01*
X115413500Y-87869000D01*
X115415500Y-87857000D01*
X115418500Y-87846000D01*
X115421500Y-87834000D01*
X115425500Y-87823000D01*
X115429500Y-87812000D01*
X115435500Y-87802000D01*
X115440500Y-87791000D01*
X115446500Y-87781000D01*
X115453500Y-87772000D01*
X115460500Y-87762000D01*
X115468500Y-87753000D01*
X115476500Y-87745000D01*
X115484500Y-87737000D01*
X115493500Y-87729000D01*
X115503500Y-87722000D01*
X115512500Y-87715000D01*
X115523500Y-87709000D01*
X115533500Y-87704000D01*
X115543500Y-87698000D01*
X115554500Y-87694000D01*
X115565500Y-87690000D01*
X115577500Y-87687000D01*
X115588500Y-87684000D01*
X115600500Y-87682000D01*
X115611500Y-87680000D01*
X115623500Y-87679000D01*
X115635500Y-87679000D01*
X116160500Y-87679000D01*
X116160500Y-88129000D01*
G37*
X116160500Y-88629000D02*
X115635500Y-88629000D01*
X115623500Y-88629000D01*
X115611500Y-88628000D01*
X115600500Y-88626000D01*
X115588500Y-88624000D01*
X115577500Y-88621000D01*
X115565500Y-88618000D01*
X115554500Y-88614000D01*
X115543500Y-88610000D01*
X115533500Y-88604000D01*
X115523500Y-88599000D01*
X115512500Y-88593000D01*
X115503500Y-88586000D01*
X115493500Y-88579000D01*
X115484500Y-88571000D01*
X115476500Y-88563000D01*
X115468500Y-88555000D01*
X115460500Y-88546000D01*
X115453500Y-88536000D01*
X115446500Y-88527000D01*
X115440500Y-88517000D01*
X115435500Y-88506000D01*
X115429500Y-88496000D01*
X115425500Y-88485000D01*
X115421500Y-88474000D01*
X115418500Y-88462000D01*
X115415500Y-88451000D01*
X115413500Y-88439000D01*
X115411500Y-88428000D01*
X115410500Y-88416000D01*
X115410500Y-88404000D01*
X115410500Y-88392000D01*
X115411500Y-88380000D01*
X115413500Y-88369000D01*
X115415500Y-88357000D01*
X115418500Y-88346000D01*
X115421500Y-88334000D01*
X115425500Y-88323000D01*
X115429500Y-88312000D01*
X115435500Y-88302000D01*
X115440500Y-88291000D01*
X115446500Y-88281000D01*
X115453500Y-88272000D01*
X115460500Y-88262000D01*
X115468500Y-88253000D01*
X115476500Y-88245000D01*
X115484500Y-88237000D01*
X115493500Y-88229000D01*
X115503500Y-88222000D01*
X115512500Y-88215000D01*
X115523500Y-88209000D01*
X115533500Y-88204000D01*
X115543500Y-88198000D01*
X115554500Y-88194000D01*
X115565500Y-88190000D01*
X115577500Y-88187000D01*
X115588500Y-88184000D01*
X115600500Y-88182000D01*
X115611500Y-88180000D01*
X115623500Y-88179000D01*
X115635500Y-88179000D01*
X116160500Y-88179000D01*
X116160500Y-88629000D01*
G36*
X116160500Y-88629000D02*
G01*
X115635500Y-88629000D01*
X115623500Y-88629000D01*
X115611500Y-88628000D01*
X115600500Y-88626000D01*
X115588500Y-88624000D01*
X115577500Y-88621000D01*
X115565500Y-88618000D01*
X115554500Y-88614000D01*
X115543500Y-88610000D01*
X115533500Y-88604000D01*
X115523500Y-88599000D01*
X115512500Y-88593000D01*
X115503500Y-88586000D01*
X115493500Y-88579000D01*
X115484500Y-88571000D01*
X115476500Y-88563000D01*
X115468500Y-88555000D01*
X115460500Y-88546000D01*
X115453500Y-88536000D01*
X115446500Y-88527000D01*
X115440500Y-88517000D01*
X115435500Y-88506000D01*
X115429500Y-88496000D01*
X115425500Y-88485000D01*
X115421500Y-88474000D01*
X115418500Y-88462000D01*
X115415500Y-88451000D01*
X115413500Y-88439000D01*
X115411500Y-88428000D01*
X115410500Y-88416000D01*
X115410500Y-88404000D01*
X115410500Y-88392000D01*
X115411500Y-88380000D01*
X115413500Y-88369000D01*
X115415500Y-88357000D01*
X115418500Y-88346000D01*
X115421500Y-88334000D01*
X115425500Y-88323000D01*
X115429500Y-88312000D01*
X115435500Y-88302000D01*
X115440500Y-88291000D01*
X115446500Y-88281000D01*
X115453500Y-88272000D01*
X115460500Y-88262000D01*
X115468500Y-88253000D01*
X115476500Y-88245000D01*
X115484500Y-88237000D01*
X115493500Y-88229000D01*
X115503500Y-88222000D01*
X115512500Y-88215000D01*
X115523500Y-88209000D01*
X115533500Y-88204000D01*
X115543500Y-88198000D01*
X115554500Y-88194000D01*
X115565500Y-88190000D01*
X115577500Y-88187000D01*
X115588500Y-88184000D01*
X115600500Y-88182000D01*
X115611500Y-88180000D01*
X115623500Y-88179000D01*
X115635500Y-88179000D01*
X116160500Y-88179000D01*
X116160500Y-88629000D01*
G37*
X116160500Y-89129000D02*
X115635500Y-89129000D01*
X115623500Y-89129000D01*
X115611500Y-89128000D01*
X115600500Y-89126000D01*
X115588500Y-89124000D01*
X115577500Y-89121000D01*
X115565500Y-89118000D01*
X115554500Y-89114000D01*
X115543500Y-89110000D01*
X115533500Y-89104000D01*
X115523500Y-89099000D01*
X115512500Y-89093000D01*
X115503500Y-89086000D01*
X115493500Y-89079000D01*
X115484500Y-89071000D01*
X115476500Y-89063000D01*
X115468500Y-89055000D01*
X115460500Y-89046000D01*
X115453500Y-89036000D01*
X115446500Y-89027000D01*
X115440500Y-89017000D01*
X115435500Y-89006000D01*
X115429500Y-88996000D01*
X115425500Y-88985000D01*
X115421500Y-88974000D01*
X115418500Y-88962000D01*
X115415500Y-88951000D01*
X115413500Y-88939000D01*
X115411500Y-88928000D01*
X115410500Y-88916000D01*
X115410500Y-88904000D01*
X115410500Y-88892000D01*
X115411500Y-88880000D01*
X115413500Y-88869000D01*
X115415500Y-88857000D01*
X115418500Y-88846000D01*
X115421500Y-88834000D01*
X115425500Y-88823000D01*
X115429500Y-88812000D01*
X115435500Y-88802000D01*
X115440500Y-88792000D01*
X115446500Y-88781000D01*
X115453500Y-88772000D01*
X115460500Y-88762000D01*
X115468500Y-88753000D01*
X115476500Y-88745000D01*
X115484500Y-88737000D01*
X115493500Y-88729000D01*
X115503500Y-88722000D01*
X115512500Y-88715000D01*
X115523500Y-88709000D01*
X115533500Y-88704000D01*
X115543500Y-88698000D01*
X115554500Y-88694000D01*
X115565500Y-88690000D01*
X115577500Y-88687000D01*
X115588500Y-88684000D01*
X115600500Y-88682000D01*
X115611500Y-88680000D01*
X115623500Y-88679000D01*
X115635500Y-88679000D01*
X116160500Y-88679000D01*
X116160500Y-89129000D01*
G36*
X116160500Y-89129000D02*
G01*
X115635500Y-89129000D01*
X115623500Y-89129000D01*
X115611500Y-89128000D01*
X115600500Y-89126000D01*
X115588500Y-89124000D01*
X115577500Y-89121000D01*
X115565500Y-89118000D01*
X115554500Y-89114000D01*
X115543500Y-89110000D01*
X115533500Y-89104000D01*
X115523500Y-89099000D01*
X115512500Y-89093000D01*
X115503500Y-89086000D01*
X115493500Y-89079000D01*
X115484500Y-89071000D01*
X115476500Y-89063000D01*
X115468500Y-89055000D01*
X115460500Y-89046000D01*
X115453500Y-89036000D01*
X115446500Y-89027000D01*
X115440500Y-89017000D01*
X115435500Y-89006000D01*
X115429500Y-88996000D01*
X115425500Y-88985000D01*
X115421500Y-88974000D01*
X115418500Y-88962000D01*
X115415500Y-88951000D01*
X115413500Y-88939000D01*
X115411500Y-88928000D01*
X115410500Y-88916000D01*
X115410500Y-88904000D01*
X115410500Y-88892000D01*
X115411500Y-88880000D01*
X115413500Y-88869000D01*
X115415500Y-88857000D01*
X115418500Y-88846000D01*
X115421500Y-88834000D01*
X115425500Y-88823000D01*
X115429500Y-88812000D01*
X115435500Y-88802000D01*
X115440500Y-88792000D01*
X115446500Y-88781000D01*
X115453500Y-88772000D01*
X115460500Y-88762000D01*
X115468500Y-88753000D01*
X115476500Y-88745000D01*
X115484500Y-88737000D01*
X115493500Y-88729000D01*
X115503500Y-88722000D01*
X115512500Y-88715000D01*
X115523500Y-88709000D01*
X115533500Y-88704000D01*
X115543500Y-88698000D01*
X115554500Y-88694000D01*
X115565500Y-88690000D01*
X115577500Y-88687000D01*
X115588500Y-88684000D01*
X115600500Y-88682000D01*
X115611500Y-88680000D01*
X115623500Y-88679000D01*
X115635500Y-88679000D01*
X116160500Y-88679000D01*
X116160500Y-89129000D01*
G37*
X116160500Y-89629000D02*
X115635500Y-89629000D01*
X115623500Y-89629000D01*
X115611500Y-89628000D01*
X115600500Y-89626000D01*
X115588500Y-89624000D01*
X115577500Y-89621000D01*
X115565500Y-89618000D01*
X115554500Y-89614000D01*
X115543500Y-89610000D01*
X115533500Y-89604000D01*
X115523500Y-89599000D01*
X115512500Y-89593000D01*
X115503500Y-89586000D01*
X115493500Y-89579000D01*
X115484500Y-89571000D01*
X115476500Y-89563000D01*
X115468500Y-89555000D01*
X115460500Y-89546000D01*
X115453500Y-89536000D01*
X115446500Y-89527000D01*
X115440500Y-89517000D01*
X115435500Y-89506000D01*
X115429500Y-89496000D01*
X115425500Y-89485000D01*
X115421500Y-89474000D01*
X115418500Y-89462000D01*
X115415500Y-89451000D01*
X115413500Y-89439000D01*
X115411500Y-89428000D01*
X115410500Y-89416000D01*
X115410500Y-89404000D01*
X115410500Y-89392000D01*
X115411500Y-89380000D01*
X115413500Y-89369000D01*
X115415500Y-89357000D01*
X115418500Y-89346000D01*
X115421500Y-89334000D01*
X115425500Y-89323000D01*
X115429500Y-89312000D01*
X115435500Y-89302000D01*
X115440500Y-89291000D01*
X115446500Y-89281000D01*
X115453500Y-89272000D01*
X115460500Y-89262000D01*
X115468500Y-89253000D01*
X115476500Y-89245000D01*
X115484500Y-89237000D01*
X115493500Y-89229000D01*
X115503500Y-89222000D01*
X115512500Y-89215000D01*
X115523500Y-89209000D01*
X115533500Y-89204000D01*
X115543500Y-89198000D01*
X115554500Y-89194000D01*
X115565500Y-89190000D01*
X115577500Y-89187000D01*
X115588500Y-89184000D01*
X115600500Y-89182000D01*
X115611500Y-89180000D01*
X115623500Y-89179000D01*
X115635500Y-89179000D01*
X116160500Y-89179000D01*
X116160500Y-89629000D01*
G36*
X116160500Y-89629000D02*
G01*
X115635500Y-89629000D01*
X115623500Y-89629000D01*
X115611500Y-89628000D01*
X115600500Y-89626000D01*
X115588500Y-89624000D01*
X115577500Y-89621000D01*
X115565500Y-89618000D01*
X115554500Y-89614000D01*
X115543500Y-89610000D01*
X115533500Y-89604000D01*
X115523500Y-89599000D01*
X115512500Y-89593000D01*
X115503500Y-89586000D01*
X115493500Y-89579000D01*
X115484500Y-89571000D01*
X115476500Y-89563000D01*
X115468500Y-89555000D01*
X115460500Y-89546000D01*
X115453500Y-89536000D01*
X115446500Y-89527000D01*
X115440500Y-89517000D01*
X115435500Y-89506000D01*
X115429500Y-89496000D01*
X115425500Y-89485000D01*
X115421500Y-89474000D01*
X115418500Y-89462000D01*
X115415500Y-89451000D01*
X115413500Y-89439000D01*
X115411500Y-89428000D01*
X115410500Y-89416000D01*
X115410500Y-89404000D01*
X115410500Y-89392000D01*
X115411500Y-89380000D01*
X115413500Y-89369000D01*
X115415500Y-89357000D01*
X115418500Y-89346000D01*
X115421500Y-89334000D01*
X115425500Y-89323000D01*
X115429500Y-89312000D01*
X115435500Y-89302000D01*
X115440500Y-89291000D01*
X115446500Y-89281000D01*
X115453500Y-89272000D01*
X115460500Y-89262000D01*
X115468500Y-89253000D01*
X115476500Y-89245000D01*
X115484500Y-89237000D01*
X115493500Y-89229000D01*
X115503500Y-89222000D01*
X115512500Y-89215000D01*
X115523500Y-89209000D01*
X115533500Y-89204000D01*
X115543500Y-89198000D01*
X115554500Y-89194000D01*
X115565500Y-89190000D01*
X115577500Y-89187000D01*
X115588500Y-89184000D01*
X115600500Y-89182000D01*
X115611500Y-89180000D01*
X115623500Y-89179000D01*
X115635500Y-89179000D01*
X116160500Y-89179000D01*
X116160500Y-89629000D01*
G37*
X116160500Y-90129000D02*
X115635500Y-90129000D01*
X115623500Y-90129000D01*
X115611500Y-90128000D01*
X115600500Y-90126000D01*
X115588500Y-90124000D01*
X115577500Y-90121000D01*
X115565500Y-90118000D01*
X115554500Y-90114000D01*
X115543500Y-90110000D01*
X115533500Y-90104000D01*
X115523500Y-90099000D01*
X115512500Y-90093000D01*
X115503500Y-90086000D01*
X115493500Y-90079000D01*
X115484500Y-90071000D01*
X115476500Y-90063000D01*
X115468500Y-90055000D01*
X115460500Y-90046000D01*
X115453500Y-90036000D01*
X115446500Y-90027000D01*
X115440500Y-90017000D01*
X115435500Y-90006000D01*
X115429500Y-89996000D01*
X115425500Y-89985000D01*
X115421500Y-89974000D01*
X115418500Y-89962000D01*
X115415500Y-89951000D01*
X115413500Y-89939000D01*
X115411500Y-89928000D01*
X115410500Y-89916000D01*
X115410500Y-89904000D01*
X115410500Y-89892000D01*
X115411500Y-89880000D01*
X115413500Y-89869000D01*
X115415500Y-89857000D01*
X115418500Y-89846000D01*
X115421500Y-89834000D01*
X115425500Y-89823000D01*
X115429500Y-89812000D01*
X115435500Y-89802000D01*
X115440500Y-89791000D01*
X115446500Y-89781000D01*
X115453500Y-89772000D01*
X115460500Y-89762000D01*
X115468500Y-89753000D01*
X115476500Y-89745000D01*
X115484500Y-89737000D01*
X115493500Y-89729000D01*
X115503500Y-89722000D01*
X115512500Y-89715000D01*
X115523500Y-89709000D01*
X115533500Y-89704000D01*
X115543500Y-89698000D01*
X115554500Y-89694000D01*
X115565500Y-89690000D01*
X115577500Y-89687000D01*
X115588500Y-89684000D01*
X115600500Y-89682000D01*
X115611500Y-89680000D01*
X115623500Y-89679000D01*
X115635500Y-89679000D01*
X116160500Y-89679000D01*
X116160500Y-90129000D01*
G36*
X116160500Y-90129000D02*
G01*
X115635500Y-90129000D01*
X115623500Y-90129000D01*
X115611500Y-90128000D01*
X115600500Y-90126000D01*
X115588500Y-90124000D01*
X115577500Y-90121000D01*
X115565500Y-90118000D01*
X115554500Y-90114000D01*
X115543500Y-90110000D01*
X115533500Y-90104000D01*
X115523500Y-90099000D01*
X115512500Y-90093000D01*
X115503500Y-90086000D01*
X115493500Y-90079000D01*
X115484500Y-90071000D01*
X115476500Y-90063000D01*
X115468500Y-90055000D01*
X115460500Y-90046000D01*
X115453500Y-90036000D01*
X115446500Y-90027000D01*
X115440500Y-90017000D01*
X115435500Y-90006000D01*
X115429500Y-89996000D01*
X115425500Y-89985000D01*
X115421500Y-89974000D01*
X115418500Y-89962000D01*
X115415500Y-89951000D01*
X115413500Y-89939000D01*
X115411500Y-89928000D01*
X115410500Y-89916000D01*
X115410500Y-89904000D01*
X115410500Y-89892000D01*
X115411500Y-89880000D01*
X115413500Y-89869000D01*
X115415500Y-89857000D01*
X115418500Y-89846000D01*
X115421500Y-89834000D01*
X115425500Y-89823000D01*
X115429500Y-89812000D01*
X115435500Y-89802000D01*
X115440500Y-89791000D01*
X115446500Y-89781000D01*
X115453500Y-89772000D01*
X115460500Y-89762000D01*
X115468500Y-89753000D01*
X115476500Y-89745000D01*
X115484500Y-89737000D01*
X115493500Y-89729000D01*
X115503500Y-89722000D01*
X115512500Y-89715000D01*
X115523500Y-89709000D01*
X115533500Y-89704000D01*
X115543500Y-89698000D01*
X115554500Y-89694000D01*
X115565500Y-89690000D01*
X115577500Y-89687000D01*
X115588500Y-89684000D01*
X115600500Y-89682000D01*
X115611500Y-89680000D01*
X115623500Y-89679000D01*
X115635500Y-89679000D01*
X116160500Y-89679000D01*
X116160500Y-90129000D01*
G37*
X116160500Y-90629000D02*
X115635500Y-90629000D01*
X115623500Y-90629000D01*
X115611500Y-90628000D01*
X115600500Y-90626000D01*
X115588500Y-90624000D01*
X115577500Y-90621000D01*
X115565500Y-90618000D01*
X115554500Y-90614000D01*
X115543500Y-90610000D01*
X115533500Y-90604000D01*
X115523500Y-90599000D01*
X115512500Y-90593000D01*
X115503500Y-90586000D01*
X115493500Y-90579000D01*
X115484500Y-90571000D01*
X115476500Y-90563000D01*
X115468500Y-90555000D01*
X115460500Y-90546000D01*
X115453500Y-90536000D01*
X115446500Y-90527000D01*
X115440500Y-90517000D01*
X115435500Y-90506000D01*
X115429500Y-90496000D01*
X115425500Y-90485000D01*
X115421500Y-90474000D01*
X115418500Y-90462000D01*
X115415500Y-90451000D01*
X115413500Y-90439000D01*
X115411500Y-90428000D01*
X115410500Y-90416000D01*
X115410500Y-90404000D01*
X115410500Y-90392000D01*
X115411500Y-90380000D01*
X115413500Y-90369000D01*
X115415500Y-90357000D01*
X115418500Y-90346000D01*
X115421500Y-90334000D01*
X115425500Y-90323000D01*
X115429500Y-90312000D01*
X115435500Y-90302000D01*
X115440500Y-90291000D01*
X115446500Y-90281000D01*
X115453500Y-90272000D01*
X115460500Y-90262000D01*
X115468500Y-90253000D01*
X115476500Y-90245000D01*
X115484500Y-90237000D01*
X115493500Y-90229000D01*
X115503500Y-90222000D01*
X115512500Y-90215000D01*
X115523500Y-90209000D01*
X115533500Y-90204000D01*
X115543500Y-90198000D01*
X115554500Y-90194000D01*
X115565500Y-90190000D01*
X115577500Y-90187000D01*
X115588500Y-90184000D01*
X115600500Y-90182000D01*
X115611500Y-90180000D01*
X115623500Y-90179000D01*
X115635500Y-90179000D01*
X116160500Y-90179000D01*
X116160500Y-90629000D01*
G36*
X116160500Y-90629000D02*
G01*
X115635500Y-90629000D01*
X115623500Y-90629000D01*
X115611500Y-90628000D01*
X115600500Y-90626000D01*
X115588500Y-90624000D01*
X115577500Y-90621000D01*
X115565500Y-90618000D01*
X115554500Y-90614000D01*
X115543500Y-90610000D01*
X115533500Y-90604000D01*
X115523500Y-90599000D01*
X115512500Y-90593000D01*
X115503500Y-90586000D01*
X115493500Y-90579000D01*
X115484500Y-90571000D01*
X115476500Y-90563000D01*
X115468500Y-90555000D01*
X115460500Y-90546000D01*
X115453500Y-90536000D01*
X115446500Y-90527000D01*
X115440500Y-90517000D01*
X115435500Y-90506000D01*
X115429500Y-90496000D01*
X115425500Y-90485000D01*
X115421500Y-90474000D01*
X115418500Y-90462000D01*
X115415500Y-90451000D01*
X115413500Y-90439000D01*
X115411500Y-90428000D01*
X115410500Y-90416000D01*
X115410500Y-90404000D01*
X115410500Y-90392000D01*
X115411500Y-90380000D01*
X115413500Y-90369000D01*
X115415500Y-90357000D01*
X115418500Y-90346000D01*
X115421500Y-90334000D01*
X115425500Y-90323000D01*
X115429500Y-90312000D01*
X115435500Y-90302000D01*
X115440500Y-90291000D01*
X115446500Y-90281000D01*
X115453500Y-90272000D01*
X115460500Y-90262000D01*
X115468500Y-90253000D01*
X115476500Y-90245000D01*
X115484500Y-90237000D01*
X115493500Y-90229000D01*
X115503500Y-90222000D01*
X115512500Y-90215000D01*
X115523500Y-90209000D01*
X115533500Y-90204000D01*
X115543500Y-90198000D01*
X115554500Y-90194000D01*
X115565500Y-90190000D01*
X115577500Y-90187000D01*
X115588500Y-90184000D01*
X115600500Y-90182000D01*
X115611500Y-90180000D01*
X115623500Y-90179000D01*
X115635500Y-90179000D01*
X116160500Y-90179000D01*
X116160500Y-90629000D01*
G37*
%TD*%
D11*
%TO.C,C13*%
X143830000Y-81271000D03*
X143190000Y-81271000D03*
%TD*%
%TO.C,R17*%
X136612000Y-114046000D03*
X135972000Y-114046000D03*
%TD*%
D12*
%TO.C,R29*%
X155058200Y-108635800D03*
X155698200Y-108635800D03*
%TD*%
D11*
%TO.C,D2*%
X122535000Y-69302000D03*
X121895000Y-69302000D03*
%TD*%
D13*
%TO.C,*%
X181610000Y-78613000D03*
%TD*%
D11*
%TO.C,R9*%
X136993000Y-88265000D03*
X136353000Y-88265000D03*
%TD*%
D12*
%TO.C,R59*%
X120060000Y-70064000D03*
X120700000Y-70064000D03*
%TD*%
D11*
%TO.C,R76*%
X117987600Y-89382600D03*
X117347600Y-89382600D03*
%TD*%
D14*
%TO.C,SW1*%
X179971800Y-94473200D03*
X187921800Y-94473200D03*
X179971800Y-98973200D03*
X187921800Y-98973200D03*
%TD*%
D12*
%TO.C,C19*%
X133263000Y-77724000D03*
X133903000Y-77724000D03*
%TD*%
D11*
%TO.C,C55*%
X143830000Y-85315000D03*
X143190000Y-85315000D03*
%TD*%
D13*
%TO.C,*%
X179070000Y-73533000D03*
%TD*%
D12*
%TO.C,R58*%
X120060000Y-69302000D03*
X120700000Y-69302000D03*
%TD*%
D11*
%TO.C,R10*%
X136993000Y-76200000D03*
X136353000Y-76200000D03*
%TD*%
%TO.C,R2*%
X120700000Y-72350000D03*
X120060000Y-72350000D03*
%TD*%
D13*
%TO.C,*%
X184150000Y-81153000D03*
%TD*%
D15*
%TO.C,R91*%
X130937000Y-102402000D03*
X130937000Y-103042000D03*
%TD*%
D11*
%TO.C,D1*%
X122535000Y-68540000D03*
X121895000Y-68540000D03*
%TD*%
D12*
%TO.C,R7*%
X133263000Y-88265000D03*
X133903000Y-88265000D03*
%TD*%
D16*
%TO.C,TP1*%
X118999000Y-78105000D03*
%TD*%
D12*
%TO.C,R79*%
X133263000Y-76962000D03*
X133903000Y-76962000D03*
%TD*%
D11*
%TO.C,C20*%
X136993000Y-86995000D03*
X136353000Y-86995000D03*
%TD*%
D12*
%TO.C,R32*%
X156510200Y-107238800D03*
X157150200Y-107238800D03*
%TD*%
D16*
%TO.C,TP4*%
X115316000Y-96901000D03*
%TD*%
D13*
%TO.C,*%
X179070000Y-63373000D03*
%TD*%
%TO.C,*%
X184150000Y-78613000D03*
%TD*%
%TO.C,*%
X186690000Y-68453000D03*
%TD*%
%TO.C,*%
X179070000Y-83693000D03*
%TD*%
D12*
%TO.C,C21*%
X133263000Y-86995000D03*
X133903000Y-86995000D03*
%TD*%
D11*
%TO.C,R45*%
X169876000Y-71501000D03*
X169236000Y-71501000D03*
%TD*%
D13*
%TO.C,*%
X181610000Y-73533000D03*
%TD*%
D17*
%TO.C,J9*%
X175387000Y-57404000D03*
D18*
X175387000Y-59944000D03*
X172847000Y-57404000D03*
X172847000Y-59944000D03*
X170307000Y-57404000D03*
X170307000Y-59944000D03*
X167767000Y-57404000D03*
X167767000Y-59944000D03*
X165227000Y-57404000D03*
X165227000Y-59944000D03*
X162687000Y-57404000D03*
X162687000Y-59944000D03*
X160147000Y-57404000D03*
X160147000Y-59944000D03*
X157607000Y-57404000D03*
X157607000Y-59944000D03*
X155067000Y-57404000D03*
X155067000Y-59944000D03*
X152527000Y-57404000D03*
X152527000Y-59944000D03*
X149987000Y-57404000D03*
X149987000Y-59944000D03*
X147447000Y-57404000D03*
X147447000Y-59944000D03*
X144907000Y-57404000D03*
X144907000Y-59944000D03*
X142367000Y-57404000D03*
X142367000Y-59944000D03*
X139827000Y-57404000D03*
X139827000Y-59944000D03*
X137287000Y-57404000D03*
X137287000Y-59944000D03*
X134747000Y-57404000D03*
X134747000Y-59944000D03*
X132207000Y-57404000D03*
X132207000Y-59944000D03*
X129667000Y-57404000D03*
X129667000Y-59944000D03*
X127127000Y-57404000D03*
X127127000Y-59944000D03*
%TD*%
D15*
%TO.C,C35*%
X135636000Y-94676000D03*
X135636000Y-95316000D03*
%TD*%
D13*
%TO.C,*%
X179070000Y-78613000D03*
%TD*%
D12*
%TO.C,R35*%
X157907200Y-108635800D03*
X158547200Y-108635800D03*
%TD*%
D11*
%TO.C,R41*%
X172670000Y-71501000D03*
X172030000Y-71501000D03*
%TD*%
D13*
%TO.C,*%
X179070000Y-65913000D03*
%TD*%
D11*
%TO.C,C57*%
X143830000Y-86741000D03*
X143190000Y-86741000D03*
%TD*%
D15*
%TO.C,C2*%
X117221000Y-78907000D03*
X117221000Y-79547000D03*
%TD*%
D13*
%TO.C,*%
X189230000Y-83693000D03*
%TD*%
%TO.C,*%
X184150000Y-73533000D03*
%TD*%
D12*
%TO.C,R39*%
X160646200Y-108635800D03*
X161286200Y-108635800D03*
%TD*%
D11*
%TO.C,R49*%
X165685000Y-72898000D03*
X165045000Y-72898000D03*
%TD*%
D13*
%TO.C,*%
X189230000Y-78613000D03*
%TD*%
D19*
%TO.C,R89*%
X138938000Y-87548000D03*
X138938000Y-86908000D03*
%TD*%
D17*
%TO.C,J11*%
X155829000Y-114427000D03*
D18*
X155829000Y-116967000D03*
X153289000Y-114427000D03*
X153289000Y-116967000D03*
X150749000Y-114427000D03*
X150749000Y-116967000D03*
%TD*%
D13*
%TO.C,*%
X189230000Y-81153000D03*
%TD*%
%TO.C,*%
X181610000Y-70993000D03*
%TD*%
%TO.C,*%
X179070000Y-70993000D03*
%TD*%
D12*
%TO.C,R30*%
X147163000Y-108712000D03*
X147803000Y-108712000D03*
%TD*%
D20*
%TO.C,U4*%
X138557000Y-105344500D03*
X137287000Y-105344500D03*
X136017000Y-105344500D03*
X134747000Y-105344500D03*
X133477000Y-105344500D03*
X132207000Y-105344500D03*
X130937000Y-105344500D03*
X130937000Y-110294500D03*
X132207000Y-110294500D03*
X133477000Y-110294500D03*
X134747000Y-110294500D03*
X136017000Y-110294500D03*
X137287000Y-110294500D03*
X138557000Y-110294500D03*
%TD*%
D13*
%TO.C,*%
X184150000Y-63373000D03*
%TD*%
D12*
%TO.C,R34*%
X145613600Y-107315000D03*
X146253600Y-107315000D03*
%TD*%
D13*
%TO.C,*%
X189230000Y-65913000D03*
%TD*%
D11*
%TO.C,R42*%
X162891000Y-72898000D03*
X162251000Y-72898000D03*
%TD*%
%TO.C,D6*%
X122535000Y-72350000D03*
X121895000Y-72350000D03*
%TD*%
D15*
%TO.C,R90*%
X138557000Y-102317000D03*
X138557000Y-102957000D03*
%TD*%
D12*
%TO.C,R84*%
X132882000Y-113284000D03*
X133522000Y-113284000D03*
%TD*%
D11*
%TO.C,C56*%
X143830000Y-86028000D03*
X143190000Y-86028000D03*
%TD*%
%TO.C,C58*%
X143830000Y-87454000D03*
X143190000Y-87454000D03*
%TD*%
D13*
%TO.C,*%
X189230000Y-73533000D03*
%TD*%
D11*
%TO.C,C54*%
X143830000Y-84602000D03*
X143190000Y-84602000D03*
%TD*%
D13*
%TO.C,*%
X181610000Y-63373000D03*
%TD*%
D11*
%TO.C,R20*%
X136570000Y-101473000D03*
X135930000Y-101473000D03*
%TD*%
D12*
%TO.C,C15*%
X166537000Y-103124000D03*
X167177000Y-103124000D03*
%TD*%
D13*
%TO.C,*%
X181610000Y-68453000D03*
%TD*%
%TO.C,*%
X186690000Y-83693000D03*
%TD*%
D11*
%TO.C,C1*%
X114640500Y-86196500D03*
X114000500Y-86196500D03*
%TD*%
D12*
%TO.C,R8*%
X133263000Y-76200000D03*
X133903000Y-76200000D03*
%TD*%
D16*
%TO.C,TP3*%
X120904000Y-96901000D03*
%TD*%
D11*
%TO.C,C60*%
X143830000Y-88880000D03*
X143190000Y-88880000D03*
%TD*%
%TO.C,R48*%
X167137000Y-71501000D03*
X166497000Y-71501000D03*
%TD*%
D13*
%TO.C,*%
X189230000Y-63373000D03*
%TD*%
D17*
%TO.C,J3*%
X175412000Y-74310000D03*
D18*
X175412000Y-76850000D03*
X175412000Y-79390000D03*
X175412000Y-81930000D03*
X175412000Y-84470000D03*
X175412000Y-87010000D03*
X175412000Y-89550000D03*
X175412000Y-92090000D03*
%TD*%
D15*
%TO.C,R86*%
X138938000Y-77044000D03*
X138938000Y-77684000D03*
%TD*%
D12*
%TO.C,R37*%
X159279200Y-107238800D03*
X159919200Y-107238800D03*
%TD*%
D11*
%TO.C,C59*%
X143830000Y-88167000D03*
X143190000Y-88167000D03*
%TD*%
D13*
%TO.C,*%
X181610000Y-81153000D03*
%TD*%
D19*
%TO.C,R88*%
X131318000Y-87569000D03*
X131318000Y-86929000D03*
%TD*%
D13*
%TO.C,*%
X189230000Y-76073000D03*
%TD*%
D15*
%TO.C,R72*%
X160020000Y-77114000D03*
X160020000Y-77754000D03*
%TD*%
D12*
%TO.C,R33*%
X148585000Y-107315000D03*
X149225000Y-107315000D03*
%TD*%
D13*
%TO.C,*%
X179070000Y-68453000D03*
%TD*%
%TO.C,*%
X186690000Y-70993000D03*
%TD*%
D12*
%TO.C,R80*%
X133263000Y-87630000D03*
X133903000Y-87630000D03*
%TD*%
D13*
%TO.C,*%
X189230000Y-70993000D03*
%TD*%
D11*
%TO.C,R43*%
X171273000Y-72898000D03*
X170633000Y-72898000D03*
%TD*%
D13*
%TO.C,*%
X186690000Y-78613000D03*
%TD*%
D12*
%TO.C,R83*%
X132882000Y-102235000D03*
X133522000Y-102235000D03*
%TD*%
D11*
%TO.C,R81*%
X136993000Y-87630000D03*
X136353000Y-87630000D03*
%TD*%
%TO.C,R50*%
X164288000Y-71501000D03*
X163648000Y-71501000D03*
%TD*%
%TO.C,C53*%
X143830000Y-83889000D03*
X143190000Y-83889000D03*
%TD*%
D21*
%TO.C,X1*%
X137668000Y-98874000D03*
X142748000Y-98874000D03*
X142748000Y-94674000D03*
X137668000Y-94674000D03*
%TD*%
D17*
%TO.C,J7*%
X120904000Y-109982000D03*
D18*
X120904000Y-112522000D03*
X120904000Y-115062000D03*
%TD*%
D12*
%TO.C,C23*%
X132882000Y-102997000D03*
X133522000Y-102997000D03*
%TD*%
D11*
%TO.C,C24*%
X136612000Y-112522000D03*
X135972000Y-112522000D03*
%TD*%
D19*
%TO.C,C14*%
X165989000Y-77754000D03*
X165989000Y-77114000D03*
%TD*%
D13*
%TO.C,*%
X184150000Y-70993000D03*
%TD*%
%TO.C,*%
X179070000Y-76073000D03*
%TD*%
%TO.C,*%
X179070000Y-81153000D03*
%TD*%
D19*
%TO.C,R93*%
X138557000Y-113244000D03*
X138557000Y-112604000D03*
%TD*%
D17*
%TO.C,J5*%
X175412000Y-96154000D03*
D18*
X175412000Y-98694000D03*
X175412000Y-101234000D03*
X175412000Y-103774000D03*
X175412000Y-106314000D03*
X175412000Y-108854000D03*
X175412000Y-111394000D03*
X175412000Y-113934000D03*
%TD*%
D12*
%TO.C,R60*%
X120060000Y-70826000D03*
X120700000Y-70826000D03*
%TD*%
D13*
%TO.C,*%
X184150000Y-76073000D03*
%TD*%
D15*
%TO.C,C11*%
X169672000Y-100116000D03*
X169672000Y-100756000D03*
%TD*%
D11*
%TO.C,R77*%
X117987600Y-90160500D03*
X117347600Y-90160500D03*
%TD*%
%TO.C,R78*%
X136993000Y-76962000D03*
X136353000Y-76962000D03*
%TD*%
D22*
%TO.C,H1*%
X187325000Y-57658000D03*
%TD*%
D23*
%TO.C,R94*%
X117159000Y-130262000D03*
X119659000Y-125262000D03*
X122159000Y-130262000D03*
%TD*%
D17*
%TO.C,J4*%
X127152000Y-101234000D03*
D18*
X127152000Y-103774000D03*
X127152000Y-106314000D03*
X127152000Y-108854000D03*
X127152000Y-111394000D03*
X127152000Y-113934000D03*
X127152000Y-116474000D03*
X127152000Y-119014000D03*
%TD*%
D19*
%TO.C,R15*%
X124383800Y-120364800D03*
X124383800Y-119724800D03*
%TD*%
D11*
%TO.C,D3*%
X122535000Y-70064000D03*
X121895000Y-70064000D03*
%TD*%
D12*
%TO.C,C26*%
X132882000Y-112522000D03*
X133522000Y-112522000D03*
%TD*%
D24*
%TO.C,U2*%
X146558000Y-81710000D03*
X146558000Y-82210000D03*
X146558000Y-82710000D03*
X146558000Y-83210000D03*
X146558000Y-83710000D03*
X146558000Y-84210000D03*
X146558000Y-84710000D03*
X146558000Y-85210000D03*
X146558000Y-85710000D03*
X146558000Y-86210000D03*
X146558000Y-86710000D03*
X146558000Y-87210000D03*
X146558000Y-87710000D03*
X146558000Y-88210000D03*
X146558000Y-88710000D03*
X146558000Y-89210000D03*
X146558000Y-89710000D03*
X146558000Y-90210000D03*
X146558000Y-90710000D03*
X146558000Y-91210000D03*
X146558000Y-91710000D03*
X146558000Y-92210000D03*
X146558000Y-92710000D03*
X146558000Y-93210000D03*
X146558000Y-93710000D03*
X146558000Y-94210000D03*
X146558000Y-94710000D03*
X146558000Y-95210000D03*
X146558000Y-95710000D03*
X146558000Y-96210000D03*
X146558000Y-96710000D03*
X146558000Y-97210000D03*
X146558000Y-97710000D03*
X146558000Y-98210000D03*
X146558000Y-98710000D03*
X146558000Y-99210000D03*
D25*
X148478000Y-101130000D03*
X148978000Y-101130000D03*
X149478000Y-101130000D03*
X149978000Y-101130000D03*
X150478000Y-101130000D03*
X150978000Y-101130000D03*
X151478000Y-101130000D03*
X151978000Y-101130000D03*
X152478000Y-101130000D03*
X152978000Y-101130000D03*
X153478000Y-101130000D03*
X153978000Y-101130000D03*
X154478000Y-101130000D03*
X154978000Y-101130000D03*
X155478000Y-101130000D03*
X155978000Y-101130000D03*
X156478000Y-101130000D03*
X156978000Y-101130000D03*
X157478000Y-101130000D03*
X157978000Y-101130000D03*
X158478000Y-101130000D03*
X158978000Y-101130000D03*
X159478000Y-101130000D03*
X159978000Y-101130000D03*
X160478000Y-101130000D03*
X160978000Y-101130000D03*
X161478000Y-101130000D03*
X161978000Y-101130000D03*
X162478000Y-101130000D03*
X162978000Y-101130000D03*
X163478000Y-101130000D03*
X163978000Y-101130000D03*
X164478000Y-101130000D03*
X164978000Y-101130000D03*
X165478000Y-101130000D03*
X165978000Y-101130000D03*
D24*
X167898000Y-99210000D03*
X167898000Y-98710000D03*
X167898000Y-98210000D03*
X167898000Y-97710000D03*
X167898000Y-97210000D03*
X167898000Y-96710000D03*
X167898000Y-96210000D03*
X167898000Y-95710000D03*
X167898000Y-95210000D03*
X167898000Y-94710000D03*
X167898000Y-94210000D03*
X167898000Y-93710000D03*
X167898000Y-93210000D03*
X167898000Y-92710000D03*
X167898000Y-92210000D03*
X167898000Y-91710000D03*
X167898000Y-91210000D03*
X167898000Y-90710000D03*
X167898000Y-90210000D03*
X167898000Y-89710000D03*
X167898000Y-89210000D03*
X167898000Y-88710000D03*
X167898000Y-88210000D03*
X167898000Y-87710000D03*
X167898000Y-87210000D03*
X167898000Y-86710000D03*
X167898000Y-86210000D03*
X167898000Y-85710000D03*
X167898000Y-85210000D03*
X167898000Y-84710000D03*
X167898000Y-84210000D03*
X167898000Y-83710000D03*
X167898000Y-83210000D03*
X167898000Y-82710000D03*
X167898000Y-82210000D03*
X167898000Y-81710000D03*
D25*
X165978000Y-79790000D03*
X165478000Y-79790000D03*
X164978000Y-79790000D03*
X164478000Y-79790000D03*
X163978000Y-79790000D03*
X163478000Y-79790000D03*
X162978000Y-79790000D03*
X162478000Y-79790000D03*
X161978000Y-79790000D03*
X161478000Y-79790000D03*
X160978000Y-79790000D03*
X160478000Y-79790000D03*
X159978000Y-79790000D03*
X159478000Y-79790000D03*
X158978000Y-79790000D03*
X158478000Y-79790000D03*
X157978000Y-79790000D03*
X157478000Y-79790000D03*
X156978000Y-79790000D03*
X156478000Y-79790000D03*
X155978000Y-79790000D03*
X155478000Y-79790000D03*
X154978000Y-79790000D03*
X154478000Y-79790000D03*
X153978000Y-79790000D03*
X153478000Y-79790000D03*
X152978000Y-79790000D03*
X152478000Y-79790000D03*
X151978000Y-79790000D03*
X151478000Y-79790000D03*
X150978000Y-79790000D03*
X150478000Y-79790000D03*
X149978000Y-79790000D03*
X149478000Y-79790000D03*
X148978000Y-79790000D03*
X148478000Y-79790000D03*
D26*
X157228000Y-90460000D03*
%TD*%
D15*
%TO.C,R87*%
X131318000Y-77044000D03*
X131318000Y-77684000D03*
%TD*%
D11*
%TO.C,R85*%
X136612000Y-113284000D03*
X135972000Y-113284000D03*
%TD*%
%TO.C,C22*%
X136993000Y-77724000D03*
X136353000Y-77724000D03*
%TD*%
D13*
%TO.C,*%
X186690000Y-81153000D03*
%TD*%
D16*
%TO.C,TP5*%
X121437400Y-89408000D03*
%TD*%
%TO.C,TP6*%
X135636000Y-73787000D03*
%TD*%
D13*
%TO.C,*%
X181610000Y-83693000D03*
%TD*%
D11*
%TO.C,D4*%
X122535000Y-70826000D03*
X121895000Y-70826000D03*
%TD*%
%TO.C,FB1*%
X143830000Y-82092800D03*
X143190000Y-82092800D03*
%TD*%
D13*
%TO.C,*%
X186690000Y-76073000D03*
%TD*%
D22*
%TO.C,H3*%
X187452000Y-133731000D03*
%TD*%
D16*
%TO.C,TP9*%
X119405400Y-89408000D03*
%TD*%
D27*
%TO.C,SW3*%
X109729000Y-101727000D03*
X109729000Y-104267000D03*
X109729000Y-106807000D03*
X109729000Y-109347000D03*
X109729000Y-111887000D03*
X109729000Y-114427000D03*
X116459000Y-114427000D03*
X116459000Y-111887000D03*
X116459000Y-109347000D03*
X116459000Y-106807000D03*
X116459000Y-104267000D03*
X116459000Y-101727000D03*
%TD*%
D28*
%TO.C,C3*%
X115568500Y-93980000D03*
X112918500Y-93980000D03*
%TD*%
D11*
%TO.C,R46*%
X168479000Y-72898000D03*
X167839000Y-72898000D03*
%TD*%
D13*
%TO.C,*%
X186690000Y-73533000D03*
%TD*%
%TO.C,*%
X184150000Y-68453000D03*
%TD*%
%TO.C,*%
X184150000Y-65913000D03*
%TD*%
D12*
%TO.C,L2*%
X132050000Y-73787000D03*
X132690000Y-73787000D03*
%TD*%
D19*
%TO.C,R92*%
X130937000Y-113371000D03*
X130937000Y-112731000D03*
%TD*%
D13*
%TO.C,*%
X186690000Y-63373000D03*
%TD*%
D15*
%TO.C,L1*%
X117221000Y-77440000D03*
X117221000Y-78080000D03*
%TD*%
D12*
%TO.C,R36*%
X153661200Y-107238800D03*
X154301200Y-107238800D03*
%TD*%
D16*
%TO.C,TP2*%
X120904000Y-94869000D03*
%TD*%
D12*
%TO.C,C9*%
X148655000Y-77089000D03*
X149295000Y-77089000D03*
%TD*%
D20*
%TO.C,U3*%
X138938000Y-79951500D03*
X137668000Y-79951500D03*
X136398000Y-79951500D03*
X135128000Y-79951500D03*
X133858000Y-79951500D03*
X132588000Y-79951500D03*
X131318000Y-79951500D03*
X131318000Y-84901500D03*
X132588000Y-84901500D03*
X133858000Y-84901500D03*
X135128000Y-84901500D03*
X136398000Y-84901500D03*
X137668000Y-84901500D03*
X138938000Y-84901500D03*
%TD*%
D13*
%TO.C,*%
X184150000Y-83693000D03*
%TD*%
D11*
%TO.C,R82*%
X136570000Y-102235000D03*
X135930000Y-102235000D03*
%TD*%
D22*
%TO.C,H4*%
X111379000Y-133604000D03*
%TD*%
D19*
%TO.C,R51*%
X152527000Y-77754000D03*
X152527000Y-77114000D03*
%TD*%
D11*
%TO.C,D5*%
X122535000Y-71588000D03*
X121895000Y-71588000D03*
%TD*%
D19*
%TO.C,R52*%
X151511000Y-77754000D03*
X151511000Y-77114000D03*
%TD*%
D17*
%TO.C,J6*%
X120904000Y-101219000D03*
D18*
X120904000Y-103759000D03*
X120904000Y-106299000D03*
%TD*%
D19*
%TO.C,C50*%
X133731000Y-73726000D03*
X133731000Y-73086000D03*
%TD*%
D29*
%TO.C,R4*%
X120330000Y-92456000D03*
X122240000Y-92456000D03*
%TD*%
D17*
%TO.C,J8*%
X175361600Y-131318000D03*
D18*
X175361600Y-133858000D03*
X172821600Y-131318000D03*
X172821600Y-133858000D03*
X170281600Y-131318000D03*
X170281600Y-133858000D03*
X167741600Y-131318000D03*
X167741600Y-133858000D03*
X165201600Y-131318000D03*
X165201600Y-133858000D03*
X162661600Y-131318000D03*
X162661600Y-133858000D03*
X160121600Y-131318000D03*
X160121600Y-133858000D03*
X157581600Y-131318000D03*
X157581600Y-133858000D03*
X155041600Y-131318000D03*
X155041600Y-133858000D03*
X152501600Y-131318000D03*
X152501600Y-133858000D03*
X149961600Y-131318000D03*
X149961600Y-133858000D03*
X147421600Y-131318000D03*
X147421600Y-133858000D03*
X144881600Y-131318000D03*
X144881600Y-133858000D03*
X142341600Y-131318000D03*
X142341600Y-133858000D03*
X139801600Y-131318000D03*
X139801600Y-133858000D03*
X137261600Y-131318000D03*
X137261600Y-133858000D03*
X134721600Y-131318000D03*
X134721600Y-133858000D03*
X132181600Y-131318000D03*
X132181600Y-133858000D03*
X129641600Y-131318000D03*
X129641600Y-133858000D03*
X127101600Y-131318000D03*
X127101600Y-133858000D03*
%TD*%
D12*
%TO.C,R61*%
X120060000Y-71588000D03*
X120700000Y-71588000D03*
%TD*%
D13*
%TO.C,*%
X189230000Y-68453000D03*
%TD*%
D29*
%TO.C,R1*%
X117155000Y-96886000D03*
X119065000Y-96886000D03*
%TD*%
D30*
%TO.C,R16*%
X119754000Y-118370600D03*
D31*
X120904000Y-122370600D03*
D30*
X122054000Y-118370600D03*
%TD*%
D13*
%TO.C,*%
X181610000Y-65913000D03*
%TD*%
D32*
%TO.C,J1*%
X112324500Y-76630500D03*
X112324500Y-81030500D03*
D33*
X115024500Y-77230500D03*
X115024500Y-78030500D03*
X115024500Y-78830500D03*
X115024500Y-79630500D03*
X115024500Y-80430500D03*
D34*
X114924500Y-74380500D03*
X109474500Y-74380500D03*
X114924500Y-83280500D03*
X109474500Y-83280500D03*
%TD*%
D11*
%TO.C,R44*%
X161494000Y-71501000D03*
X160854000Y-71501000D03*
%TD*%
D12*
%TO.C,R57*%
X120061200Y-68540000D03*
X120701200Y-68540000D03*
%TD*%
D22*
%TO.C,H2*%
X111379000Y-57658000D03*
%TD*%
D17*
%TO.C,J2*%
X127152000Y-78374000D03*
D18*
X127152000Y-80914000D03*
X127152000Y-83454000D03*
X127152000Y-85994000D03*
X127152000Y-88534000D03*
X127152000Y-91074000D03*
X127152000Y-93614000D03*
X127152000Y-96154000D03*
%TD*%
D11*
%TO.C,R75*%
X117987600Y-88595200D03*
X117347600Y-88595200D03*
%TD*%
D16*
%TO.C,TP7*%
X135636000Y-71755000D03*
%TD*%
D19*
%TO.C,R53*%
X155956000Y-77754000D03*
X155956000Y-77114000D03*
%TD*%
D12*
%TO.C,R18*%
X132882000Y-101473000D03*
X133522000Y-101473000D03*
%TD*%
D35*
%TO.C,J10*%
X185420000Y-117602000D03*
D36*
X182880000Y-117602000D03*
X185420000Y-115062000D03*
X182880000Y-115062000D03*
X185420000Y-112522000D03*
X182880000Y-112522000D03*
X185420000Y-109982000D03*
X182880000Y-109982000D03*
X185420000Y-107442000D03*
X182880000Y-107442000D03*
%TD*%
D16*
%TO.C,TP8*%
X113298000Y-96901000D03*
%TD*%
D11*
%TO.C,C25*%
X136570000Y-102997000D03*
X135930000Y-102997000D03*
%TD*%
D14*
%TO.C,SW2*%
X179971800Y-87081800D03*
X187921800Y-87081800D03*
X179971800Y-91581800D03*
X187921800Y-91581800D03*
%TD*%
D12*
%TO.C,R31*%
X144206000Y-108686600D03*
X144846000Y-108686600D03*
%TD*%
D37*
%TO.C,R3*%
X118364000Y-94173000D03*
X118364000Y-92263000D03*
%TD*%
D13*
%TO.C,*%
X186690000Y-65913000D03*
%TD*%
D12*
%TO.C,R19*%
X132882000Y-114046000D03*
X133522000Y-114046000D03*
%TD*%
D13*
%TO.C,*%
X181610000Y-76073000D03*
%TD*%
M02*
