%TF.GenerationSoftware,KiCad,Pcbnew,8.0.1*%
%TF.CreationDate,2024-05-02T11:19:57+05:30*%
%TF.ProjectId,MAX10eval,4d415831-3065-4766-916c-2e6b69636164,rev?*%
%TF.SameCoordinates,Original*%
%TF.FileFunction,Drillmap*%
%TF.FilePolarity,Positive*%
%FSLAX45Y45*%
G04 Gerber Fmt 4.5, Leading zero omitted, Abs format (unit mm)*
G04 Created by KiCad (PCBNEW 8.0.1) date 2024-05-02 11:19:57*
%MOMM*%
%LPD*%
G01*
G04 APERTURE LIST*
%ADD10C,0.100000*%
%ADD11C,0.200000*%
%ADD12C,0.114000*%
%ADD13C,0.130000*%
G04 APERTURE END LIST*
D10*
X10793113Y-5421013D02*
X19088100Y-5421013D01*
X19088100Y-13716000D01*
X10793113Y-13716000D01*
X10793113Y-5421013D01*
D11*
D10*
X11008600Y-10538700D02*
X11038600Y-10568700D01*
X11038600Y-10538700D02*
X11008600Y-10568700D01*
X11376900Y-10597599D02*
X11406900Y-10627599D01*
X11406900Y-10597599D02*
X11376900Y-10627599D01*
X11376900Y-10676100D02*
X11406900Y-10706100D01*
X11406900Y-10676100D02*
X11376900Y-10706100D01*
X11376900Y-10754600D02*
X11406900Y-10784600D01*
X11406900Y-10754600D02*
X11376900Y-10784600D01*
X11376900Y-10833100D02*
X11406900Y-10863100D01*
X11406900Y-10833100D02*
X11376900Y-10863100D01*
X11376900Y-10911601D02*
X11406900Y-10941601D01*
X11406900Y-10911601D02*
X11376900Y-10941601D01*
X11376900Y-10990101D02*
X11406900Y-11020101D01*
X11406900Y-10990101D02*
X11376900Y-11020101D01*
X11910300Y-8608300D02*
X11940300Y-8638300D01*
X11940300Y-8608300D02*
X11910300Y-8638300D01*
X12055080Y-6708380D02*
X12085080Y-6738380D01*
X12085080Y-6708380D02*
X12055080Y-6738380D01*
X12423380Y-12110960D02*
X12453380Y-12140960D01*
X12453380Y-12110960D02*
X12423380Y-12140960D01*
X13175220Y-10226280D02*
X13205220Y-10256280D01*
X13205220Y-10226280D02*
X13175220Y-10256280D01*
X13175220Y-11249900D02*
X13205220Y-11279900D01*
X13205220Y-11249900D02*
X13175220Y-11279900D01*
X13193000Y-9865600D02*
X13223000Y-9895600D01*
X13223000Y-9865600D02*
X13193000Y-9895600D01*
X13205700Y-8679420D02*
X13235700Y-8709420D01*
X13235700Y-8679420D02*
X13205700Y-8709420D01*
X13218400Y-7693900D02*
X13248400Y-7723900D01*
X13248400Y-7693900D02*
X13218400Y-7723900D01*
X13459700Y-10665700D02*
X13489700Y-10695700D01*
X13489700Y-10665700D02*
X13459700Y-10695700D01*
X13459700Y-10873980D02*
X13489700Y-10903980D01*
X13489700Y-10873980D02*
X13459700Y-10903980D01*
X13497800Y-7693900D02*
X13527800Y-7723900D01*
X13527800Y-7693900D02*
X13497800Y-7723900D01*
X13497800Y-8125700D02*
X13527800Y-8155700D01*
X13527800Y-8125700D02*
X13497800Y-8155700D01*
X13497800Y-8333980D02*
X13527800Y-8363980D01*
X13527800Y-8333980D02*
X13497800Y-8363980D01*
X13548600Y-9802100D02*
X13578600Y-9832100D01*
X13578600Y-9802100D02*
X13548600Y-9832100D01*
X13688300Y-10043400D02*
X13718300Y-10073400D01*
X13718300Y-10043400D02*
X13688300Y-10073400D01*
X13843240Y-10127220D02*
X13873240Y-10157220D01*
X13873240Y-10127220D02*
X13843240Y-10157220D01*
X13949920Y-11308320D02*
X13979920Y-11338320D01*
X13979920Y-11308320D02*
X13949920Y-11338320D01*
X13970240Y-8674340D02*
X14000240Y-8704340D01*
X14000240Y-8674340D02*
X13970240Y-8704340D01*
X14339700Y-9715040D02*
X14369700Y-9745040D01*
X14369700Y-9715040D02*
X14339700Y-9745040D01*
X14445220Y-8612250D02*
X14475220Y-8642250D01*
X14475220Y-8612250D02*
X14445220Y-8642250D01*
X14445220Y-8721750D02*
X14475220Y-8751750D01*
X14475220Y-8721750D02*
X14445220Y-8751750D01*
X14445220Y-8800250D02*
X14475220Y-8830250D01*
X14475220Y-8800250D02*
X14445220Y-8830250D01*
X14445220Y-8878751D02*
X14475220Y-8908751D01*
X14475220Y-8878751D02*
X14445220Y-8908751D01*
X14445220Y-8957251D02*
X14475220Y-8987251D01*
X14475220Y-8957251D02*
X14445220Y-8987251D01*
X14447263Y-8501375D02*
X14477263Y-8531375D01*
X14477263Y-8501375D02*
X14447263Y-8531375D01*
X14447760Y-8422880D02*
X14477760Y-8452880D01*
X14477760Y-8422880D02*
X14447760Y-8452880D01*
X14447760Y-9256000D02*
X14477760Y-9286000D01*
X14477760Y-9256000D02*
X14447760Y-9286000D01*
X14482686Y-9659294D02*
X14512686Y-9689294D01*
X14512686Y-9659294D02*
X14482686Y-9689294D01*
X14482994Y-9580794D02*
X14512994Y-9610794D01*
X14512994Y-9580794D02*
X14482994Y-9610794D01*
X14503640Y-8556000D02*
X14533640Y-8586000D01*
X14533640Y-8556000D02*
X14503640Y-8586000D01*
X14503640Y-8667000D02*
X14533640Y-8697000D01*
X14533640Y-8667000D02*
X14503640Y-8697000D01*
X14544710Y-10288370D02*
X14574710Y-10318370D01*
X14574710Y-10288370D02*
X14544710Y-10318370D01*
X14715850Y-9981050D02*
X14745850Y-10011050D01*
X14745850Y-9981050D02*
X14715850Y-10011050D01*
X14767800Y-8072360D02*
X14797800Y-8102360D01*
X14797800Y-8072360D02*
X14767800Y-8102360D01*
X14818600Y-8905480D02*
X14848600Y-8935480D01*
X14848600Y-8905480D02*
X14818600Y-8935480D01*
X14818600Y-9052800D02*
X14848600Y-9082800D01*
X14848600Y-9052800D02*
X14818600Y-9082800D01*
X14818600Y-9654780D02*
X14848600Y-9684780D01*
X14848600Y-9654780D02*
X14818600Y-9684780D01*
X14818600Y-9804640D02*
X14848600Y-9834640D01*
X14848600Y-9804640D02*
X14818600Y-9834640D01*
X14867325Y-9114348D02*
X14897325Y-9144348D01*
X14897325Y-9114348D02*
X14867325Y-9144348D01*
X14869400Y-9256000D02*
X14899400Y-9286000D01*
X14899400Y-9256000D02*
X14869400Y-9286000D01*
X14883730Y-7814606D02*
X14913730Y-7844606D01*
X14913730Y-7814606D02*
X14883730Y-7844606D01*
X14958300Y-8959958D02*
X14988300Y-8989958D01*
X14988300Y-8959958D02*
X14958300Y-8989958D01*
X14975550Y-10259300D02*
X15005550Y-10289300D01*
X15005550Y-10259300D02*
X14975550Y-10289300D01*
X14983700Y-9169098D02*
X15013700Y-9199098D01*
X15013700Y-9169098D02*
X14983700Y-9199098D01*
X15042120Y-9451580D02*
X15072120Y-9481580D01*
X15072120Y-9451580D02*
X15042120Y-9481580D01*
X15082760Y-9904830D02*
X15112760Y-9934830D01*
X15112760Y-9904830D02*
X15082760Y-9934830D01*
X15138640Y-8656560D02*
X15168640Y-8686560D01*
X15168640Y-8656560D02*
X15138640Y-8686560D01*
X15184360Y-7602460D02*
X15214360Y-7632460D01*
X15214360Y-7602460D02*
X15184360Y-7632460D01*
X15285960Y-7241780D02*
X15315960Y-7271780D01*
X15315960Y-7241780D02*
X15285960Y-7271780D01*
X15291040Y-8199360D02*
X15321040Y-8229360D01*
X15321040Y-8199360D02*
X15291040Y-8229360D01*
X15339300Y-8328900D02*
X15369300Y-8358900D01*
X15369300Y-8328900D02*
X15339300Y-8358900D01*
X15346050Y-8450910D02*
X15376050Y-8480910D01*
X15376050Y-8450910D02*
X15346050Y-8480910D01*
X15349460Y-8133320D02*
X15379460Y-8163320D01*
X15379460Y-8133320D02*
X15349460Y-8163320D01*
X15353105Y-7368780D02*
X15383105Y-7398780D01*
X15383105Y-7368780D02*
X15353105Y-7398780D01*
X15385020Y-9621760D02*
X15415020Y-9651760D01*
X15415020Y-9621760D02*
X15385020Y-9651760D01*
X15396945Y-10484750D02*
X15426945Y-10514750D01*
X15426945Y-10484750D02*
X15396945Y-10514750D01*
X15403930Y-7538960D02*
X15433930Y-7568960D01*
X15433930Y-7538960D02*
X15403930Y-7568960D01*
X15430740Y-9904830D02*
X15460740Y-9934830D01*
X15460740Y-9904830D02*
X15430740Y-9934830D01*
X15460090Y-7683740D02*
X15490090Y-7713740D01*
X15490090Y-7683740D02*
X15460090Y-7713740D01*
X15486620Y-10482820D02*
X15516620Y-10512820D01*
X15516620Y-10482820D02*
X15486620Y-10512820D01*
X15498190Y-9610190D02*
X15528190Y-9640190D01*
X15528190Y-9610190D02*
X15498190Y-9640190D01*
X15513430Y-7599920D02*
X15543430Y-7629920D01*
X15543430Y-7599920D02*
X15513430Y-7629920D01*
X15534880Y-9959580D02*
X15564880Y-9989580D01*
X15564880Y-9959580D02*
X15534880Y-9989580D01*
X15564821Y-7488699D02*
X15594821Y-7518699D01*
X15594821Y-7488699D02*
X15564821Y-7518699D01*
X15577993Y-7245481D02*
X15607993Y-7275481D01*
X15607993Y-7245481D02*
X15577993Y-7275481D01*
X15594430Y-8102840D02*
X15624430Y-8132840D01*
X15624430Y-8102840D02*
X15594430Y-8132840D01*
X15595840Y-8186660D02*
X15625840Y-8216660D01*
X15625840Y-8186660D02*
X15595840Y-8216660D01*
X15631400Y-9904830D02*
X15661400Y-9934830D01*
X15661400Y-9904830D02*
X15631400Y-9934830D01*
X15632831Y-7816322D02*
X15662831Y-7846322D01*
X15662831Y-7816322D02*
X15632831Y-7846322D01*
X15675550Y-10242679D02*
X15705550Y-10272679D01*
X15705550Y-10242679D02*
X15675550Y-10272679D01*
X15780604Y-7458336D02*
X15810604Y-7488336D01*
X15810604Y-7458336D02*
X15780604Y-7488336D01*
X15788880Y-8595600D02*
X15818880Y-8625600D01*
X15818880Y-8595600D02*
X15788880Y-8625600D01*
X15981920Y-9560800D02*
X16011920Y-9590800D01*
X16011920Y-9560800D02*
X15981920Y-9590800D01*
X15987000Y-8093810D02*
X16017000Y-8123810D01*
X16017000Y-8093810D02*
X15987000Y-8123810D01*
X16039971Y-10380980D02*
X16069971Y-10410980D01*
X16069971Y-10380980D02*
X16039971Y-10410980D01*
X16040050Y-10459535D02*
X16070050Y-10489535D01*
X16070050Y-10459535D02*
X16040050Y-10489535D01*
X16079850Y-10313364D02*
X16109850Y-10343364D01*
X16109850Y-10313364D02*
X16079850Y-10343364D01*
X16091140Y-9620630D02*
X16121140Y-9650630D01*
X16121140Y-9620630D02*
X16091140Y-9650630D01*
X16125290Y-8473680D02*
X16155290Y-8503680D01*
X16155290Y-8473680D02*
X16125290Y-8503680D01*
X16130650Y-10242679D02*
X16160650Y-10272679D01*
X16160650Y-10242679D02*
X16130650Y-10272679D01*
X16164779Y-8203232D02*
X16194779Y-8233232D01*
X16194779Y-8203232D02*
X16164779Y-8233232D01*
X16189350Y-10332960D02*
X16219350Y-10362960D01*
X16219350Y-10332960D02*
X16189350Y-10362960D01*
X16192740Y-8775940D02*
X16222740Y-8805940D01*
X16222740Y-8775940D02*
X16192740Y-8805940D01*
X16202900Y-7698980D02*
X16232900Y-7728980D01*
X16232900Y-7698980D02*
X16202900Y-7728980D01*
X16211550Y-11346950D02*
X16241550Y-11376950D01*
X16241550Y-11346950D02*
X16211550Y-11376950D01*
X16211550Y-11425450D02*
X16241550Y-11455450D01*
X16241550Y-11425450D02*
X16211550Y-11455450D01*
X16228300Y-9875760D02*
X16258300Y-9905760D01*
X16258300Y-9875760D02*
X16228300Y-9905760D01*
X16229430Y-7585390D02*
X16259430Y-7615390D01*
X16259430Y-7585390D02*
X16229430Y-7615390D01*
X16240150Y-10238980D02*
X16270150Y-10268980D01*
X16270150Y-10238980D02*
X16240150Y-10268980D01*
X16249750Y-9611600D02*
X16279750Y-9641600D01*
X16279750Y-9611600D02*
X16249750Y-9641600D01*
X16258780Y-7813280D02*
X16288780Y-7843280D01*
X16288780Y-7813280D02*
X16258780Y-7843280D01*
X16267850Y-10332960D02*
X16297850Y-10362960D01*
X16297850Y-10332960D02*
X16267850Y-10362960D01*
X16289260Y-8265400D02*
X16319260Y-8295400D01*
X16319260Y-8265400D02*
X16289260Y-8295400D01*
X16338930Y-7653249D02*
X16368930Y-7683249D01*
X16368930Y-7653249D02*
X16338930Y-7683249D01*
X16360380Y-9529250D02*
X16390380Y-9559250D01*
X16390380Y-9529250D02*
X16360380Y-9559250D01*
X16383240Y-10246600D02*
X16413240Y-10276600D01*
X16413240Y-10246600D02*
X16383240Y-10276600D01*
X16385780Y-7748370D02*
X16415780Y-7778370D01*
X16415780Y-7748370D02*
X16385780Y-7778370D01*
X16398480Y-8684500D02*
X16428480Y-8714500D01*
X16428480Y-8684500D02*
X16398480Y-8714500D01*
X16434040Y-8227300D02*
X16464040Y-8257300D01*
X16464040Y-8227300D02*
X16434040Y-8257300D01*
X16439120Y-10335500D02*
X16469120Y-10365500D01*
X16469120Y-10335500D02*
X16439120Y-10365500D01*
X16452652Y-8497671D02*
X16482652Y-8527671D01*
X16482652Y-8497671D02*
X16452652Y-8527671D01*
X16472140Y-9804640D02*
X16502140Y-9834640D01*
X16502140Y-9804640D02*
X16472140Y-9834640D01*
X16492740Y-10251680D02*
X16522740Y-10281680D01*
X16522740Y-10251680D02*
X16492740Y-10281680D01*
X16571750Y-8355861D02*
X16601750Y-8385861D01*
X16601750Y-8355861D02*
X16571750Y-8385861D01*
X16578820Y-8950310D02*
X16608820Y-8980310D01*
X16608820Y-8950310D02*
X16578820Y-8980310D01*
X16586440Y-8855260D02*
X16616440Y-8885260D01*
X16616440Y-8855260D02*
X16586440Y-8885260D01*
X16637240Y-10421860D02*
X16667240Y-10451860D01*
X16667240Y-10421860D02*
X16637240Y-10451860D01*
X16639780Y-8748000D02*
X16669780Y-8778000D01*
X16669780Y-8748000D02*
X16639780Y-8778000D01*
X16639780Y-9264750D02*
X16669780Y-9294750D01*
X16669780Y-9264750D02*
X16639780Y-9294750D01*
X16642320Y-8212060D02*
X16672320Y-8242060D01*
X16672320Y-8212060D02*
X16642320Y-8242060D01*
X16670260Y-7803120D02*
X16700260Y-7833120D01*
X16700260Y-7803120D02*
X16670260Y-7833120D01*
X16695660Y-10198340D02*
X16725660Y-10228340D01*
X16725660Y-10198340D02*
X16695660Y-10228340D01*
X16713440Y-7940280D02*
X16743440Y-7970280D01*
X16743440Y-7940280D02*
X16713440Y-7970280D01*
X16784560Y-8008860D02*
X16814560Y-8038860D01*
X16814560Y-8008860D02*
X16784560Y-8038860D01*
X16916640Y-8359380D02*
X16946640Y-8389380D01*
X16946640Y-8359380D02*
X16916640Y-8389380D01*
X16921720Y-8486380D02*
X16951720Y-8516380D01*
X16951720Y-8486380D02*
X16921720Y-8516380D01*
X16921720Y-8710750D02*
X16951720Y-8740750D01*
X16951720Y-8710750D02*
X16921720Y-8740750D01*
X16954740Y-9560750D02*
X16984740Y-9590750D01*
X16984740Y-9560750D02*
X16954740Y-9590750D01*
X17016763Y-8563741D02*
X17046763Y-8593741D01*
X17046763Y-8563741D02*
X17016763Y-8593741D01*
X17569420Y-6902550D02*
X17599420Y-6932550D01*
X17599420Y-6902550D02*
X17569420Y-6932550D01*
X17671630Y-6957300D02*
X17701630Y-6987300D01*
X17701630Y-6957300D02*
X17671630Y-6987300D01*
X17841200Y-8694660D02*
X17871200Y-8724660D01*
X17871200Y-8694660D02*
X17841200Y-8724660D01*
X17919940Y-10081500D02*
X17949940Y-10111500D01*
X17949940Y-10081500D02*
X17919940Y-10111500D01*
X18019000Y-10754600D02*
X18049000Y-10784600D01*
X18049000Y-10754600D02*
X18019000Y-10784600D01*
X18273000Y-12951700D02*
X18303000Y-12981700D01*
X18303000Y-12951700D02*
X18273000Y-12981700D01*
X11354800Y-9690100D02*
G75*
G02*
X11304800Y-9690100I-25000J0D01*
G01*
X11304800Y-9690100D02*
G75*
G02*
X11354800Y-9690100I25000J0D01*
G01*
X11556600Y-9690100D02*
G75*
G02*
X11506600Y-9690100I-25000J0D01*
G01*
X11506600Y-9690100D02*
G75*
G02*
X11556600Y-9690100I25000J0D01*
G01*
X11924900Y-7810500D02*
G75*
G02*
X11874900Y-7810500I-25000J0D01*
G01*
X11874900Y-7810500D02*
G75*
G02*
X11924900Y-7810500I25000J0D01*
G01*
X11965540Y-8940800D02*
G75*
G02*
X11915540Y-8940800I-25000J0D01*
G01*
X11915540Y-8940800D02*
G75*
G02*
X11965540Y-8940800I25000J0D01*
G01*
X12115400Y-9486900D02*
G75*
G02*
X12065400Y-9486900I-25000J0D01*
G01*
X12065400Y-9486900D02*
G75*
G02*
X12115400Y-9486900I25000J0D01*
G01*
X12115400Y-9690100D02*
G75*
G02*
X12065400Y-9690100I-25000J0D01*
G01*
X12065400Y-9690100D02*
G75*
G02*
X12115400Y-9690100I25000J0D01*
G01*
X12168740Y-8940800D02*
G75*
G02*
X12118740Y-8940800I-25000J0D01*
G01*
X12118740Y-8940800D02*
G75*
G02*
X12168740Y-8940800I25000J0D01*
G01*
X13588600Y-7175500D02*
G75*
G02*
X13538600Y-7175500I-25000J0D01*
G01*
X13538600Y-7175500D02*
G75*
G02*
X13588600Y-7175500I25000J0D01*
G01*
X13588600Y-7378700D02*
G75*
G02*
X13538600Y-7378700I-25000J0D01*
G01*
X13538600Y-7378700D02*
G75*
G02*
X13588600Y-7378700I25000J0D01*
G01*
X17907000Y-6292300D02*
X17907000Y-6382300D01*
X17862000Y-6337300D02*
X17952000Y-6337300D01*
X17907000Y-6546300D02*
X17907000Y-6636300D01*
X17862000Y-6591300D02*
X17952000Y-6591300D01*
X17907000Y-6800300D02*
X17907000Y-6890300D01*
X17862000Y-6845300D02*
X17952000Y-6845300D01*
X17907000Y-7054300D02*
X17907000Y-7144300D01*
X17862000Y-7099300D02*
X17952000Y-7099300D01*
X17907000Y-7308300D02*
X17907000Y-7398300D01*
X17862000Y-7353300D02*
X17952000Y-7353300D01*
X17907000Y-7562300D02*
X17907000Y-7652300D01*
X17862000Y-7607300D02*
X17952000Y-7607300D01*
X17907000Y-7816300D02*
X17907000Y-7906300D01*
X17862000Y-7861300D02*
X17952000Y-7861300D01*
X17907000Y-8070300D02*
X17907000Y-8160300D01*
X17862000Y-8115300D02*
X17952000Y-8115300D01*
X17907000Y-8324300D02*
X17907000Y-8414300D01*
X17862000Y-8369300D02*
X17952000Y-8369300D01*
X18161000Y-6292300D02*
X18161000Y-6382300D01*
X18116000Y-6337300D02*
X18206000Y-6337300D01*
X18161000Y-6546300D02*
X18161000Y-6636300D01*
X18116000Y-6591300D02*
X18206000Y-6591300D01*
X18161000Y-6800300D02*
X18161000Y-6890300D01*
X18116000Y-6845300D02*
X18206000Y-6845300D01*
X18161000Y-7054300D02*
X18161000Y-7144300D01*
X18116000Y-7099300D02*
X18206000Y-7099300D01*
X18161000Y-7308300D02*
X18161000Y-7398300D01*
X18116000Y-7353300D02*
X18206000Y-7353300D01*
X18161000Y-7562300D02*
X18161000Y-7652300D01*
X18116000Y-7607300D02*
X18206000Y-7607300D01*
X18161000Y-7816300D02*
X18161000Y-7906300D01*
X18116000Y-7861300D02*
X18206000Y-7861300D01*
X18161000Y-8070300D02*
X18161000Y-8160300D01*
X18116000Y-8115300D02*
X18206000Y-8115300D01*
X18161000Y-8324300D02*
X18161000Y-8414300D01*
X18116000Y-8369300D02*
X18206000Y-8369300D01*
X18415000Y-6292300D02*
X18415000Y-6382300D01*
X18370000Y-6337300D02*
X18460000Y-6337300D01*
X18415000Y-6546300D02*
X18415000Y-6636300D01*
X18370000Y-6591300D02*
X18460000Y-6591300D01*
X18415000Y-6800300D02*
X18415000Y-6890300D01*
X18370000Y-6845300D02*
X18460000Y-6845300D01*
X18415000Y-7054300D02*
X18415000Y-7144300D01*
X18370000Y-7099300D02*
X18460000Y-7099300D01*
X18415000Y-7308300D02*
X18415000Y-7398300D01*
X18370000Y-7353300D02*
X18460000Y-7353300D01*
X18415000Y-7562300D02*
X18415000Y-7652300D01*
X18370000Y-7607300D02*
X18460000Y-7607300D01*
X18415000Y-7816300D02*
X18415000Y-7906300D01*
X18370000Y-7861300D02*
X18460000Y-7861300D01*
X18415000Y-8070300D02*
X18415000Y-8160300D01*
X18370000Y-8115300D02*
X18460000Y-8115300D01*
X18415000Y-8324300D02*
X18415000Y-8414300D01*
X18370000Y-8369300D02*
X18460000Y-8369300D01*
X18669000Y-6292300D02*
X18669000Y-6382300D01*
X18624000Y-6337300D02*
X18714000Y-6337300D01*
X18669000Y-6546300D02*
X18669000Y-6636300D01*
X18624000Y-6591300D02*
X18714000Y-6591300D01*
X18669000Y-6800300D02*
X18669000Y-6890300D01*
X18624000Y-6845300D02*
X18714000Y-6845300D01*
X18669000Y-7054300D02*
X18669000Y-7144300D01*
X18624000Y-7099300D02*
X18714000Y-7099300D01*
X18669000Y-7308300D02*
X18669000Y-7398300D01*
X18624000Y-7353300D02*
X18714000Y-7353300D01*
X18669000Y-7562300D02*
X18669000Y-7652300D01*
X18624000Y-7607300D02*
X18714000Y-7607300D01*
X18669000Y-7816300D02*
X18669000Y-7906300D01*
X18624000Y-7861300D02*
X18714000Y-7861300D01*
X18669000Y-8070300D02*
X18669000Y-8160300D01*
X18624000Y-8115300D02*
X18714000Y-8115300D01*
X18669000Y-8324300D02*
X18669000Y-8414300D01*
X18624000Y-8369300D02*
X18714000Y-8369300D01*
X18923000Y-6292300D02*
X18923000Y-6382300D01*
X18878000Y-6337300D02*
X18968000Y-6337300D01*
X18923000Y-6546300D02*
X18923000Y-6636300D01*
X18878000Y-6591300D02*
X18968000Y-6591300D01*
X18923000Y-6800300D02*
X18923000Y-6890300D01*
X18878000Y-6845300D02*
X18968000Y-6845300D01*
X18923000Y-7054300D02*
X18923000Y-7144300D01*
X18878000Y-7099300D02*
X18968000Y-7099300D01*
X18923000Y-7308300D02*
X18923000Y-7398300D01*
X18878000Y-7353300D02*
X18968000Y-7353300D01*
X18923000Y-7562300D02*
X18923000Y-7652300D01*
X18878000Y-7607300D02*
X18968000Y-7607300D01*
X18923000Y-7816300D02*
X18923000Y-7906300D01*
X18878000Y-7861300D02*
X18968000Y-7861300D01*
X18923000Y-8070300D02*
X18923000Y-8160300D01*
X18878000Y-8115300D02*
X18968000Y-8115300D01*
X18923000Y-8324300D02*
X18923000Y-8414300D01*
X18878000Y-8369300D02*
X18968000Y-8369300D01*
X12125756Y-10157256D02*
X12125756Y-10086544D01*
X12055044Y-10086544D01*
X12055044Y-10157256D01*
X12125756Y-10157256D01*
X12125756Y-10411256D02*
X12125756Y-10340544D01*
X12055044Y-10340544D01*
X12055044Y-10411256D01*
X12125756Y-10411256D01*
X12125756Y-10665256D02*
X12125756Y-10594544D01*
X12055044Y-10594544D01*
X12055044Y-10665256D01*
X12125756Y-10665256D01*
X12125756Y-11033556D02*
X12125756Y-10962844D01*
X12055044Y-10962844D01*
X12055044Y-11033556D01*
X12125756Y-11033556D01*
X12125756Y-11287556D02*
X12125756Y-11216844D01*
X12055044Y-11216844D01*
X12055044Y-11287556D01*
X12125756Y-11287556D01*
X12125756Y-11541556D02*
X12125756Y-11470844D01*
X12055044Y-11470844D01*
X12055044Y-11541556D01*
X12125756Y-11541556D01*
X12745516Y-13167156D02*
X12745516Y-13096444D01*
X12674804Y-13096444D01*
X12674804Y-13167156D01*
X12745516Y-13167156D01*
X12745516Y-13421156D02*
X12745516Y-13350444D01*
X12674804Y-13350444D01*
X12674804Y-13421156D01*
X12745516Y-13421156D01*
X12748056Y-5775756D02*
X12748056Y-5705044D01*
X12677344Y-5705044D01*
X12677344Y-5775756D01*
X12748056Y-5775756D01*
X12748056Y-6029756D02*
X12748056Y-5959044D01*
X12677344Y-5959044D01*
X12677344Y-6029756D01*
X12748056Y-6029756D01*
X12750556Y-7872756D02*
X12750556Y-7802044D01*
X12679844Y-7802044D01*
X12679844Y-7872756D01*
X12750556Y-7872756D01*
X12750556Y-8126756D02*
X12750556Y-8056044D01*
X12679844Y-8056044D01*
X12679844Y-8126756D01*
X12750556Y-8126756D01*
X12750556Y-8380756D02*
X12750556Y-8310044D01*
X12679844Y-8310044D01*
X12679844Y-8380756D01*
X12750556Y-8380756D01*
X12750556Y-8634756D02*
X12750556Y-8564044D01*
X12679844Y-8564044D01*
X12679844Y-8634756D01*
X12750556Y-8634756D01*
X12750556Y-8888756D02*
X12750556Y-8818044D01*
X12679844Y-8818044D01*
X12679844Y-8888756D01*
X12750556Y-8888756D01*
X12750556Y-9142756D02*
X12750556Y-9072044D01*
X12679844Y-9072044D01*
X12679844Y-9142756D01*
X12750556Y-9142756D01*
X12750556Y-9396756D02*
X12750556Y-9326044D01*
X12679844Y-9326044D01*
X12679844Y-9396756D01*
X12750556Y-9396756D01*
X12750556Y-9650756D02*
X12750556Y-9580044D01*
X12679844Y-9580044D01*
X12679844Y-9650756D01*
X12750556Y-9650756D01*
X12750556Y-10158756D02*
X12750556Y-10088044D01*
X12679844Y-10088044D01*
X12679844Y-10158756D01*
X12750556Y-10158756D01*
X12750556Y-10412756D02*
X12750556Y-10342044D01*
X12679844Y-10342044D01*
X12679844Y-10412756D01*
X12750556Y-10412756D01*
X12750556Y-10666756D02*
X12750556Y-10596044D01*
X12679844Y-10596044D01*
X12679844Y-10666756D01*
X12750556Y-10666756D01*
X12750556Y-10920756D02*
X12750556Y-10850044D01*
X12679844Y-10850044D01*
X12679844Y-10920756D01*
X12750556Y-10920756D01*
X12750556Y-11174756D02*
X12750556Y-11104044D01*
X12679844Y-11104044D01*
X12679844Y-11174756D01*
X12750556Y-11174756D01*
X12750556Y-11428756D02*
X12750556Y-11358044D01*
X12679844Y-11358044D01*
X12679844Y-11428756D01*
X12750556Y-11428756D01*
X12750556Y-11682756D02*
X12750556Y-11612044D01*
X12679844Y-11612044D01*
X12679844Y-11682756D01*
X12750556Y-11682756D01*
X12750556Y-11936756D02*
X12750556Y-11866044D01*
X12679844Y-11866044D01*
X12679844Y-11936756D01*
X12750556Y-11936756D01*
X12999516Y-13167156D02*
X12999516Y-13096444D01*
X12928804Y-13096444D01*
X12928804Y-13167156D01*
X12999516Y-13167156D01*
X12999516Y-13421156D02*
X12999516Y-13350444D01*
X12928804Y-13350444D01*
X12928804Y-13421156D01*
X12999516Y-13421156D01*
X13002056Y-5775756D02*
X13002056Y-5705044D01*
X12931344Y-5705044D01*
X12931344Y-5775756D01*
X13002056Y-5775756D01*
X13002056Y-6029756D02*
X13002056Y-5959044D01*
X12931344Y-5959044D01*
X12931344Y-6029756D01*
X13002056Y-6029756D01*
X13253516Y-13167156D02*
X13253516Y-13096444D01*
X13182804Y-13096444D01*
X13182804Y-13167156D01*
X13253516Y-13167156D01*
X13253516Y-13421156D02*
X13253516Y-13350444D01*
X13182804Y-13350444D01*
X13182804Y-13421156D01*
X13253516Y-13421156D01*
X13256056Y-5775756D02*
X13256056Y-5705044D01*
X13185344Y-5705044D01*
X13185344Y-5775756D01*
X13256056Y-5775756D01*
X13256056Y-6029756D02*
X13256056Y-5959044D01*
X13185344Y-5959044D01*
X13185344Y-6029756D01*
X13256056Y-6029756D01*
X13507516Y-13167156D02*
X13507516Y-13096444D01*
X13436804Y-13096444D01*
X13436804Y-13167156D01*
X13507516Y-13167156D01*
X13507516Y-13421156D02*
X13507516Y-13350444D01*
X13436804Y-13350444D01*
X13436804Y-13421156D01*
X13507516Y-13421156D01*
X13510056Y-5775756D02*
X13510056Y-5705044D01*
X13439344Y-5705044D01*
X13439344Y-5775756D01*
X13510056Y-5775756D01*
X13510056Y-6029756D02*
X13510056Y-5959044D01*
X13439344Y-5959044D01*
X13439344Y-6029756D01*
X13510056Y-6029756D01*
X13761516Y-13167156D02*
X13761516Y-13096444D01*
X13690804Y-13096444D01*
X13690804Y-13167156D01*
X13761516Y-13167156D01*
X13761516Y-13421156D02*
X13761516Y-13350444D01*
X13690804Y-13350444D01*
X13690804Y-13421156D01*
X13761516Y-13421156D01*
X13764056Y-5775756D02*
X13764056Y-5705044D01*
X13693344Y-5705044D01*
X13693344Y-5775756D01*
X13764056Y-5775756D01*
X13764056Y-6029756D02*
X13764056Y-5959044D01*
X13693344Y-5959044D01*
X13693344Y-6029756D01*
X13764056Y-6029756D01*
X14015516Y-13167156D02*
X14015516Y-13096444D01*
X13944804Y-13096444D01*
X13944804Y-13167156D01*
X14015516Y-13167156D01*
X14015516Y-13421156D02*
X14015516Y-13350444D01*
X13944804Y-13350444D01*
X13944804Y-13421156D01*
X14015516Y-13421156D01*
X14018056Y-5775756D02*
X14018056Y-5705044D01*
X13947344Y-5705044D01*
X13947344Y-5775756D01*
X14018056Y-5775756D01*
X14018056Y-6029756D02*
X14018056Y-5959044D01*
X13947344Y-5959044D01*
X13947344Y-6029756D01*
X14018056Y-6029756D01*
X14269516Y-13167156D02*
X14269516Y-13096444D01*
X14198804Y-13096444D01*
X14198804Y-13167156D01*
X14269516Y-13167156D01*
X14269516Y-13421156D02*
X14269516Y-13350444D01*
X14198804Y-13350444D01*
X14198804Y-13421156D01*
X14269516Y-13421156D01*
X14272056Y-5775756D02*
X14272056Y-5705044D01*
X14201344Y-5705044D01*
X14201344Y-5775756D01*
X14272056Y-5775756D01*
X14272056Y-6029756D02*
X14272056Y-5959044D01*
X14201344Y-5959044D01*
X14201344Y-6029756D01*
X14272056Y-6029756D01*
X14523516Y-13167156D02*
X14523516Y-13096444D01*
X14452804Y-13096444D01*
X14452804Y-13167156D01*
X14523516Y-13167156D01*
X14523516Y-13421156D02*
X14523516Y-13350444D01*
X14452804Y-13350444D01*
X14452804Y-13421156D01*
X14523516Y-13421156D01*
X14526056Y-5775756D02*
X14526056Y-5705044D01*
X14455344Y-5705044D01*
X14455344Y-5775756D01*
X14526056Y-5775756D01*
X14526056Y-6029756D02*
X14526056Y-5959044D01*
X14455344Y-5959044D01*
X14455344Y-6029756D01*
X14526056Y-6029756D01*
X14777516Y-13167156D02*
X14777516Y-13096444D01*
X14706804Y-13096444D01*
X14706804Y-13167156D01*
X14777516Y-13167156D01*
X14777516Y-13421156D02*
X14777516Y-13350444D01*
X14706804Y-13350444D01*
X14706804Y-13421156D01*
X14777516Y-13421156D01*
X14780056Y-5775756D02*
X14780056Y-5705044D01*
X14709344Y-5705044D01*
X14709344Y-5775756D01*
X14780056Y-5775756D01*
X14780056Y-6029756D02*
X14780056Y-5959044D01*
X14709344Y-5959044D01*
X14709344Y-6029756D01*
X14780056Y-6029756D01*
X15031516Y-13167156D02*
X15031516Y-13096444D01*
X14960804Y-13096444D01*
X14960804Y-13167156D01*
X15031516Y-13167156D01*
X15031516Y-13421156D02*
X15031516Y-13350444D01*
X14960804Y-13350444D01*
X14960804Y-13421156D01*
X15031516Y-13421156D01*
X15034056Y-5775756D02*
X15034056Y-5705044D01*
X14963344Y-5705044D01*
X14963344Y-5775756D01*
X15034056Y-5775756D01*
X15034056Y-6029756D02*
X15034056Y-5959044D01*
X14963344Y-5959044D01*
X14963344Y-6029756D01*
X15034056Y-6029756D01*
X15110256Y-11478056D02*
X15110256Y-11407344D01*
X15039544Y-11407344D01*
X15039544Y-11478056D01*
X15110256Y-11478056D01*
X15110256Y-11732056D02*
X15110256Y-11661344D01*
X15039544Y-11661344D01*
X15039544Y-11732056D01*
X15110256Y-11732056D01*
X15285516Y-13167156D02*
X15285516Y-13096444D01*
X15214804Y-13096444D01*
X15214804Y-13167156D01*
X15285516Y-13167156D01*
X15285516Y-13421156D02*
X15285516Y-13350444D01*
X15214804Y-13350444D01*
X15214804Y-13421156D01*
X15285516Y-13421156D01*
X15288056Y-5775756D02*
X15288056Y-5705044D01*
X15217344Y-5705044D01*
X15217344Y-5775756D01*
X15288056Y-5775756D01*
X15288056Y-6029756D02*
X15288056Y-5959044D01*
X15217344Y-5959044D01*
X15217344Y-6029756D01*
X15288056Y-6029756D01*
X15364256Y-11478056D02*
X15364256Y-11407344D01*
X15293544Y-11407344D01*
X15293544Y-11478056D01*
X15364256Y-11478056D01*
X15364256Y-11732056D02*
X15364256Y-11661344D01*
X15293544Y-11661344D01*
X15293544Y-11732056D01*
X15364256Y-11732056D01*
X15539516Y-13167156D02*
X15539516Y-13096444D01*
X15468804Y-13096444D01*
X15468804Y-13167156D01*
X15539516Y-13167156D01*
X15539516Y-13421156D02*
X15539516Y-13350444D01*
X15468804Y-13350444D01*
X15468804Y-13421156D01*
X15539516Y-13421156D01*
X15542056Y-5775756D02*
X15542056Y-5705044D01*
X15471344Y-5705044D01*
X15471344Y-5775756D01*
X15542056Y-5775756D01*
X15542056Y-6029756D02*
X15542056Y-5959044D01*
X15471344Y-5959044D01*
X15471344Y-6029756D01*
X15542056Y-6029756D01*
X15618256Y-11478056D02*
X15618256Y-11407344D01*
X15547544Y-11407344D01*
X15547544Y-11478056D01*
X15618256Y-11478056D01*
X15618256Y-11732056D02*
X15618256Y-11661344D01*
X15547544Y-11661344D01*
X15547544Y-11732056D01*
X15618256Y-11732056D01*
X15793516Y-13167156D02*
X15793516Y-13096444D01*
X15722804Y-13096444D01*
X15722804Y-13167156D01*
X15793516Y-13167156D01*
X15793516Y-13421156D02*
X15793516Y-13350444D01*
X15722804Y-13350444D01*
X15722804Y-13421156D01*
X15793516Y-13421156D01*
X15796056Y-5775756D02*
X15796056Y-5705044D01*
X15725344Y-5705044D01*
X15725344Y-5775756D01*
X15796056Y-5775756D01*
X15796056Y-6029756D02*
X15796056Y-5959044D01*
X15725344Y-5959044D01*
X15725344Y-6029756D01*
X15796056Y-6029756D01*
X16047516Y-13167156D02*
X16047516Y-13096444D01*
X15976804Y-13096444D01*
X15976804Y-13167156D01*
X16047516Y-13167156D01*
X16047516Y-13421156D02*
X16047516Y-13350444D01*
X15976804Y-13350444D01*
X15976804Y-13421156D01*
X16047516Y-13421156D01*
X16050056Y-5775756D02*
X16050056Y-5705044D01*
X15979344Y-5705044D01*
X15979344Y-5775756D01*
X16050056Y-5775756D01*
X16050056Y-6029756D02*
X16050056Y-5959044D01*
X15979344Y-5959044D01*
X15979344Y-6029756D01*
X16050056Y-6029756D01*
X16301516Y-13167156D02*
X16301516Y-13096444D01*
X16230804Y-13096444D01*
X16230804Y-13167156D01*
X16301516Y-13167156D01*
X16301516Y-13421156D02*
X16301516Y-13350444D01*
X16230804Y-13350444D01*
X16230804Y-13421156D01*
X16301516Y-13421156D01*
X16304056Y-5775756D02*
X16304056Y-5705044D01*
X16233344Y-5705044D01*
X16233344Y-5775756D01*
X16304056Y-5775756D01*
X16304056Y-6029756D02*
X16304056Y-5959044D01*
X16233344Y-5959044D01*
X16233344Y-6029756D01*
X16304056Y-6029756D01*
X16555516Y-13167156D02*
X16555516Y-13096444D01*
X16484804Y-13096444D01*
X16484804Y-13167156D01*
X16555516Y-13167156D01*
X16555516Y-13421156D02*
X16555516Y-13350444D01*
X16484804Y-13350444D01*
X16484804Y-13421156D01*
X16555516Y-13421156D01*
X16558056Y-5775756D02*
X16558056Y-5705044D01*
X16487344Y-5705044D01*
X16487344Y-5775756D01*
X16558056Y-5775756D01*
X16558056Y-6029756D02*
X16558056Y-5959044D01*
X16487344Y-5959044D01*
X16487344Y-6029756D01*
X16558056Y-6029756D01*
X16809516Y-13167156D02*
X16809516Y-13096444D01*
X16738804Y-13096444D01*
X16738804Y-13167156D01*
X16809516Y-13167156D01*
X16809516Y-13421156D02*
X16809516Y-13350444D01*
X16738804Y-13350444D01*
X16738804Y-13421156D01*
X16809516Y-13421156D01*
X16812056Y-5775756D02*
X16812056Y-5705044D01*
X16741344Y-5705044D01*
X16741344Y-5775756D01*
X16812056Y-5775756D01*
X16812056Y-6029756D02*
X16812056Y-5959044D01*
X16741344Y-5959044D01*
X16741344Y-6029756D01*
X16812056Y-6029756D01*
X17063516Y-13167156D02*
X17063516Y-13096444D01*
X16992804Y-13096444D01*
X16992804Y-13167156D01*
X17063516Y-13167156D01*
X17063516Y-13421156D02*
X17063516Y-13350444D01*
X16992804Y-13350444D01*
X16992804Y-13421156D01*
X17063516Y-13421156D01*
X17066056Y-5775756D02*
X17066056Y-5705044D01*
X16995344Y-5705044D01*
X16995344Y-5775756D01*
X17066056Y-5775756D01*
X17066056Y-6029756D02*
X17066056Y-5959044D01*
X16995344Y-5959044D01*
X16995344Y-6029756D01*
X17066056Y-6029756D01*
X17317516Y-13167156D02*
X17317516Y-13096444D01*
X17246804Y-13096444D01*
X17246804Y-13167156D01*
X17317516Y-13167156D01*
X17317516Y-13421156D02*
X17317516Y-13350444D01*
X17246804Y-13350444D01*
X17246804Y-13421156D01*
X17317516Y-13421156D01*
X17320056Y-5775756D02*
X17320056Y-5705044D01*
X17249344Y-5705044D01*
X17249344Y-5775756D01*
X17320056Y-5775756D01*
X17320056Y-6029756D02*
X17320056Y-5959044D01*
X17249344Y-5959044D01*
X17249344Y-6029756D01*
X17320056Y-6029756D01*
X17571516Y-13167156D02*
X17571516Y-13096444D01*
X17500804Y-13096444D01*
X17500804Y-13167156D01*
X17571516Y-13167156D01*
X17571516Y-13421156D02*
X17571516Y-13350444D01*
X17500804Y-13350444D01*
X17500804Y-13421156D01*
X17571516Y-13421156D01*
X17574056Y-5775756D02*
X17574056Y-5705044D01*
X17503344Y-5705044D01*
X17503344Y-5775756D01*
X17574056Y-5775756D01*
X17574056Y-6029756D02*
X17574056Y-5959044D01*
X17503344Y-5959044D01*
X17503344Y-6029756D01*
X17574056Y-6029756D01*
X17576556Y-7466356D02*
X17576556Y-7395644D01*
X17505844Y-7395644D01*
X17505844Y-7466356D01*
X17576556Y-7466356D01*
X17576556Y-7720356D02*
X17576556Y-7649644D01*
X17505844Y-7649644D01*
X17505844Y-7720356D01*
X17576556Y-7720356D01*
X17576556Y-7974356D02*
X17576556Y-7903644D01*
X17505844Y-7903644D01*
X17505844Y-7974356D01*
X17576556Y-7974356D01*
X17576556Y-8228356D02*
X17576556Y-8157644D01*
X17505844Y-8157644D01*
X17505844Y-8228356D01*
X17576556Y-8228356D01*
X17576556Y-8482356D02*
X17576556Y-8411644D01*
X17505844Y-8411644D01*
X17505844Y-8482356D01*
X17576556Y-8482356D01*
X17576556Y-8736356D02*
X17576556Y-8665644D01*
X17505844Y-8665644D01*
X17505844Y-8736356D01*
X17576556Y-8736356D01*
X17576556Y-8990356D02*
X17576556Y-8919644D01*
X17505844Y-8919644D01*
X17505844Y-8990356D01*
X17576556Y-8990356D01*
X17576556Y-9244356D02*
X17576556Y-9173644D01*
X17505844Y-9173644D01*
X17505844Y-9244356D01*
X17576556Y-9244356D01*
X17576556Y-9650756D02*
X17576556Y-9580044D01*
X17505844Y-9580044D01*
X17505844Y-9650756D01*
X17576556Y-9650756D01*
X17576556Y-9904756D02*
X17576556Y-9834044D01*
X17505844Y-9834044D01*
X17505844Y-9904756D01*
X17576556Y-9904756D01*
X17576556Y-10158756D02*
X17576556Y-10088044D01*
X17505844Y-10088044D01*
X17505844Y-10158756D01*
X17576556Y-10158756D01*
X17576556Y-10412756D02*
X17576556Y-10342044D01*
X17505844Y-10342044D01*
X17505844Y-10412756D01*
X17576556Y-10412756D01*
X17576556Y-10666756D02*
X17576556Y-10596044D01*
X17505844Y-10596044D01*
X17505844Y-10666756D01*
X17576556Y-10666756D01*
X17576556Y-10920756D02*
X17576556Y-10850044D01*
X17505844Y-10850044D01*
X17505844Y-10920756D01*
X17576556Y-10920756D01*
X17576556Y-11174756D02*
X17576556Y-11104044D01*
X17505844Y-11104044D01*
X17505844Y-11174756D01*
X17576556Y-11174756D01*
X17576556Y-11428756D02*
X17576556Y-11358044D01*
X17505844Y-11358044D01*
X17505844Y-11428756D01*
X17576556Y-11428756D01*
D12*
X18288000Y-10801200D02*
X18345000Y-10744200D01*
X18288000Y-10687200D01*
X18231000Y-10744200D01*
X18288000Y-10801200D01*
X18288000Y-11055200D02*
X18345000Y-10998200D01*
X18288000Y-10941200D01*
X18231000Y-10998200D01*
X18288000Y-11055200D01*
X18288000Y-11309200D02*
X18345000Y-11252200D01*
X18288000Y-11195200D01*
X18231000Y-11252200D01*
X18288000Y-11309200D01*
X18288000Y-11563200D02*
X18345000Y-11506200D01*
X18288000Y-11449200D01*
X18231000Y-11506200D01*
X18288000Y-11563200D01*
X18288000Y-11817200D02*
X18345000Y-11760200D01*
X18288000Y-11703200D01*
X18231000Y-11760200D01*
X18288000Y-11817200D01*
X18542000Y-10801200D02*
X18599000Y-10744200D01*
X18542000Y-10687200D01*
X18485000Y-10744200D01*
X18542000Y-10801200D01*
X18542000Y-11055200D02*
X18599000Y-10998200D01*
X18542000Y-10941200D01*
X18485000Y-10998200D01*
X18542000Y-11055200D01*
X18542000Y-11309200D02*
X18599000Y-11252200D01*
X18542000Y-11195200D01*
X18485000Y-11252200D01*
X18542000Y-11309200D01*
X18542000Y-11563200D02*
X18599000Y-11506200D01*
X18542000Y-11449200D01*
X18485000Y-11506200D01*
X18542000Y-11563200D01*
X18542000Y-11817200D02*
X18599000Y-11760200D01*
X18542000Y-11703200D01*
X18485000Y-11760200D01*
X18542000Y-11817200D01*
D13*
X11650900Y-12961200D02*
X11780900Y-13091200D01*
X11780900Y-12961200D02*
X11650900Y-13091200D01*
X11780900Y-13026200D02*
G75*
G02*
X11650900Y-13026200I-65000J0D01*
G01*
X11650900Y-13026200D02*
G75*
G02*
X11780900Y-13026200I65000J0D01*
G01*
X11900900Y-12461200D02*
X12030900Y-12591200D01*
X12030900Y-12461200D02*
X11900900Y-12591200D01*
X12030900Y-12526200D02*
G75*
G02*
X11900900Y-12526200I-65000J0D01*
G01*
X11900900Y-12526200D02*
G75*
G02*
X12030900Y-12526200I65000J0D01*
G01*
X12150900Y-12961200D02*
X12280900Y-13091200D01*
X12280900Y-12961200D02*
X12150900Y-13091200D01*
X12280900Y-13026200D02*
G75*
G02*
X12150900Y-13026200I-65000J0D01*
G01*
X12150900Y-13026200D02*
G75*
G02*
X12280900Y-13026200I65000J0D01*
G01*
D11*
X11048890Y-14032484D02*
X11048890Y-13832484D01*
X11048890Y-13832484D02*
X11096509Y-13832484D01*
X11096509Y-13832484D02*
X11125080Y-13842008D01*
X11125080Y-13842008D02*
X11144128Y-13861055D01*
X11144128Y-13861055D02*
X11153652Y-13880103D01*
X11153652Y-13880103D02*
X11163175Y-13918198D01*
X11163175Y-13918198D02*
X11163175Y-13946769D01*
X11163175Y-13946769D02*
X11153652Y-13984865D01*
X11153652Y-13984865D02*
X11144128Y-14003912D01*
X11144128Y-14003912D02*
X11125080Y-14022960D01*
X11125080Y-14022960D02*
X11096509Y-14032484D01*
X11096509Y-14032484D02*
X11048890Y-14032484D01*
X11248890Y-14032484D02*
X11248890Y-13899150D01*
X11248890Y-13937246D02*
X11258413Y-13918198D01*
X11258413Y-13918198D02*
X11267937Y-13908674D01*
X11267937Y-13908674D02*
X11286985Y-13899150D01*
X11286985Y-13899150D02*
X11306033Y-13899150D01*
X11372699Y-14032484D02*
X11372699Y-13899150D01*
X11372699Y-13832484D02*
X11363175Y-13842008D01*
X11363175Y-13842008D02*
X11372699Y-13851531D01*
X11372699Y-13851531D02*
X11382223Y-13842008D01*
X11382223Y-13842008D02*
X11372699Y-13832484D01*
X11372699Y-13832484D02*
X11372699Y-13851531D01*
X11496509Y-14032484D02*
X11477461Y-14022960D01*
X11477461Y-14022960D02*
X11467937Y-14003912D01*
X11467937Y-14003912D02*
X11467937Y-13832484D01*
X11601271Y-14032484D02*
X11582223Y-14022960D01*
X11582223Y-14022960D02*
X11572699Y-14003912D01*
X11572699Y-14003912D02*
X11572699Y-13832484D01*
X11829842Y-14032484D02*
X11829842Y-13832484D01*
X11829842Y-13832484D02*
X11896509Y-13975341D01*
X11896509Y-13975341D02*
X11963175Y-13832484D01*
X11963175Y-13832484D02*
X11963175Y-14032484D01*
X12144128Y-14032484D02*
X12144128Y-13927722D01*
X12144128Y-13927722D02*
X12134604Y-13908674D01*
X12134604Y-13908674D02*
X12115556Y-13899150D01*
X12115556Y-13899150D02*
X12077461Y-13899150D01*
X12077461Y-13899150D02*
X12058413Y-13908674D01*
X12144128Y-14022960D02*
X12125080Y-14032484D01*
X12125080Y-14032484D02*
X12077461Y-14032484D01*
X12077461Y-14032484D02*
X12058413Y-14022960D01*
X12058413Y-14022960D02*
X12048890Y-14003912D01*
X12048890Y-14003912D02*
X12048890Y-13984865D01*
X12048890Y-13984865D02*
X12058413Y-13965817D01*
X12058413Y-13965817D02*
X12077461Y-13956293D01*
X12077461Y-13956293D02*
X12125080Y-13956293D01*
X12125080Y-13956293D02*
X12144128Y-13946769D01*
X12239366Y-13899150D02*
X12239366Y-14099150D01*
X12239366Y-13908674D02*
X12258413Y-13899150D01*
X12258413Y-13899150D02*
X12296509Y-13899150D01*
X12296509Y-13899150D02*
X12315556Y-13908674D01*
X12315556Y-13908674D02*
X12325080Y-13918198D01*
X12325080Y-13918198D02*
X12334604Y-13937246D01*
X12334604Y-13937246D02*
X12334604Y-13994388D01*
X12334604Y-13994388D02*
X12325080Y-14013436D01*
X12325080Y-14013436D02*
X12315556Y-14022960D01*
X12315556Y-14022960D02*
X12296509Y-14032484D01*
X12296509Y-14032484D02*
X12258413Y-14032484D01*
X12258413Y-14032484D02*
X12239366Y-14022960D01*
X12420318Y-14013436D02*
X12429842Y-14022960D01*
X12429842Y-14022960D02*
X12420318Y-14032484D01*
X12420318Y-14032484D02*
X12410794Y-14022960D01*
X12410794Y-14022960D02*
X12420318Y-14013436D01*
X12420318Y-14013436D02*
X12420318Y-14032484D01*
X12420318Y-13908674D02*
X12429842Y-13918198D01*
X12429842Y-13918198D02*
X12420318Y-13927722D01*
X12420318Y-13927722D02*
X12410794Y-13918198D01*
X12410794Y-13918198D02*
X12420318Y-13908674D01*
X12420318Y-13908674D02*
X12420318Y-13927722D01*
D10*
X10758113Y-14346000D02*
X10788113Y-14376000D01*
X10788113Y-14346000D02*
X10758113Y-14376000D01*
D11*
X11086985Y-14252484D02*
X11106033Y-14252484D01*
X11106033Y-14252484D02*
X11125080Y-14262008D01*
X11125080Y-14262008D02*
X11134604Y-14271531D01*
X11134604Y-14271531D02*
X11144128Y-14290579D01*
X11144128Y-14290579D02*
X11153652Y-14328674D01*
X11153652Y-14328674D02*
X11153652Y-14376293D01*
X11153652Y-14376293D02*
X11144128Y-14414388D01*
X11144128Y-14414388D02*
X11134604Y-14433436D01*
X11134604Y-14433436D02*
X11125080Y-14442960D01*
X11125080Y-14442960D02*
X11106033Y-14452484D01*
X11106033Y-14452484D02*
X11086985Y-14452484D01*
X11086985Y-14452484D02*
X11067937Y-14442960D01*
X11067937Y-14442960D02*
X11058414Y-14433436D01*
X11058414Y-14433436D02*
X11048890Y-14414388D01*
X11048890Y-14414388D02*
X11039366Y-14376293D01*
X11039366Y-14376293D02*
X11039366Y-14328674D01*
X11039366Y-14328674D02*
X11048890Y-14290579D01*
X11048890Y-14290579D02*
X11058414Y-14271531D01*
X11058414Y-14271531D02*
X11067937Y-14262008D01*
X11067937Y-14262008D02*
X11086985Y-14252484D01*
X11239366Y-14433436D02*
X11248890Y-14442960D01*
X11248890Y-14442960D02*
X11239366Y-14452484D01*
X11239366Y-14452484D02*
X11229842Y-14442960D01*
X11229842Y-14442960D02*
X11239366Y-14433436D01*
X11239366Y-14433436D02*
X11239366Y-14452484D01*
X11315556Y-14252484D02*
X11439366Y-14252484D01*
X11439366Y-14252484D02*
X11372699Y-14328674D01*
X11372699Y-14328674D02*
X11401271Y-14328674D01*
X11401271Y-14328674D02*
X11420318Y-14338198D01*
X11420318Y-14338198D02*
X11429842Y-14347722D01*
X11429842Y-14347722D02*
X11439366Y-14366769D01*
X11439366Y-14366769D02*
X11439366Y-14414388D01*
X11439366Y-14414388D02*
X11429842Y-14433436D01*
X11429842Y-14433436D02*
X11420318Y-14442960D01*
X11420318Y-14442960D02*
X11401271Y-14452484D01*
X11401271Y-14452484D02*
X11344128Y-14452484D01*
X11344128Y-14452484D02*
X11325080Y-14442960D01*
X11325080Y-14442960D02*
X11315556Y-14433436D01*
X11563175Y-14252484D02*
X11582223Y-14252484D01*
X11582223Y-14252484D02*
X11601271Y-14262008D01*
X11601271Y-14262008D02*
X11610794Y-14271531D01*
X11610794Y-14271531D02*
X11620318Y-14290579D01*
X11620318Y-14290579D02*
X11629842Y-14328674D01*
X11629842Y-14328674D02*
X11629842Y-14376293D01*
X11629842Y-14376293D02*
X11620318Y-14414388D01*
X11620318Y-14414388D02*
X11610794Y-14433436D01*
X11610794Y-14433436D02*
X11601271Y-14442960D01*
X11601271Y-14442960D02*
X11582223Y-14452484D01*
X11582223Y-14452484D02*
X11563175Y-14452484D01*
X11563175Y-14452484D02*
X11544128Y-14442960D01*
X11544128Y-14442960D02*
X11534604Y-14433436D01*
X11534604Y-14433436D02*
X11525080Y-14414388D01*
X11525080Y-14414388D02*
X11515556Y-14376293D01*
X11515556Y-14376293D02*
X11515556Y-14328674D01*
X11515556Y-14328674D02*
X11525080Y-14290579D01*
X11525080Y-14290579D02*
X11534604Y-14271531D01*
X11534604Y-14271531D02*
X11544128Y-14262008D01*
X11544128Y-14262008D02*
X11563175Y-14252484D01*
X11753652Y-14252484D02*
X11772699Y-14252484D01*
X11772699Y-14252484D02*
X11791747Y-14262008D01*
X11791747Y-14262008D02*
X11801271Y-14271531D01*
X11801271Y-14271531D02*
X11810794Y-14290579D01*
X11810794Y-14290579D02*
X11820318Y-14328674D01*
X11820318Y-14328674D02*
X11820318Y-14376293D01*
X11820318Y-14376293D02*
X11810794Y-14414388D01*
X11810794Y-14414388D02*
X11801271Y-14433436D01*
X11801271Y-14433436D02*
X11791747Y-14442960D01*
X11791747Y-14442960D02*
X11772699Y-14452484D01*
X11772699Y-14452484D02*
X11753652Y-14452484D01*
X11753652Y-14452484D02*
X11734604Y-14442960D01*
X11734604Y-14442960D02*
X11725080Y-14433436D01*
X11725080Y-14433436D02*
X11715556Y-14414388D01*
X11715556Y-14414388D02*
X11706033Y-14376293D01*
X11706033Y-14376293D02*
X11706033Y-14328674D01*
X11706033Y-14328674D02*
X11715556Y-14290579D01*
X11715556Y-14290579D02*
X11725080Y-14271531D01*
X11725080Y-14271531D02*
X11734604Y-14262008D01*
X11734604Y-14262008D02*
X11753652Y-14252484D01*
X11906033Y-14452484D02*
X11906033Y-14319150D01*
X11906033Y-14338198D02*
X11915556Y-14328674D01*
X11915556Y-14328674D02*
X11934604Y-14319150D01*
X11934604Y-14319150D02*
X11963175Y-14319150D01*
X11963175Y-14319150D02*
X11982223Y-14328674D01*
X11982223Y-14328674D02*
X11991747Y-14347722D01*
X11991747Y-14347722D02*
X11991747Y-14452484D01*
X11991747Y-14347722D02*
X12001271Y-14328674D01*
X12001271Y-14328674D02*
X12020318Y-14319150D01*
X12020318Y-14319150D02*
X12048890Y-14319150D01*
X12048890Y-14319150D02*
X12067937Y-14328674D01*
X12067937Y-14328674D02*
X12077461Y-14347722D01*
X12077461Y-14347722D02*
X12077461Y-14452484D01*
X12172699Y-14452484D02*
X12172699Y-14319150D01*
X12172699Y-14338198D02*
X12182223Y-14328674D01*
X12182223Y-14328674D02*
X12201271Y-14319150D01*
X12201271Y-14319150D02*
X12229842Y-14319150D01*
X12229842Y-14319150D02*
X12248890Y-14328674D01*
X12248890Y-14328674D02*
X12258414Y-14347722D01*
X12258414Y-14347722D02*
X12258414Y-14452484D01*
X12258414Y-14347722D02*
X12267937Y-14328674D01*
X12267937Y-14328674D02*
X12286985Y-14319150D01*
X12286985Y-14319150D02*
X12315556Y-14319150D01*
X12315556Y-14319150D02*
X12334604Y-14328674D01*
X12334604Y-14328674D02*
X12344128Y-14347722D01*
X12344128Y-14347722D02*
X12344128Y-14452484D01*
X12734604Y-14242960D02*
X12563176Y-14500103D01*
X12991747Y-14252484D02*
X13010795Y-14252484D01*
X13010795Y-14252484D02*
X13029842Y-14262008D01*
X13029842Y-14262008D02*
X13039366Y-14271531D01*
X13039366Y-14271531D02*
X13048890Y-14290579D01*
X13048890Y-14290579D02*
X13058414Y-14328674D01*
X13058414Y-14328674D02*
X13058414Y-14376293D01*
X13058414Y-14376293D02*
X13048890Y-14414388D01*
X13048890Y-14414388D02*
X13039366Y-14433436D01*
X13039366Y-14433436D02*
X13029842Y-14442960D01*
X13029842Y-14442960D02*
X13010795Y-14452484D01*
X13010795Y-14452484D02*
X12991747Y-14452484D01*
X12991747Y-14452484D02*
X12972699Y-14442960D01*
X12972699Y-14442960D02*
X12963176Y-14433436D01*
X12963176Y-14433436D02*
X12953652Y-14414388D01*
X12953652Y-14414388D02*
X12944128Y-14376293D01*
X12944128Y-14376293D02*
X12944128Y-14328674D01*
X12944128Y-14328674D02*
X12953652Y-14290579D01*
X12953652Y-14290579D02*
X12963176Y-14271531D01*
X12963176Y-14271531D02*
X12972699Y-14262008D01*
X12972699Y-14262008D02*
X12991747Y-14252484D01*
X13144128Y-14433436D02*
X13153652Y-14442960D01*
X13153652Y-14442960D02*
X13144128Y-14452484D01*
X13144128Y-14452484D02*
X13134604Y-14442960D01*
X13134604Y-14442960D02*
X13144128Y-14433436D01*
X13144128Y-14433436D02*
X13144128Y-14452484D01*
X13277461Y-14252484D02*
X13296509Y-14252484D01*
X13296509Y-14252484D02*
X13315557Y-14262008D01*
X13315557Y-14262008D02*
X13325080Y-14271531D01*
X13325080Y-14271531D02*
X13334604Y-14290579D01*
X13334604Y-14290579D02*
X13344128Y-14328674D01*
X13344128Y-14328674D02*
X13344128Y-14376293D01*
X13344128Y-14376293D02*
X13334604Y-14414388D01*
X13334604Y-14414388D02*
X13325080Y-14433436D01*
X13325080Y-14433436D02*
X13315557Y-14442960D01*
X13315557Y-14442960D02*
X13296509Y-14452484D01*
X13296509Y-14452484D02*
X13277461Y-14452484D01*
X13277461Y-14452484D02*
X13258414Y-14442960D01*
X13258414Y-14442960D02*
X13248890Y-14433436D01*
X13248890Y-14433436D02*
X13239366Y-14414388D01*
X13239366Y-14414388D02*
X13229842Y-14376293D01*
X13229842Y-14376293D02*
X13229842Y-14328674D01*
X13229842Y-14328674D02*
X13239366Y-14290579D01*
X13239366Y-14290579D02*
X13248890Y-14271531D01*
X13248890Y-14271531D02*
X13258414Y-14262008D01*
X13258414Y-14262008D02*
X13277461Y-14252484D01*
X13534604Y-14452484D02*
X13420318Y-14452484D01*
X13477461Y-14452484D02*
X13477461Y-14252484D01*
X13477461Y-14252484D02*
X13458414Y-14281055D01*
X13458414Y-14281055D02*
X13439366Y-14300103D01*
X13439366Y-14300103D02*
X13420318Y-14309627D01*
X13725080Y-14452484D02*
X13610795Y-14452484D01*
X13667937Y-14452484D02*
X13667937Y-14252484D01*
X13667937Y-14252484D02*
X13648890Y-14281055D01*
X13648890Y-14281055D02*
X13629842Y-14300103D01*
X13629842Y-14300103D02*
X13610795Y-14309627D01*
X13839366Y-14338198D02*
X13820318Y-14328674D01*
X13820318Y-14328674D02*
X13810795Y-14319150D01*
X13810795Y-14319150D02*
X13801271Y-14300103D01*
X13801271Y-14300103D02*
X13801271Y-14290579D01*
X13801271Y-14290579D02*
X13810795Y-14271531D01*
X13810795Y-14271531D02*
X13820318Y-14262008D01*
X13820318Y-14262008D02*
X13839366Y-14252484D01*
X13839366Y-14252484D02*
X13877461Y-14252484D01*
X13877461Y-14252484D02*
X13896509Y-14262008D01*
X13896509Y-14262008D02*
X13906033Y-14271531D01*
X13906033Y-14271531D02*
X13915557Y-14290579D01*
X13915557Y-14290579D02*
X13915557Y-14300103D01*
X13915557Y-14300103D02*
X13906033Y-14319150D01*
X13906033Y-14319150D02*
X13896509Y-14328674D01*
X13896509Y-14328674D02*
X13877461Y-14338198D01*
X13877461Y-14338198D02*
X13839366Y-14338198D01*
X13839366Y-14338198D02*
X13820318Y-14347722D01*
X13820318Y-14347722D02*
X13810795Y-14357246D01*
X13810795Y-14357246D02*
X13801271Y-14376293D01*
X13801271Y-14376293D02*
X13801271Y-14414388D01*
X13801271Y-14414388D02*
X13810795Y-14433436D01*
X13810795Y-14433436D02*
X13820318Y-14442960D01*
X13820318Y-14442960D02*
X13839366Y-14452484D01*
X13839366Y-14452484D02*
X13877461Y-14452484D01*
X13877461Y-14452484D02*
X13896509Y-14442960D01*
X13896509Y-14442960D02*
X13906033Y-14433436D01*
X13906033Y-14433436D02*
X13915557Y-14414388D01*
X13915557Y-14414388D02*
X13915557Y-14376293D01*
X13915557Y-14376293D02*
X13906033Y-14357246D01*
X13906033Y-14357246D02*
X13896509Y-14347722D01*
X13896509Y-14347722D02*
X13877461Y-14338198D01*
X13991747Y-14252484D02*
X13991747Y-14290579D01*
X14067938Y-14252484D02*
X14067938Y-14290579D01*
X14363176Y-14528674D02*
X14353652Y-14519150D01*
X14353652Y-14519150D02*
X14334604Y-14490579D01*
X14334604Y-14490579D02*
X14325080Y-14471531D01*
X14325080Y-14471531D02*
X14315557Y-14442960D01*
X14315557Y-14442960D02*
X14306033Y-14395341D01*
X14306033Y-14395341D02*
X14306033Y-14357246D01*
X14306033Y-14357246D02*
X14315557Y-14309627D01*
X14315557Y-14309627D02*
X14325080Y-14281055D01*
X14325080Y-14281055D02*
X14334604Y-14262008D01*
X14334604Y-14262008D02*
X14353652Y-14233436D01*
X14353652Y-14233436D02*
X14363176Y-14223912D01*
X14544128Y-14452484D02*
X14429842Y-14452484D01*
X14486985Y-14452484D02*
X14486985Y-14252484D01*
X14486985Y-14252484D02*
X14467938Y-14281055D01*
X14467938Y-14281055D02*
X14448890Y-14300103D01*
X14448890Y-14300103D02*
X14429842Y-14309627D01*
X14610795Y-14252484D02*
X14734604Y-14252484D01*
X14734604Y-14252484D02*
X14667938Y-14328674D01*
X14667938Y-14328674D02*
X14696509Y-14328674D01*
X14696509Y-14328674D02*
X14715557Y-14338198D01*
X14715557Y-14338198D02*
X14725080Y-14347722D01*
X14725080Y-14347722D02*
X14734604Y-14366769D01*
X14734604Y-14366769D02*
X14734604Y-14414388D01*
X14734604Y-14414388D02*
X14725080Y-14433436D01*
X14725080Y-14433436D02*
X14715557Y-14442960D01*
X14715557Y-14442960D02*
X14696509Y-14452484D01*
X14696509Y-14452484D02*
X14639366Y-14452484D01*
X14639366Y-14452484D02*
X14620319Y-14442960D01*
X14620319Y-14442960D02*
X14610795Y-14433436D01*
X14810795Y-14271531D02*
X14820319Y-14262008D01*
X14820319Y-14262008D02*
X14839366Y-14252484D01*
X14839366Y-14252484D02*
X14886985Y-14252484D01*
X14886985Y-14252484D02*
X14906033Y-14262008D01*
X14906033Y-14262008D02*
X14915557Y-14271531D01*
X14915557Y-14271531D02*
X14925080Y-14290579D01*
X14925080Y-14290579D02*
X14925080Y-14309627D01*
X14925080Y-14309627D02*
X14915557Y-14338198D01*
X14915557Y-14338198D02*
X14801271Y-14452484D01*
X14801271Y-14452484D02*
X14925080Y-14452484D01*
X15163176Y-14452484D02*
X15163176Y-14252484D01*
X15248890Y-14452484D02*
X15248890Y-14347722D01*
X15248890Y-14347722D02*
X15239366Y-14328674D01*
X15239366Y-14328674D02*
X15220319Y-14319150D01*
X15220319Y-14319150D02*
X15191747Y-14319150D01*
X15191747Y-14319150D02*
X15172700Y-14328674D01*
X15172700Y-14328674D02*
X15163176Y-14338198D01*
X15372700Y-14452484D02*
X15353652Y-14442960D01*
X15353652Y-14442960D02*
X15344128Y-14433436D01*
X15344128Y-14433436D02*
X15334604Y-14414388D01*
X15334604Y-14414388D02*
X15334604Y-14357246D01*
X15334604Y-14357246D02*
X15344128Y-14338198D01*
X15344128Y-14338198D02*
X15353652Y-14328674D01*
X15353652Y-14328674D02*
X15372700Y-14319150D01*
X15372700Y-14319150D02*
X15401271Y-14319150D01*
X15401271Y-14319150D02*
X15420319Y-14328674D01*
X15420319Y-14328674D02*
X15429842Y-14338198D01*
X15429842Y-14338198D02*
X15439366Y-14357246D01*
X15439366Y-14357246D02*
X15439366Y-14414388D01*
X15439366Y-14414388D02*
X15429842Y-14433436D01*
X15429842Y-14433436D02*
X15420319Y-14442960D01*
X15420319Y-14442960D02*
X15401271Y-14452484D01*
X15401271Y-14452484D02*
X15372700Y-14452484D01*
X15553652Y-14452484D02*
X15534604Y-14442960D01*
X15534604Y-14442960D02*
X15525081Y-14423912D01*
X15525081Y-14423912D02*
X15525081Y-14252484D01*
X15706033Y-14442960D02*
X15686985Y-14452484D01*
X15686985Y-14452484D02*
X15648890Y-14452484D01*
X15648890Y-14452484D02*
X15629842Y-14442960D01*
X15629842Y-14442960D02*
X15620319Y-14423912D01*
X15620319Y-14423912D02*
X15620319Y-14347722D01*
X15620319Y-14347722D02*
X15629842Y-14328674D01*
X15629842Y-14328674D02*
X15648890Y-14319150D01*
X15648890Y-14319150D02*
X15686985Y-14319150D01*
X15686985Y-14319150D02*
X15706033Y-14328674D01*
X15706033Y-14328674D02*
X15715557Y-14347722D01*
X15715557Y-14347722D02*
X15715557Y-14366769D01*
X15715557Y-14366769D02*
X15620319Y-14385817D01*
X15791747Y-14442960D02*
X15810795Y-14452484D01*
X15810795Y-14452484D02*
X15848890Y-14452484D01*
X15848890Y-14452484D02*
X15867938Y-14442960D01*
X15867938Y-14442960D02*
X15877462Y-14423912D01*
X15877462Y-14423912D02*
X15877462Y-14414388D01*
X15877462Y-14414388D02*
X15867938Y-14395341D01*
X15867938Y-14395341D02*
X15848890Y-14385817D01*
X15848890Y-14385817D02*
X15820319Y-14385817D01*
X15820319Y-14385817D02*
X15801271Y-14376293D01*
X15801271Y-14376293D02*
X15791747Y-14357246D01*
X15791747Y-14357246D02*
X15791747Y-14347722D01*
X15791747Y-14347722D02*
X15801271Y-14328674D01*
X15801271Y-14328674D02*
X15820319Y-14319150D01*
X15820319Y-14319150D02*
X15848890Y-14319150D01*
X15848890Y-14319150D02*
X15867938Y-14328674D01*
X15944128Y-14528674D02*
X15953652Y-14519150D01*
X15953652Y-14519150D02*
X15972700Y-14490579D01*
X15972700Y-14490579D02*
X15982223Y-14471531D01*
X15982223Y-14471531D02*
X15991747Y-14442960D01*
X15991747Y-14442960D02*
X16001271Y-14395341D01*
X16001271Y-14395341D02*
X16001271Y-14357246D01*
X16001271Y-14357246D02*
X15991747Y-14309627D01*
X15991747Y-14309627D02*
X15982223Y-14281055D01*
X15982223Y-14281055D02*
X15972700Y-14262008D01*
X15972700Y-14262008D02*
X15953652Y-14233436D01*
X15953652Y-14233436D02*
X15944128Y-14223912D01*
D10*
X10788113Y-14625000D02*
G75*
G02*
X10738113Y-14625000I-25000J0D01*
G01*
X10738113Y-14625000D02*
G75*
G02*
X10788113Y-14625000I25000J0D01*
G01*
D11*
X11086985Y-14516484D02*
X11106033Y-14516484D01*
X11106033Y-14516484D02*
X11125080Y-14526008D01*
X11125080Y-14526008D02*
X11134604Y-14535531D01*
X11134604Y-14535531D02*
X11144128Y-14554579D01*
X11144128Y-14554579D02*
X11153652Y-14592674D01*
X11153652Y-14592674D02*
X11153652Y-14640293D01*
X11153652Y-14640293D02*
X11144128Y-14678388D01*
X11144128Y-14678388D02*
X11134604Y-14697436D01*
X11134604Y-14697436D02*
X11125080Y-14706960D01*
X11125080Y-14706960D02*
X11106033Y-14716484D01*
X11106033Y-14716484D02*
X11086985Y-14716484D01*
X11086985Y-14716484D02*
X11067937Y-14706960D01*
X11067937Y-14706960D02*
X11058414Y-14697436D01*
X11058414Y-14697436D02*
X11048890Y-14678388D01*
X11048890Y-14678388D02*
X11039366Y-14640293D01*
X11039366Y-14640293D02*
X11039366Y-14592674D01*
X11039366Y-14592674D02*
X11048890Y-14554579D01*
X11048890Y-14554579D02*
X11058414Y-14535531D01*
X11058414Y-14535531D02*
X11067937Y-14526008D01*
X11067937Y-14526008D02*
X11086985Y-14516484D01*
X11239366Y-14697436D02*
X11248890Y-14706960D01*
X11248890Y-14706960D02*
X11239366Y-14716484D01*
X11239366Y-14716484D02*
X11229842Y-14706960D01*
X11229842Y-14706960D02*
X11239366Y-14697436D01*
X11239366Y-14697436D02*
X11239366Y-14716484D01*
X11429842Y-14516484D02*
X11334604Y-14516484D01*
X11334604Y-14516484D02*
X11325080Y-14611722D01*
X11325080Y-14611722D02*
X11334604Y-14602198D01*
X11334604Y-14602198D02*
X11353652Y-14592674D01*
X11353652Y-14592674D02*
X11401271Y-14592674D01*
X11401271Y-14592674D02*
X11420318Y-14602198D01*
X11420318Y-14602198D02*
X11429842Y-14611722D01*
X11429842Y-14611722D02*
X11439366Y-14630769D01*
X11439366Y-14630769D02*
X11439366Y-14678388D01*
X11439366Y-14678388D02*
X11429842Y-14697436D01*
X11429842Y-14697436D02*
X11420318Y-14706960D01*
X11420318Y-14706960D02*
X11401271Y-14716484D01*
X11401271Y-14716484D02*
X11353652Y-14716484D01*
X11353652Y-14716484D02*
X11334604Y-14706960D01*
X11334604Y-14706960D02*
X11325080Y-14697436D01*
X11563175Y-14516484D02*
X11582223Y-14516484D01*
X11582223Y-14516484D02*
X11601271Y-14526008D01*
X11601271Y-14526008D02*
X11610794Y-14535531D01*
X11610794Y-14535531D02*
X11620318Y-14554579D01*
X11620318Y-14554579D02*
X11629842Y-14592674D01*
X11629842Y-14592674D02*
X11629842Y-14640293D01*
X11629842Y-14640293D02*
X11620318Y-14678388D01*
X11620318Y-14678388D02*
X11610794Y-14697436D01*
X11610794Y-14697436D02*
X11601271Y-14706960D01*
X11601271Y-14706960D02*
X11582223Y-14716484D01*
X11582223Y-14716484D02*
X11563175Y-14716484D01*
X11563175Y-14716484D02*
X11544128Y-14706960D01*
X11544128Y-14706960D02*
X11534604Y-14697436D01*
X11534604Y-14697436D02*
X11525080Y-14678388D01*
X11525080Y-14678388D02*
X11515556Y-14640293D01*
X11515556Y-14640293D02*
X11515556Y-14592674D01*
X11515556Y-14592674D02*
X11525080Y-14554579D01*
X11525080Y-14554579D02*
X11534604Y-14535531D01*
X11534604Y-14535531D02*
X11544128Y-14526008D01*
X11544128Y-14526008D02*
X11563175Y-14516484D01*
X11753652Y-14516484D02*
X11772699Y-14516484D01*
X11772699Y-14516484D02*
X11791747Y-14526008D01*
X11791747Y-14526008D02*
X11801271Y-14535531D01*
X11801271Y-14535531D02*
X11810794Y-14554579D01*
X11810794Y-14554579D02*
X11820318Y-14592674D01*
X11820318Y-14592674D02*
X11820318Y-14640293D01*
X11820318Y-14640293D02*
X11810794Y-14678388D01*
X11810794Y-14678388D02*
X11801271Y-14697436D01*
X11801271Y-14697436D02*
X11791747Y-14706960D01*
X11791747Y-14706960D02*
X11772699Y-14716484D01*
X11772699Y-14716484D02*
X11753652Y-14716484D01*
X11753652Y-14716484D02*
X11734604Y-14706960D01*
X11734604Y-14706960D02*
X11725080Y-14697436D01*
X11725080Y-14697436D02*
X11715556Y-14678388D01*
X11715556Y-14678388D02*
X11706033Y-14640293D01*
X11706033Y-14640293D02*
X11706033Y-14592674D01*
X11706033Y-14592674D02*
X11715556Y-14554579D01*
X11715556Y-14554579D02*
X11725080Y-14535531D01*
X11725080Y-14535531D02*
X11734604Y-14526008D01*
X11734604Y-14526008D02*
X11753652Y-14516484D01*
X11906033Y-14716484D02*
X11906033Y-14583150D01*
X11906033Y-14602198D02*
X11915556Y-14592674D01*
X11915556Y-14592674D02*
X11934604Y-14583150D01*
X11934604Y-14583150D02*
X11963175Y-14583150D01*
X11963175Y-14583150D02*
X11982223Y-14592674D01*
X11982223Y-14592674D02*
X11991747Y-14611722D01*
X11991747Y-14611722D02*
X11991747Y-14716484D01*
X11991747Y-14611722D02*
X12001271Y-14592674D01*
X12001271Y-14592674D02*
X12020318Y-14583150D01*
X12020318Y-14583150D02*
X12048890Y-14583150D01*
X12048890Y-14583150D02*
X12067937Y-14592674D01*
X12067937Y-14592674D02*
X12077461Y-14611722D01*
X12077461Y-14611722D02*
X12077461Y-14716484D01*
X12172699Y-14716484D02*
X12172699Y-14583150D01*
X12172699Y-14602198D02*
X12182223Y-14592674D01*
X12182223Y-14592674D02*
X12201271Y-14583150D01*
X12201271Y-14583150D02*
X12229842Y-14583150D01*
X12229842Y-14583150D02*
X12248890Y-14592674D01*
X12248890Y-14592674D02*
X12258414Y-14611722D01*
X12258414Y-14611722D02*
X12258414Y-14716484D01*
X12258414Y-14611722D02*
X12267937Y-14592674D01*
X12267937Y-14592674D02*
X12286985Y-14583150D01*
X12286985Y-14583150D02*
X12315556Y-14583150D01*
X12315556Y-14583150D02*
X12334604Y-14592674D01*
X12334604Y-14592674D02*
X12344128Y-14611722D01*
X12344128Y-14611722D02*
X12344128Y-14716484D01*
X12734604Y-14506960D02*
X12563176Y-14764103D01*
X12991747Y-14516484D02*
X13010795Y-14516484D01*
X13010795Y-14516484D02*
X13029842Y-14526008D01*
X13029842Y-14526008D02*
X13039366Y-14535531D01*
X13039366Y-14535531D02*
X13048890Y-14554579D01*
X13048890Y-14554579D02*
X13058414Y-14592674D01*
X13058414Y-14592674D02*
X13058414Y-14640293D01*
X13058414Y-14640293D02*
X13048890Y-14678388D01*
X13048890Y-14678388D02*
X13039366Y-14697436D01*
X13039366Y-14697436D02*
X13029842Y-14706960D01*
X13029842Y-14706960D02*
X13010795Y-14716484D01*
X13010795Y-14716484D02*
X12991747Y-14716484D01*
X12991747Y-14716484D02*
X12972699Y-14706960D01*
X12972699Y-14706960D02*
X12963176Y-14697436D01*
X12963176Y-14697436D02*
X12953652Y-14678388D01*
X12953652Y-14678388D02*
X12944128Y-14640293D01*
X12944128Y-14640293D02*
X12944128Y-14592674D01*
X12944128Y-14592674D02*
X12953652Y-14554579D01*
X12953652Y-14554579D02*
X12963176Y-14535531D01*
X12963176Y-14535531D02*
X12972699Y-14526008D01*
X12972699Y-14526008D02*
X12991747Y-14516484D01*
X13144128Y-14697436D02*
X13153652Y-14706960D01*
X13153652Y-14706960D02*
X13144128Y-14716484D01*
X13144128Y-14716484D02*
X13134604Y-14706960D01*
X13134604Y-14706960D02*
X13144128Y-14697436D01*
X13144128Y-14697436D02*
X13144128Y-14716484D01*
X13277461Y-14516484D02*
X13296509Y-14516484D01*
X13296509Y-14516484D02*
X13315557Y-14526008D01*
X13315557Y-14526008D02*
X13325080Y-14535531D01*
X13325080Y-14535531D02*
X13334604Y-14554579D01*
X13334604Y-14554579D02*
X13344128Y-14592674D01*
X13344128Y-14592674D02*
X13344128Y-14640293D01*
X13344128Y-14640293D02*
X13334604Y-14678388D01*
X13334604Y-14678388D02*
X13325080Y-14697436D01*
X13325080Y-14697436D02*
X13315557Y-14706960D01*
X13315557Y-14706960D02*
X13296509Y-14716484D01*
X13296509Y-14716484D02*
X13277461Y-14716484D01*
X13277461Y-14716484D02*
X13258414Y-14706960D01*
X13258414Y-14706960D02*
X13248890Y-14697436D01*
X13248890Y-14697436D02*
X13239366Y-14678388D01*
X13239366Y-14678388D02*
X13229842Y-14640293D01*
X13229842Y-14640293D02*
X13229842Y-14592674D01*
X13229842Y-14592674D02*
X13239366Y-14554579D01*
X13239366Y-14554579D02*
X13248890Y-14535531D01*
X13248890Y-14535531D02*
X13258414Y-14526008D01*
X13258414Y-14526008D02*
X13277461Y-14516484D01*
X13534604Y-14716484D02*
X13420318Y-14716484D01*
X13477461Y-14716484D02*
X13477461Y-14516484D01*
X13477461Y-14516484D02*
X13458414Y-14545055D01*
X13458414Y-14545055D02*
X13439366Y-14564103D01*
X13439366Y-14564103D02*
X13420318Y-14573627D01*
X13629842Y-14716484D02*
X13667937Y-14716484D01*
X13667937Y-14716484D02*
X13686985Y-14706960D01*
X13686985Y-14706960D02*
X13696509Y-14697436D01*
X13696509Y-14697436D02*
X13715557Y-14668865D01*
X13715557Y-14668865D02*
X13725080Y-14630769D01*
X13725080Y-14630769D02*
X13725080Y-14554579D01*
X13725080Y-14554579D02*
X13715557Y-14535531D01*
X13715557Y-14535531D02*
X13706033Y-14526008D01*
X13706033Y-14526008D02*
X13686985Y-14516484D01*
X13686985Y-14516484D02*
X13648890Y-14516484D01*
X13648890Y-14516484D02*
X13629842Y-14526008D01*
X13629842Y-14526008D02*
X13620318Y-14535531D01*
X13620318Y-14535531D02*
X13610795Y-14554579D01*
X13610795Y-14554579D02*
X13610795Y-14602198D01*
X13610795Y-14602198D02*
X13620318Y-14621246D01*
X13620318Y-14621246D02*
X13629842Y-14630769D01*
X13629842Y-14630769D02*
X13648890Y-14640293D01*
X13648890Y-14640293D02*
X13686985Y-14640293D01*
X13686985Y-14640293D02*
X13706033Y-14630769D01*
X13706033Y-14630769D02*
X13715557Y-14621246D01*
X13715557Y-14621246D02*
X13725080Y-14602198D01*
X13791747Y-14516484D02*
X13925080Y-14516484D01*
X13925080Y-14516484D02*
X13839366Y-14716484D01*
X13991747Y-14516484D02*
X13991747Y-14554579D01*
X14067938Y-14516484D02*
X14067938Y-14554579D01*
X14363176Y-14792674D02*
X14353652Y-14783150D01*
X14353652Y-14783150D02*
X14334604Y-14754579D01*
X14334604Y-14754579D02*
X14325080Y-14735531D01*
X14325080Y-14735531D02*
X14315557Y-14706960D01*
X14315557Y-14706960D02*
X14306033Y-14659341D01*
X14306033Y-14659341D02*
X14306033Y-14621246D01*
X14306033Y-14621246D02*
X14315557Y-14573627D01*
X14315557Y-14573627D02*
X14325080Y-14545055D01*
X14325080Y-14545055D02*
X14334604Y-14526008D01*
X14334604Y-14526008D02*
X14353652Y-14497436D01*
X14353652Y-14497436D02*
X14363176Y-14487912D01*
X14448890Y-14716484D02*
X14486985Y-14716484D01*
X14486985Y-14716484D02*
X14506033Y-14706960D01*
X14506033Y-14706960D02*
X14515557Y-14697436D01*
X14515557Y-14697436D02*
X14534604Y-14668865D01*
X14534604Y-14668865D02*
X14544128Y-14630769D01*
X14544128Y-14630769D02*
X14544128Y-14554579D01*
X14544128Y-14554579D02*
X14534604Y-14535531D01*
X14534604Y-14535531D02*
X14525080Y-14526008D01*
X14525080Y-14526008D02*
X14506033Y-14516484D01*
X14506033Y-14516484D02*
X14467938Y-14516484D01*
X14467938Y-14516484D02*
X14448890Y-14526008D01*
X14448890Y-14526008D02*
X14439366Y-14535531D01*
X14439366Y-14535531D02*
X14429842Y-14554579D01*
X14429842Y-14554579D02*
X14429842Y-14602198D01*
X14429842Y-14602198D02*
X14439366Y-14621246D01*
X14439366Y-14621246D02*
X14448890Y-14630769D01*
X14448890Y-14630769D02*
X14467938Y-14640293D01*
X14467938Y-14640293D02*
X14506033Y-14640293D01*
X14506033Y-14640293D02*
X14525080Y-14630769D01*
X14525080Y-14630769D02*
X14534604Y-14621246D01*
X14534604Y-14621246D02*
X14544128Y-14602198D01*
X14782223Y-14716484D02*
X14782223Y-14516484D01*
X14867938Y-14716484D02*
X14867938Y-14611722D01*
X14867938Y-14611722D02*
X14858414Y-14592674D01*
X14858414Y-14592674D02*
X14839366Y-14583150D01*
X14839366Y-14583150D02*
X14810795Y-14583150D01*
X14810795Y-14583150D02*
X14791747Y-14592674D01*
X14791747Y-14592674D02*
X14782223Y-14602198D01*
X14991747Y-14716484D02*
X14972700Y-14706960D01*
X14972700Y-14706960D02*
X14963176Y-14697436D01*
X14963176Y-14697436D02*
X14953652Y-14678388D01*
X14953652Y-14678388D02*
X14953652Y-14621246D01*
X14953652Y-14621246D02*
X14963176Y-14602198D01*
X14963176Y-14602198D02*
X14972700Y-14592674D01*
X14972700Y-14592674D02*
X14991747Y-14583150D01*
X14991747Y-14583150D02*
X15020319Y-14583150D01*
X15020319Y-14583150D02*
X15039366Y-14592674D01*
X15039366Y-14592674D02*
X15048890Y-14602198D01*
X15048890Y-14602198D02*
X15058414Y-14621246D01*
X15058414Y-14621246D02*
X15058414Y-14678388D01*
X15058414Y-14678388D02*
X15048890Y-14697436D01*
X15048890Y-14697436D02*
X15039366Y-14706960D01*
X15039366Y-14706960D02*
X15020319Y-14716484D01*
X15020319Y-14716484D02*
X14991747Y-14716484D01*
X15172700Y-14716484D02*
X15153652Y-14706960D01*
X15153652Y-14706960D02*
X15144128Y-14687912D01*
X15144128Y-14687912D02*
X15144128Y-14516484D01*
X15325081Y-14706960D02*
X15306033Y-14716484D01*
X15306033Y-14716484D02*
X15267938Y-14716484D01*
X15267938Y-14716484D02*
X15248890Y-14706960D01*
X15248890Y-14706960D02*
X15239366Y-14687912D01*
X15239366Y-14687912D02*
X15239366Y-14611722D01*
X15239366Y-14611722D02*
X15248890Y-14592674D01*
X15248890Y-14592674D02*
X15267938Y-14583150D01*
X15267938Y-14583150D02*
X15306033Y-14583150D01*
X15306033Y-14583150D02*
X15325081Y-14592674D01*
X15325081Y-14592674D02*
X15334604Y-14611722D01*
X15334604Y-14611722D02*
X15334604Y-14630769D01*
X15334604Y-14630769D02*
X15239366Y-14649817D01*
X15410795Y-14706960D02*
X15429842Y-14716484D01*
X15429842Y-14716484D02*
X15467938Y-14716484D01*
X15467938Y-14716484D02*
X15486985Y-14706960D01*
X15486985Y-14706960D02*
X15496509Y-14687912D01*
X15496509Y-14687912D02*
X15496509Y-14678388D01*
X15496509Y-14678388D02*
X15486985Y-14659341D01*
X15486985Y-14659341D02*
X15467938Y-14649817D01*
X15467938Y-14649817D02*
X15439366Y-14649817D01*
X15439366Y-14649817D02*
X15420319Y-14640293D01*
X15420319Y-14640293D02*
X15410795Y-14621246D01*
X15410795Y-14621246D02*
X15410795Y-14611722D01*
X15410795Y-14611722D02*
X15420319Y-14592674D01*
X15420319Y-14592674D02*
X15439366Y-14583150D01*
X15439366Y-14583150D02*
X15467938Y-14583150D01*
X15467938Y-14583150D02*
X15486985Y-14592674D01*
X15563176Y-14792674D02*
X15572700Y-14783150D01*
X15572700Y-14783150D02*
X15591747Y-14754579D01*
X15591747Y-14754579D02*
X15601271Y-14735531D01*
X15601271Y-14735531D02*
X15610795Y-14706960D01*
X15610795Y-14706960D02*
X15620319Y-14659341D01*
X15620319Y-14659341D02*
X15620319Y-14621246D01*
X15620319Y-14621246D02*
X15610795Y-14573627D01*
X15610795Y-14573627D02*
X15601271Y-14545055D01*
X15601271Y-14545055D02*
X15591747Y-14526008D01*
X15591747Y-14526008D02*
X15572700Y-14497436D01*
X15572700Y-14497436D02*
X15563176Y-14487912D01*
D10*
X10743113Y-14844000D02*
X10743113Y-14934000D01*
X10698113Y-14889000D02*
X10788113Y-14889000D01*
D11*
X11086985Y-14780484D02*
X11106033Y-14780484D01*
X11106033Y-14780484D02*
X11125080Y-14790008D01*
X11125080Y-14790008D02*
X11134604Y-14799531D01*
X11134604Y-14799531D02*
X11144128Y-14818579D01*
X11144128Y-14818579D02*
X11153652Y-14856674D01*
X11153652Y-14856674D02*
X11153652Y-14904293D01*
X11153652Y-14904293D02*
X11144128Y-14942388D01*
X11144128Y-14942388D02*
X11134604Y-14961436D01*
X11134604Y-14961436D02*
X11125080Y-14970960D01*
X11125080Y-14970960D02*
X11106033Y-14980484D01*
X11106033Y-14980484D02*
X11086985Y-14980484D01*
X11086985Y-14980484D02*
X11067937Y-14970960D01*
X11067937Y-14970960D02*
X11058414Y-14961436D01*
X11058414Y-14961436D02*
X11048890Y-14942388D01*
X11048890Y-14942388D02*
X11039366Y-14904293D01*
X11039366Y-14904293D02*
X11039366Y-14856674D01*
X11039366Y-14856674D02*
X11048890Y-14818579D01*
X11048890Y-14818579D02*
X11058414Y-14799531D01*
X11058414Y-14799531D02*
X11067937Y-14790008D01*
X11067937Y-14790008D02*
X11086985Y-14780484D01*
X11239366Y-14961436D02*
X11248890Y-14970960D01*
X11248890Y-14970960D02*
X11239366Y-14980484D01*
X11239366Y-14980484D02*
X11229842Y-14970960D01*
X11229842Y-14970960D02*
X11239366Y-14961436D01*
X11239366Y-14961436D02*
X11239366Y-14980484D01*
X11344128Y-14980484D02*
X11382223Y-14980484D01*
X11382223Y-14980484D02*
X11401271Y-14970960D01*
X11401271Y-14970960D02*
X11410794Y-14961436D01*
X11410794Y-14961436D02*
X11429842Y-14932865D01*
X11429842Y-14932865D02*
X11439366Y-14894769D01*
X11439366Y-14894769D02*
X11439366Y-14818579D01*
X11439366Y-14818579D02*
X11429842Y-14799531D01*
X11429842Y-14799531D02*
X11420318Y-14790008D01*
X11420318Y-14790008D02*
X11401271Y-14780484D01*
X11401271Y-14780484D02*
X11363175Y-14780484D01*
X11363175Y-14780484D02*
X11344128Y-14790008D01*
X11344128Y-14790008D02*
X11334604Y-14799531D01*
X11334604Y-14799531D02*
X11325080Y-14818579D01*
X11325080Y-14818579D02*
X11325080Y-14866198D01*
X11325080Y-14866198D02*
X11334604Y-14885246D01*
X11334604Y-14885246D02*
X11344128Y-14894769D01*
X11344128Y-14894769D02*
X11363175Y-14904293D01*
X11363175Y-14904293D02*
X11401271Y-14904293D01*
X11401271Y-14904293D02*
X11420318Y-14894769D01*
X11420318Y-14894769D02*
X11429842Y-14885246D01*
X11429842Y-14885246D02*
X11439366Y-14866198D01*
X11563175Y-14780484D02*
X11582223Y-14780484D01*
X11582223Y-14780484D02*
X11601271Y-14790008D01*
X11601271Y-14790008D02*
X11610794Y-14799531D01*
X11610794Y-14799531D02*
X11620318Y-14818579D01*
X11620318Y-14818579D02*
X11629842Y-14856674D01*
X11629842Y-14856674D02*
X11629842Y-14904293D01*
X11629842Y-14904293D02*
X11620318Y-14942388D01*
X11620318Y-14942388D02*
X11610794Y-14961436D01*
X11610794Y-14961436D02*
X11601271Y-14970960D01*
X11601271Y-14970960D02*
X11582223Y-14980484D01*
X11582223Y-14980484D02*
X11563175Y-14980484D01*
X11563175Y-14980484D02*
X11544128Y-14970960D01*
X11544128Y-14970960D02*
X11534604Y-14961436D01*
X11534604Y-14961436D02*
X11525080Y-14942388D01*
X11525080Y-14942388D02*
X11515556Y-14904293D01*
X11515556Y-14904293D02*
X11515556Y-14856674D01*
X11515556Y-14856674D02*
X11525080Y-14818579D01*
X11525080Y-14818579D02*
X11534604Y-14799531D01*
X11534604Y-14799531D02*
X11544128Y-14790008D01*
X11544128Y-14790008D02*
X11563175Y-14780484D01*
X11753652Y-14780484D02*
X11772699Y-14780484D01*
X11772699Y-14780484D02*
X11791747Y-14790008D01*
X11791747Y-14790008D02*
X11801271Y-14799531D01*
X11801271Y-14799531D02*
X11810794Y-14818579D01*
X11810794Y-14818579D02*
X11820318Y-14856674D01*
X11820318Y-14856674D02*
X11820318Y-14904293D01*
X11820318Y-14904293D02*
X11810794Y-14942388D01*
X11810794Y-14942388D02*
X11801271Y-14961436D01*
X11801271Y-14961436D02*
X11791747Y-14970960D01*
X11791747Y-14970960D02*
X11772699Y-14980484D01*
X11772699Y-14980484D02*
X11753652Y-14980484D01*
X11753652Y-14980484D02*
X11734604Y-14970960D01*
X11734604Y-14970960D02*
X11725080Y-14961436D01*
X11725080Y-14961436D02*
X11715556Y-14942388D01*
X11715556Y-14942388D02*
X11706033Y-14904293D01*
X11706033Y-14904293D02*
X11706033Y-14856674D01*
X11706033Y-14856674D02*
X11715556Y-14818579D01*
X11715556Y-14818579D02*
X11725080Y-14799531D01*
X11725080Y-14799531D02*
X11734604Y-14790008D01*
X11734604Y-14790008D02*
X11753652Y-14780484D01*
X11906033Y-14980484D02*
X11906033Y-14847150D01*
X11906033Y-14866198D02*
X11915556Y-14856674D01*
X11915556Y-14856674D02*
X11934604Y-14847150D01*
X11934604Y-14847150D02*
X11963175Y-14847150D01*
X11963175Y-14847150D02*
X11982223Y-14856674D01*
X11982223Y-14856674D02*
X11991747Y-14875722D01*
X11991747Y-14875722D02*
X11991747Y-14980484D01*
X11991747Y-14875722D02*
X12001271Y-14856674D01*
X12001271Y-14856674D02*
X12020318Y-14847150D01*
X12020318Y-14847150D02*
X12048890Y-14847150D01*
X12048890Y-14847150D02*
X12067937Y-14856674D01*
X12067937Y-14856674D02*
X12077461Y-14875722D01*
X12077461Y-14875722D02*
X12077461Y-14980484D01*
X12172699Y-14980484D02*
X12172699Y-14847150D01*
X12172699Y-14866198D02*
X12182223Y-14856674D01*
X12182223Y-14856674D02*
X12201271Y-14847150D01*
X12201271Y-14847150D02*
X12229842Y-14847150D01*
X12229842Y-14847150D02*
X12248890Y-14856674D01*
X12248890Y-14856674D02*
X12258414Y-14875722D01*
X12258414Y-14875722D02*
X12258414Y-14980484D01*
X12258414Y-14875722D02*
X12267937Y-14856674D01*
X12267937Y-14856674D02*
X12286985Y-14847150D01*
X12286985Y-14847150D02*
X12315556Y-14847150D01*
X12315556Y-14847150D02*
X12334604Y-14856674D01*
X12334604Y-14856674D02*
X12344128Y-14875722D01*
X12344128Y-14875722D02*
X12344128Y-14980484D01*
X12734604Y-14770960D02*
X12563176Y-15028103D01*
X12991747Y-14780484D02*
X13010795Y-14780484D01*
X13010795Y-14780484D02*
X13029842Y-14790008D01*
X13029842Y-14790008D02*
X13039366Y-14799531D01*
X13039366Y-14799531D02*
X13048890Y-14818579D01*
X13048890Y-14818579D02*
X13058414Y-14856674D01*
X13058414Y-14856674D02*
X13058414Y-14904293D01*
X13058414Y-14904293D02*
X13048890Y-14942388D01*
X13048890Y-14942388D02*
X13039366Y-14961436D01*
X13039366Y-14961436D02*
X13029842Y-14970960D01*
X13029842Y-14970960D02*
X13010795Y-14980484D01*
X13010795Y-14980484D02*
X12991747Y-14980484D01*
X12991747Y-14980484D02*
X12972699Y-14970960D01*
X12972699Y-14970960D02*
X12963176Y-14961436D01*
X12963176Y-14961436D02*
X12953652Y-14942388D01*
X12953652Y-14942388D02*
X12944128Y-14904293D01*
X12944128Y-14904293D02*
X12944128Y-14856674D01*
X12944128Y-14856674D02*
X12953652Y-14818579D01*
X12953652Y-14818579D02*
X12963176Y-14799531D01*
X12963176Y-14799531D02*
X12972699Y-14790008D01*
X12972699Y-14790008D02*
X12991747Y-14780484D01*
X13144128Y-14961436D02*
X13153652Y-14970960D01*
X13153652Y-14970960D02*
X13144128Y-14980484D01*
X13144128Y-14980484D02*
X13134604Y-14970960D01*
X13134604Y-14970960D02*
X13144128Y-14961436D01*
X13144128Y-14961436D02*
X13144128Y-14980484D01*
X13277461Y-14780484D02*
X13296509Y-14780484D01*
X13296509Y-14780484D02*
X13315557Y-14790008D01*
X13315557Y-14790008D02*
X13325080Y-14799531D01*
X13325080Y-14799531D02*
X13334604Y-14818579D01*
X13334604Y-14818579D02*
X13344128Y-14856674D01*
X13344128Y-14856674D02*
X13344128Y-14904293D01*
X13344128Y-14904293D02*
X13334604Y-14942388D01*
X13334604Y-14942388D02*
X13325080Y-14961436D01*
X13325080Y-14961436D02*
X13315557Y-14970960D01*
X13315557Y-14970960D02*
X13296509Y-14980484D01*
X13296509Y-14980484D02*
X13277461Y-14980484D01*
X13277461Y-14980484D02*
X13258414Y-14970960D01*
X13258414Y-14970960D02*
X13248890Y-14961436D01*
X13248890Y-14961436D02*
X13239366Y-14942388D01*
X13239366Y-14942388D02*
X13229842Y-14904293D01*
X13229842Y-14904293D02*
X13229842Y-14856674D01*
X13229842Y-14856674D02*
X13239366Y-14818579D01*
X13239366Y-14818579D02*
X13248890Y-14799531D01*
X13248890Y-14799531D02*
X13258414Y-14790008D01*
X13258414Y-14790008D02*
X13277461Y-14780484D01*
X13410795Y-14780484D02*
X13534604Y-14780484D01*
X13534604Y-14780484D02*
X13467937Y-14856674D01*
X13467937Y-14856674D02*
X13496509Y-14856674D01*
X13496509Y-14856674D02*
X13515557Y-14866198D01*
X13515557Y-14866198D02*
X13525080Y-14875722D01*
X13525080Y-14875722D02*
X13534604Y-14894769D01*
X13534604Y-14894769D02*
X13534604Y-14942388D01*
X13534604Y-14942388D02*
X13525080Y-14961436D01*
X13525080Y-14961436D02*
X13515557Y-14970960D01*
X13515557Y-14970960D02*
X13496509Y-14980484D01*
X13496509Y-14980484D02*
X13439366Y-14980484D01*
X13439366Y-14980484D02*
X13420318Y-14970960D01*
X13420318Y-14970960D02*
X13410795Y-14961436D01*
X13715557Y-14780484D02*
X13620318Y-14780484D01*
X13620318Y-14780484D02*
X13610795Y-14875722D01*
X13610795Y-14875722D02*
X13620318Y-14866198D01*
X13620318Y-14866198D02*
X13639366Y-14856674D01*
X13639366Y-14856674D02*
X13686985Y-14856674D01*
X13686985Y-14856674D02*
X13706033Y-14866198D01*
X13706033Y-14866198D02*
X13715557Y-14875722D01*
X13715557Y-14875722D02*
X13725080Y-14894769D01*
X13725080Y-14894769D02*
X13725080Y-14942388D01*
X13725080Y-14942388D02*
X13715557Y-14961436D01*
X13715557Y-14961436D02*
X13706033Y-14970960D01*
X13706033Y-14970960D02*
X13686985Y-14980484D01*
X13686985Y-14980484D02*
X13639366Y-14980484D01*
X13639366Y-14980484D02*
X13620318Y-14970960D01*
X13620318Y-14970960D02*
X13610795Y-14961436D01*
X13896509Y-14847150D02*
X13896509Y-14980484D01*
X13848890Y-14770960D02*
X13801271Y-14913817D01*
X13801271Y-14913817D02*
X13925080Y-14913817D01*
X13991747Y-14780484D02*
X13991747Y-14818579D01*
X14067938Y-14780484D02*
X14067938Y-14818579D01*
X14363176Y-15056674D02*
X14353652Y-15047150D01*
X14353652Y-15047150D02*
X14334604Y-15018579D01*
X14334604Y-15018579D02*
X14325080Y-14999531D01*
X14325080Y-14999531D02*
X14315557Y-14970960D01*
X14315557Y-14970960D02*
X14306033Y-14923341D01*
X14306033Y-14923341D02*
X14306033Y-14885246D01*
X14306033Y-14885246D02*
X14315557Y-14837627D01*
X14315557Y-14837627D02*
X14325080Y-14809055D01*
X14325080Y-14809055D02*
X14334604Y-14790008D01*
X14334604Y-14790008D02*
X14353652Y-14761436D01*
X14353652Y-14761436D02*
X14363176Y-14751912D01*
X14525080Y-14847150D02*
X14525080Y-14980484D01*
X14477461Y-14770960D02*
X14429842Y-14913817D01*
X14429842Y-14913817D02*
X14553652Y-14913817D01*
X14725080Y-14780484D02*
X14629842Y-14780484D01*
X14629842Y-14780484D02*
X14620319Y-14875722D01*
X14620319Y-14875722D02*
X14629842Y-14866198D01*
X14629842Y-14866198D02*
X14648890Y-14856674D01*
X14648890Y-14856674D02*
X14696509Y-14856674D01*
X14696509Y-14856674D02*
X14715557Y-14866198D01*
X14715557Y-14866198D02*
X14725080Y-14875722D01*
X14725080Y-14875722D02*
X14734604Y-14894769D01*
X14734604Y-14894769D02*
X14734604Y-14942388D01*
X14734604Y-14942388D02*
X14725080Y-14961436D01*
X14725080Y-14961436D02*
X14715557Y-14970960D01*
X14715557Y-14970960D02*
X14696509Y-14980484D01*
X14696509Y-14980484D02*
X14648890Y-14980484D01*
X14648890Y-14980484D02*
X14629842Y-14970960D01*
X14629842Y-14970960D02*
X14620319Y-14961436D01*
X14972700Y-14980484D02*
X14972700Y-14780484D01*
X15058414Y-14980484D02*
X15058414Y-14875722D01*
X15058414Y-14875722D02*
X15048890Y-14856674D01*
X15048890Y-14856674D02*
X15029842Y-14847150D01*
X15029842Y-14847150D02*
X15001271Y-14847150D01*
X15001271Y-14847150D02*
X14982223Y-14856674D01*
X14982223Y-14856674D02*
X14972700Y-14866198D01*
X15182223Y-14980484D02*
X15163176Y-14970960D01*
X15163176Y-14970960D02*
X15153652Y-14961436D01*
X15153652Y-14961436D02*
X15144128Y-14942388D01*
X15144128Y-14942388D02*
X15144128Y-14885246D01*
X15144128Y-14885246D02*
X15153652Y-14866198D01*
X15153652Y-14866198D02*
X15163176Y-14856674D01*
X15163176Y-14856674D02*
X15182223Y-14847150D01*
X15182223Y-14847150D02*
X15210795Y-14847150D01*
X15210795Y-14847150D02*
X15229842Y-14856674D01*
X15229842Y-14856674D02*
X15239366Y-14866198D01*
X15239366Y-14866198D02*
X15248890Y-14885246D01*
X15248890Y-14885246D02*
X15248890Y-14942388D01*
X15248890Y-14942388D02*
X15239366Y-14961436D01*
X15239366Y-14961436D02*
X15229842Y-14970960D01*
X15229842Y-14970960D02*
X15210795Y-14980484D01*
X15210795Y-14980484D02*
X15182223Y-14980484D01*
X15363176Y-14980484D02*
X15344128Y-14970960D01*
X15344128Y-14970960D02*
X15334604Y-14951912D01*
X15334604Y-14951912D02*
X15334604Y-14780484D01*
X15515557Y-14970960D02*
X15496509Y-14980484D01*
X15496509Y-14980484D02*
X15458414Y-14980484D01*
X15458414Y-14980484D02*
X15439366Y-14970960D01*
X15439366Y-14970960D02*
X15429842Y-14951912D01*
X15429842Y-14951912D02*
X15429842Y-14875722D01*
X15429842Y-14875722D02*
X15439366Y-14856674D01*
X15439366Y-14856674D02*
X15458414Y-14847150D01*
X15458414Y-14847150D02*
X15496509Y-14847150D01*
X15496509Y-14847150D02*
X15515557Y-14856674D01*
X15515557Y-14856674D02*
X15525081Y-14875722D01*
X15525081Y-14875722D02*
X15525081Y-14894769D01*
X15525081Y-14894769D02*
X15429842Y-14913817D01*
X15601271Y-14970960D02*
X15620319Y-14980484D01*
X15620319Y-14980484D02*
X15658414Y-14980484D01*
X15658414Y-14980484D02*
X15677462Y-14970960D01*
X15677462Y-14970960D02*
X15686985Y-14951912D01*
X15686985Y-14951912D02*
X15686985Y-14942388D01*
X15686985Y-14942388D02*
X15677462Y-14923341D01*
X15677462Y-14923341D02*
X15658414Y-14913817D01*
X15658414Y-14913817D02*
X15629842Y-14913817D01*
X15629842Y-14913817D02*
X15610795Y-14904293D01*
X15610795Y-14904293D02*
X15601271Y-14885246D01*
X15601271Y-14885246D02*
X15601271Y-14875722D01*
X15601271Y-14875722D02*
X15610795Y-14856674D01*
X15610795Y-14856674D02*
X15629842Y-14847150D01*
X15629842Y-14847150D02*
X15658414Y-14847150D01*
X15658414Y-14847150D02*
X15677462Y-14856674D01*
X15753652Y-15056674D02*
X15763176Y-15047150D01*
X15763176Y-15047150D02*
X15782223Y-15018579D01*
X15782223Y-15018579D02*
X15791747Y-14999531D01*
X15791747Y-14999531D02*
X15801271Y-14970960D01*
X15801271Y-14970960D02*
X15810795Y-14923341D01*
X15810795Y-14923341D02*
X15810795Y-14885246D01*
X15810795Y-14885246D02*
X15801271Y-14837627D01*
X15801271Y-14837627D02*
X15791747Y-14809055D01*
X15791747Y-14809055D02*
X15782223Y-14790008D01*
X15782223Y-14790008D02*
X15763176Y-14761436D01*
X15763176Y-14761436D02*
X15753652Y-14751912D01*
D10*
X10773469Y-15188356D02*
X10773469Y-15117644D01*
X10702757Y-15117644D01*
X10702757Y-15188356D01*
X10773469Y-15188356D01*
D11*
X11153652Y-15244484D02*
X11039366Y-15244484D01*
X11096509Y-15244484D02*
X11096509Y-15044484D01*
X11096509Y-15044484D02*
X11077461Y-15073055D01*
X11077461Y-15073055D02*
X11058414Y-15092103D01*
X11058414Y-15092103D02*
X11039366Y-15101627D01*
X11239366Y-15225436D02*
X11248890Y-15234960D01*
X11248890Y-15234960D02*
X11239366Y-15244484D01*
X11239366Y-15244484D02*
X11229842Y-15234960D01*
X11229842Y-15234960D02*
X11239366Y-15225436D01*
X11239366Y-15225436D02*
X11239366Y-15244484D01*
X11372699Y-15044484D02*
X11391747Y-15044484D01*
X11391747Y-15044484D02*
X11410794Y-15054008D01*
X11410794Y-15054008D02*
X11420318Y-15063531D01*
X11420318Y-15063531D02*
X11429842Y-15082579D01*
X11429842Y-15082579D02*
X11439366Y-15120674D01*
X11439366Y-15120674D02*
X11439366Y-15168293D01*
X11439366Y-15168293D02*
X11429842Y-15206388D01*
X11429842Y-15206388D02*
X11420318Y-15225436D01*
X11420318Y-15225436D02*
X11410794Y-15234960D01*
X11410794Y-15234960D02*
X11391747Y-15244484D01*
X11391747Y-15244484D02*
X11372699Y-15244484D01*
X11372699Y-15244484D02*
X11353652Y-15234960D01*
X11353652Y-15234960D02*
X11344128Y-15225436D01*
X11344128Y-15225436D02*
X11334604Y-15206388D01*
X11334604Y-15206388D02*
X11325080Y-15168293D01*
X11325080Y-15168293D02*
X11325080Y-15120674D01*
X11325080Y-15120674D02*
X11334604Y-15082579D01*
X11334604Y-15082579D02*
X11344128Y-15063531D01*
X11344128Y-15063531D02*
X11353652Y-15054008D01*
X11353652Y-15054008D02*
X11372699Y-15044484D01*
X11563175Y-15044484D02*
X11582223Y-15044484D01*
X11582223Y-15044484D02*
X11601271Y-15054008D01*
X11601271Y-15054008D02*
X11610794Y-15063531D01*
X11610794Y-15063531D02*
X11620318Y-15082579D01*
X11620318Y-15082579D02*
X11629842Y-15120674D01*
X11629842Y-15120674D02*
X11629842Y-15168293D01*
X11629842Y-15168293D02*
X11620318Y-15206388D01*
X11620318Y-15206388D02*
X11610794Y-15225436D01*
X11610794Y-15225436D02*
X11601271Y-15234960D01*
X11601271Y-15234960D02*
X11582223Y-15244484D01*
X11582223Y-15244484D02*
X11563175Y-15244484D01*
X11563175Y-15244484D02*
X11544128Y-15234960D01*
X11544128Y-15234960D02*
X11534604Y-15225436D01*
X11534604Y-15225436D02*
X11525080Y-15206388D01*
X11525080Y-15206388D02*
X11515556Y-15168293D01*
X11515556Y-15168293D02*
X11515556Y-15120674D01*
X11515556Y-15120674D02*
X11525080Y-15082579D01*
X11525080Y-15082579D02*
X11534604Y-15063531D01*
X11534604Y-15063531D02*
X11544128Y-15054008D01*
X11544128Y-15054008D02*
X11563175Y-15044484D01*
X11753652Y-15044484D02*
X11772699Y-15044484D01*
X11772699Y-15044484D02*
X11791747Y-15054008D01*
X11791747Y-15054008D02*
X11801271Y-15063531D01*
X11801271Y-15063531D02*
X11810794Y-15082579D01*
X11810794Y-15082579D02*
X11820318Y-15120674D01*
X11820318Y-15120674D02*
X11820318Y-15168293D01*
X11820318Y-15168293D02*
X11810794Y-15206388D01*
X11810794Y-15206388D02*
X11801271Y-15225436D01*
X11801271Y-15225436D02*
X11791747Y-15234960D01*
X11791747Y-15234960D02*
X11772699Y-15244484D01*
X11772699Y-15244484D02*
X11753652Y-15244484D01*
X11753652Y-15244484D02*
X11734604Y-15234960D01*
X11734604Y-15234960D02*
X11725080Y-15225436D01*
X11725080Y-15225436D02*
X11715556Y-15206388D01*
X11715556Y-15206388D02*
X11706033Y-15168293D01*
X11706033Y-15168293D02*
X11706033Y-15120674D01*
X11706033Y-15120674D02*
X11715556Y-15082579D01*
X11715556Y-15082579D02*
X11725080Y-15063531D01*
X11725080Y-15063531D02*
X11734604Y-15054008D01*
X11734604Y-15054008D02*
X11753652Y-15044484D01*
X11906033Y-15244484D02*
X11906033Y-15111150D01*
X11906033Y-15130198D02*
X11915556Y-15120674D01*
X11915556Y-15120674D02*
X11934604Y-15111150D01*
X11934604Y-15111150D02*
X11963175Y-15111150D01*
X11963175Y-15111150D02*
X11982223Y-15120674D01*
X11982223Y-15120674D02*
X11991747Y-15139722D01*
X11991747Y-15139722D02*
X11991747Y-15244484D01*
X11991747Y-15139722D02*
X12001271Y-15120674D01*
X12001271Y-15120674D02*
X12020318Y-15111150D01*
X12020318Y-15111150D02*
X12048890Y-15111150D01*
X12048890Y-15111150D02*
X12067937Y-15120674D01*
X12067937Y-15120674D02*
X12077461Y-15139722D01*
X12077461Y-15139722D02*
X12077461Y-15244484D01*
X12172699Y-15244484D02*
X12172699Y-15111150D01*
X12172699Y-15130198D02*
X12182223Y-15120674D01*
X12182223Y-15120674D02*
X12201271Y-15111150D01*
X12201271Y-15111150D02*
X12229842Y-15111150D01*
X12229842Y-15111150D02*
X12248890Y-15120674D01*
X12248890Y-15120674D02*
X12258414Y-15139722D01*
X12258414Y-15139722D02*
X12258414Y-15244484D01*
X12258414Y-15139722D02*
X12267937Y-15120674D01*
X12267937Y-15120674D02*
X12286985Y-15111150D01*
X12286985Y-15111150D02*
X12315556Y-15111150D01*
X12315556Y-15111150D02*
X12334604Y-15120674D01*
X12334604Y-15120674D02*
X12344128Y-15139722D01*
X12344128Y-15139722D02*
X12344128Y-15244484D01*
X12734604Y-15034960D02*
X12563176Y-15292103D01*
X12991747Y-15044484D02*
X13010795Y-15044484D01*
X13010795Y-15044484D02*
X13029842Y-15054008D01*
X13029842Y-15054008D02*
X13039366Y-15063531D01*
X13039366Y-15063531D02*
X13048890Y-15082579D01*
X13048890Y-15082579D02*
X13058414Y-15120674D01*
X13058414Y-15120674D02*
X13058414Y-15168293D01*
X13058414Y-15168293D02*
X13048890Y-15206388D01*
X13048890Y-15206388D02*
X13039366Y-15225436D01*
X13039366Y-15225436D02*
X13029842Y-15234960D01*
X13029842Y-15234960D02*
X13010795Y-15244484D01*
X13010795Y-15244484D02*
X12991747Y-15244484D01*
X12991747Y-15244484D02*
X12972699Y-15234960D01*
X12972699Y-15234960D02*
X12963176Y-15225436D01*
X12963176Y-15225436D02*
X12953652Y-15206388D01*
X12953652Y-15206388D02*
X12944128Y-15168293D01*
X12944128Y-15168293D02*
X12944128Y-15120674D01*
X12944128Y-15120674D02*
X12953652Y-15082579D01*
X12953652Y-15082579D02*
X12963176Y-15063531D01*
X12963176Y-15063531D02*
X12972699Y-15054008D01*
X12972699Y-15054008D02*
X12991747Y-15044484D01*
X13144128Y-15225436D02*
X13153652Y-15234960D01*
X13153652Y-15234960D02*
X13144128Y-15244484D01*
X13144128Y-15244484D02*
X13134604Y-15234960D01*
X13134604Y-15234960D02*
X13144128Y-15225436D01*
X13144128Y-15225436D02*
X13144128Y-15244484D01*
X13277461Y-15044484D02*
X13296509Y-15044484D01*
X13296509Y-15044484D02*
X13315557Y-15054008D01*
X13315557Y-15054008D02*
X13325080Y-15063531D01*
X13325080Y-15063531D02*
X13334604Y-15082579D01*
X13334604Y-15082579D02*
X13344128Y-15120674D01*
X13344128Y-15120674D02*
X13344128Y-15168293D01*
X13344128Y-15168293D02*
X13334604Y-15206388D01*
X13334604Y-15206388D02*
X13325080Y-15225436D01*
X13325080Y-15225436D02*
X13315557Y-15234960D01*
X13315557Y-15234960D02*
X13296509Y-15244484D01*
X13296509Y-15244484D02*
X13277461Y-15244484D01*
X13277461Y-15244484D02*
X13258414Y-15234960D01*
X13258414Y-15234960D02*
X13248890Y-15225436D01*
X13248890Y-15225436D02*
X13239366Y-15206388D01*
X13239366Y-15206388D02*
X13229842Y-15168293D01*
X13229842Y-15168293D02*
X13229842Y-15120674D01*
X13229842Y-15120674D02*
X13239366Y-15082579D01*
X13239366Y-15082579D02*
X13248890Y-15063531D01*
X13248890Y-15063531D02*
X13258414Y-15054008D01*
X13258414Y-15054008D02*
X13277461Y-15044484D01*
X13410795Y-15044484D02*
X13534604Y-15044484D01*
X13534604Y-15044484D02*
X13467937Y-15120674D01*
X13467937Y-15120674D02*
X13496509Y-15120674D01*
X13496509Y-15120674D02*
X13515557Y-15130198D01*
X13515557Y-15130198D02*
X13525080Y-15139722D01*
X13525080Y-15139722D02*
X13534604Y-15158769D01*
X13534604Y-15158769D02*
X13534604Y-15206388D01*
X13534604Y-15206388D02*
X13525080Y-15225436D01*
X13525080Y-15225436D02*
X13515557Y-15234960D01*
X13515557Y-15234960D02*
X13496509Y-15244484D01*
X13496509Y-15244484D02*
X13439366Y-15244484D01*
X13439366Y-15244484D02*
X13420318Y-15234960D01*
X13420318Y-15234960D02*
X13410795Y-15225436D01*
X13629842Y-15244484D02*
X13667937Y-15244484D01*
X13667937Y-15244484D02*
X13686985Y-15234960D01*
X13686985Y-15234960D02*
X13696509Y-15225436D01*
X13696509Y-15225436D02*
X13715557Y-15196865D01*
X13715557Y-15196865D02*
X13725080Y-15158769D01*
X13725080Y-15158769D02*
X13725080Y-15082579D01*
X13725080Y-15082579D02*
X13715557Y-15063531D01*
X13715557Y-15063531D02*
X13706033Y-15054008D01*
X13706033Y-15054008D02*
X13686985Y-15044484D01*
X13686985Y-15044484D02*
X13648890Y-15044484D01*
X13648890Y-15044484D02*
X13629842Y-15054008D01*
X13629842Y-15054008D02*
X13620318Y-15063531D01*
X13620318Y-15063531D02*
X13610795Y-15082579D01*
X13610795Y-15082579D02*
X13610795Y-15130198D01*
X13610795Y-15130198D02*
X13620318Y-15149246D01*
X13620318Y-15149246D02*
X13629842Y-15158769D01*
X13629842Y-15158769D02*
X13648890Y-15168293D01*
X13648890Y-15168293D02*
X13686985Y-15168293D01*
X13686985Y-15168293D02*
X13706033Y-15158769D01*
X13706033Y-15158769D02*
X13715557Y-15149246D01*
X13715557Y-15149246D02*
X13725080Y-15130198D01*
X13896509Y-15111150D02*
X13896509Y-15244484D01*
X13848890Y-15034960D02*
X13801271Y-15177817D01*
X13801271Y-15177817D02*
X13925080Y-15177817D01*
X13991747Y-15044484D02*
X13991747Y-15082579D01*
X14067938Y-15044484D02*
X14067938Y-15082579D01*
X14363176Y-15320674D02*
X14353652Y-15311150D01*
X14353652Y-15311150D02*
X14334604Y-15282579D01*
X14334604Y-15282579D02*
X14325080Y-15263531D01*
X14325080Y-15263531D02*
X14315557Y-15234960D01*
X14315557Y-15234960D02*
X14306033Y-15187341D01*
X14306033Y-15187341D02*
X14306033Y-15149246D01*
X14306033Y-15149246D02*
X14315557Y-15101627D01*
X14315557Y-15101627D02*
X14325080Y-15073055D01*
X14325080Y-15073055D02*
X14334604Y-15054008D01*
X14334604Y-15054008D02*
X14353652Y-15025436D01*
X14353652Y-15025436D02*
X14363176Y-15015912D01*
X14544128Y-15244484D02*
X14429842Y-15244484D01*
X14486985Y-15244484D02*
X14486985Y-15044484D01*
X14486985Y-15044484D02*
X14467938Y-15073055D01*
X14467938Y-15073055D02*
X14448890Y-15092103D01*
X14448890Y-15092103D02*
X14429842Y-15101627D01*
X14620319Y-15063531D02*
X14629842Y-15054008D01*
X14629842Y-15054008D02*
X14648890Y-15044484D01*
X14648890Y-15044484D02*
X14696509Y-15044484D01*
X14696509Y-15044484D02*
X14715557Y-15054008D01*
X14715557Y-15054008D02*
X14725080Y-15063531D01*
X14725080Y-15063531D02*
X14734604Y-15082579D01*
X14734604Y-15082579D02*
X14734604Y-15101627D01*
X14734604Y-15101627D02*
X14725080Y-15130198D01*
X14725080Y-15130198D02*
X14610795Y-15244484D01*
X14610795Y-15244484D02*
X14734604Y-15244484D01*
X14906033Y-15111150D02*
X14906033Y-15244484D01*
X14858414Y-15034960D02*
X14810795Y-15177817D01*
X14810795Y-15177817D02*
X14934604Y-15177817D01*
X15163176Y-15244484D02*
X15163176Y-15044484D01*
X15248890Y-15244484D02*
X15248890Y-15139722D01*
X15248890Y-15139722D02*
X15239366Y-15120674D01*
X15239366Y-15120674D02*
X15220319Y-15111150D01*
X15220319Y-15111150D02*
X15191747Y-15111150D01*
X15191747Y-15111150D02*
X15172700Y-15120674D01*
X15172700Y-15120674D02*
X15163176Y-15130198D01*
X15372700Y-15244484D02*
X15353652Y-15234960D01*
X15353652Y-15234960D02*
X15344128Y-15225436D01*
X15344128Y-15225436D02*
X15334604Y-15206388D01*
X15334604Y-15206388D02*
X15334604Y-15149246D01*
X15334604Y-15149246D02*
X15344128Y-15130198D01*
X15344128Y-15130198D02*
X15353652Y-15120674D01*
X15353652Y-15120674D02*
X15372700Y-15111150D01*
X15372700Y-15111150D02*
X15401271Y-15111150D01*
X15401271Y-15111150D02*
X15420319Y-15120674D01*
X15420319Y-15120674D02*
X15429842Y-15130198D01*
X15429842Y-15130198D02*
X15439366Y-15149246D01*
X15439366Y-15149246D02*
X15439366Y-15206388D01*
X15439366Y-15206388D02*
X15429842Y-15225436D01*
X15429842Y-15225436D02*
X15420319Y-15234960D01*
X15420319Y-15234960D02*
X15401271Y-15244484D01*
X15401271Y-15244484D02*
X15372700Y-15244484D01*
X15553652Y-15244484D02*
X15534604Y-15234960D01*
X15534604Y-15234960D02*
X15525081Y-15215912D01*
X15525081Y-15215912D02*
X15525081Y-15044484D01*
X15706033Y-15234960D02*
X15686985Y-15244484D01*
X15686985Y-15244484D02*
X15648890Y-15244484D01*
X15648890Y-15244484D02*
X15629842Y-15234960D01*
X15629842Y-15234960D02*
X15620319Y-15215912D01*
X15620319Y-15215912D02*
X15620319Y-15139722D01*
X15620319Y-15139722D02*
X15629842Y-15120674D01*
X15629842Y-15120674D02*
X15648890Y-15111150D01*
X15648890Y-15111150D02*
X15686985Y-15111150D01*
X15686985Y-15111150D02*
X15706033Y-15120674D01*
X15706033Y-15120674D02*
X15715557Y-15139722D01*
X15715557Y-15139722D02*
X15715557Y-15158769D01*
X15715557Y-15158769D02*
X15620319Y-15177817D01*
X15791747Y-15234960D02*
X15810795Y-15244484D01*
X15810795Y-15244484D02*
X15848890Y-15244484D01*
X15848890Y-15244484D02*
X15867938Y-15234960D01*
X15867938Y-15234960D02*
X15877462Y-15215912D01*
X15877462Y-15215912D02*
X15877462Y-15206388D01*
X15877462Y-15206388D02*
X15867938Y-15187341D01*
X15867938Y-15187341D02*
X15848890Y-15177817D01*
X15848890Y-15177817D02*
X15820319Y-15177817D01*
X15820319Y-15177817D02*
X15801271Y-15168293D01*
X15801271Y-15168293D02*
X15791747Y-15149246D01*
X15791747Y-15149246D02*
X15791747Y-15139722D01*
X15791747Y-15139722D02*
X15801271Y-15120674D01*
X15801271Y-15120674D02*
X15820319Y-15111150D01*
X15820319Y-15111150D02*
X15848890Y-15111150D01*
X15848890Y-15111150D02*
X15867938Y-15120674D01*
X15944128Y-15320674D02*
X15953652Y-15311150D01*
X15953652Y-15311150D02*
X15972700Y-15282579D01*
X15972700Y-15282579D02*
X15982223Y-15263531D01*
X15982223Y-15263531D02*
X15991747Y-15234960D01*
X15991747Y-15234960D02*
X16001271Y-15187341D01*
X16001271Y-15187341D02*
X16001271Y-15149246D01*
X16001271Y-15149246D02*
X15991747Y-15101627D01*
X15991747Y-15101627D02*
X15982223Y-15073055D01*
X15982223Y-15073055D02*
X15972700Y-15054008D01*
X15972700Y-15054008D02*
X15953652Y-15025436D01*
X15953652Y-15025436D02*
X15944128Y-15015912D01*
D12*
X10731113Y-15474000D02*
X10788113Y-15417000D01*
X10731113Y-15360000D01*
X10674113Y-15417000D01*
X10731113Y-15474000D01*
D11*
X11153652Y-15508484D02*
X11039366Y-15508484D01*
X11096509Y-15508484D02*
X11096509Y-15308484D01*
X11096509Y-15308484D02*
X11077461Y-15337055D01*
X11077461Y-15337055D02*
X11058414Y-15356103D01*
X11058414Y-15356103D02*
X11039366Y-15365627D01*
X11239366Y-15489436D02*
X11248890Y-15498960D01*
X11248890Y-15498960D02*
X11239366Y-15508484D01*
X11239366Y-15508484D02*
X11229842Y-15498960D01*
X11229842Y-15498960D02*
X11239366Y-15489436D01*
X11239366Y-15489436D02*
X11239366Y-15508484D01*
X11439366Y-15508484D02*
X11325080Y-15508484D01*
X11382223Y-15508484D02*
X11382223Y-15308484D01*
X11382223Y-15308484D02*
X11363175Y-15337055D01*
X11363175Y-15337055D02*
X11344128Y-15356103D01*
X11344128Y-15356103D02*
X11325080Y-15365627D01*
X11610794Y-15375150D02*
X11610794Y-15508484D01*
X11563175Y-15298960D02*
X11515556Y-15441817D01*
X11515556Y-15441817D02*
X11639366Y-15441817D01*
X11753652Y-15308484D02*
X11772699Y-15308484D01*
X11772699Y-15308484D02*
X11791747Y-15318008D01*
X11791747Y-15318008D02*
X11801271Y-15327531D01*
X11801271Y-15327531D02*
X11810794Y-15346579D01*
X11810794Y-15346579D02*
X11820318Y-15384674D01*
X11820318Y-15384674D02*
X11820318Y-15432293D01*
X11820318Y-15432293D02*
X11810794Y-15470388D01*
X11810794Y-15470388D02*
X11801271Y-15489436D01*
X11801271Y-15489436D02*
X11791747Y-15498960D01*
X11791747Y-15498960D02*
X11772699Y-15508484D01*
X11772699Y-15508484D02*
X11753652Y-15508484D01*
X11753652Y-15508484D02*
X11734604Y-15498960D01*
X11734604Y-15498960D02*
X11725080Y-15489436D01*
X11725080Y-15489436D02*
X11715556Y-15470388D01*
X11715556Y-15470388D02*
X11706033Y-15432293D01*
X11706033Y-15432293D02*
X11706033Y-15384674D01*
X11706033Y-15384674D02*
X11715556Y-15346579D01*
X11715556Y-15346579D02*
X11725080Y-15327531D01*
X11725080Y-15327531D02*
X11734604Y-15318008D01*
X11734604Y-15318008D02*
X11753652Y-15308484D01*
X11906033Y-15508484D02*
X11906033Y-15375150D01*
X11906033Y-15394198D02*
X11915556Y-15384674D01*
X11915556Y-15384674D02*
X11934604Y-15375150D01*
X11934604Y-15375150D02*
X11963175Y-15375150D01*
X11963175Y-15375150D02*
X11982223Y-15384674D01*
X11982223Y-15384674D02*
X11991747Y-15403722D01*
X11991747Y-15403722D02*
X11991747Y-15508484D01*
X11991747Y-15403722D02*
X12001271Y-15384674D01*
X12001271Y-15384674D02*
X12020318Y-15375150D01*
X12020318Y-15375150D02*
X12048890Y-15375150D01*
X12048890Y-15375150D02*
X12067937Y-15384674D01*
X12067937Y-15384674D02*
X12077461Y-15403722D01*
X12077461Y-15403722D02*
X12077461Y-15508484D01*
X12172699Y-15508484D02*
X12172699Y-15375150D01*
X12172699Y-15394198D02*
X12182223Y-15384674D01*
X12182223Y-15384674D02*
X12201271Y-15375150D01*
X12201271Y-15375150D02*
X12229842Y-15375150D01*
X12229842Y-15375150D02*
X12248890Y-15384674D01*
X12248890Y-15384674D02*
X12258414Y-15403722D01*
X12258414Y-15403722D02*
X12258414Y-15508484D01*
X12258414Y-15403722D02*
X12267937Y-15384674D01*
X12267937Y-15384674D02*
X12286985Y-15375150D01*
X12286985Y-15375150D02*
X12315556Y-15375150D01*
X12315556Y-15375150D02*
X12334604Y-15384674D01*
X12334604Y-15384674D02*
X12344128Y-15403722D01*
X12344128Y-15403722D02*
X12344128Y-15508484D01*
X12734604Y-15298960D02*
X12563176Y-15556103D01*
X12991747Y-15308484D02*
X13010795Y-15308484D01*
X13010795Y-15308484D02*
X13029842Y-15318008D01*
X13029842Y-15318008D02*
X13039366Y-15327531D01*
X13039366Y-15327531D02*
X13048890Y-15346579D01*
X13048890Y-15346579D02*
X13058414Y-15384674D01*
X13058414Y-15384674D02*
X13058414Y-15432293D01*
X13058414Y-15432293D02*
X13048890Y-15470388D01*
X13048890Y-15470388D02*
X13039366Y-15489436D01*
X13039366Y-15489436D02*
X13029842Y-15498960D01*
X13029842Y-15498960D02*
X13010795Y-15508484D01*
X13010795Y-15508484D02*
X12991747Y-15508484D01*
X12991747Y-15508484D02*
X12972699Y-15498960D01*
X12972699Y-15498960D02*
X12963176Y-15489436D01*
X12963176Y-15489436D02*
X12953652Y-15470388D01*
X12953652Y-15470388D02*
X12944128Y-15432293D01*
X12944128Y-15432293D02*
X12944128Y-15384674D01*
X12944128Y-15384674D02*
X12953652Y-15346579D01*
X12953652Y-15346579D02*
X12963176Y-15327531D01*
X12963176Y-15327531D02*
X12972699Y-15318008D01*
X12972699Y-15318008D02*
X12991747Y-15308484D01*
X13144128Y-15489436D02*
X13153652Y-15498960D01*
X13153652Y-15498960D02*
X13144128Y-15508484D01*
X13144128Y-15508484D02*
X13134604Y-15498960D01*
X13134604Y-15498960D02*
X13144128Y-15489436D01*
X13144128Y-15489436D02*
X13144128Y-15508484D01*
X13277461Y-15308484D02*
X13296509Y-15308484D01*
X13296509Y-15308484D02*
X13315557Y-15318008D01*
X13315557Y-15318008D02*
X13325080Y-15327531D01*
X13325080Y-15327531D02*
X13334604Y-15346579D01*
X13334604Y-15346579D02*
X13344128Y-15384674D01*
X13344128Y-15384674D02*
X13344128Y-15432293D01*
X13344128Y-15432293D02*
X13334604Y-15470388D01*
X13334604Y-15470388D02*
X13325080Y-15489436D01*
X13325080Y-15489436D02*
X13315557Y-15498960D01*
X13315557Y-15498960D02*
X13296509Y-15508484D01*
X13296509Y-15508484D02*
X13277461Y-15508484D01*
X13277461Y-15508484D02*
X13258414Y-15498960D01*
X13258414Y-15498960D02*
X13248890Y-15489436D01*
X13248890Y-15489436D02*
X13239366Y-15470388D01*
X13239366Y-15470388D02*
X13229842Y-15432293D01*
X13229842Y-15432293D02*
X13229842Y-15384674D01*
X13229842Y-15384674D02*
X13239366Y-15346579D01*
X13239366Y-15346579D02*
X13248890Y-15327531D01*
X13248890Y-15327531D02*
X13258414Y-15318008D01*
X13258414Y-15318008D02*
X13277461Y-15308484D01*
X13515557Y-15375150D02*
X13515557Y-15508484D01*
X13467937Y-15298960D02*
X13420318Y-15441817D01*
X13420318Y-15441817D02*
X13544128Y-15441817D01*
X13706033Y-15375150D02*
X13706033Y-15508484D01*
X13658414Y-15298960D02*
X13610795Y-15441817D01*
X13610795Y-15441817D02*
X13734604Y-15441817D01*
X13820318Y-15508484D02*
X13858414Y-15508484D01*
X13858414Y-15508484D02*
X13877461Y-15498960D01*
X13877461Y-15498960D02*
X13886985Y-15489436D01*
X13886985Y-15489436D02*
X13906033Y-15460865D01*
X13906033Y-15460865D02*
X13915557Y-15422769D01*
X13915557Y-15422769D02*
X13915557Y-15346579D01*
X13915557Y-15346579D02*
X13906033Y-15327531D01*
X13906033Y-15327531D02*
X13896509Y-15318008D01*
X13896509Y-15318008D02*
X13877461Y-15308484D01*
X13877461Y-15308484D02*
X13839366Y-15308484D01*
X13839366Y-15308484D02*
X13820318Y-15318008D01*
X13820318Y-15318008D02*
X13810795Y-15327531D01*
X13810795Y-15327531D02*
X13801271Y-15346579D01*
X13801271Y-15346579D02*
X13801271Y-15394198D01*
X13801271Y-15394198D02*
X13810795Y-15413246D01*
X13810795Y-15413246D02*
X13820318Y-15422769D01*
X13820318Y-15422769D02*
X13839366Y-15432293D01*
X13839366Y-15432293D02*
X13877461Y-15432293D01*
X13877461Y-15432293D02*
X13896509Y-15422769D01*
X13896509Y-15422769D02*
X13906033Y-15413246D01*
X13906033Y-15413246D02*
X13915557Y-15394198D01*
X13991747Y-15308484D02*
X13991747Y-15346579D01*
X14067938Y-15308484D02*
X14067938Y-15346579D01*
X14363176Y-15584674D02*
X14353652Y-15575150D01*
X14353652Y-15575150D02*
X14334604Y-15546579D01*
X14334604Y-15546579D02*
X14325080Y-15527531D01*
X14325080Y-15527531D02*
X14315557Y-15498960D01*
X14315557Y-15498960D02*
X14306033Y-15451341D01*
X14306033Y-15451341D02*
X14306033Y-15413246D01*
X14306033Y-15413246D02*
X14315557Y-15365627D01*
X14315557Y-15365627D02*
X14325080Y-15337055D01*
X14325080Y-15337055D02*
X14334604Y-15318008D01*
X14334604Y-15318008D02*
X14353652Y-15289436D01*
X14353652Y-15289436D02*
X14363176Y-15279912D01*
X14544128Y-15508484D02*
X14429842Y-15508484D01*
X14486985Y-15508484D02*
X14486985Y-15308484D01*
X14486985Y-15308484D02*
X14467938Y-15337055D01*
X14467938Y-15337055D02*
X14448890Y-15356103D01*
X14448890Y-15356103D02*
X14429842Y-15365627D01*
X14667938Y-15308484D02*
X14686985Y-15308484D01*
X14686985Y-15308484D02*
X14706033Y-15318008D01*
X14706033Y-15318008D02*
X14715557Y-15327531D01*
X14715557Y-15327531D02*
X14725080Y-15346579D01*
X14725080Y-15346579D02*
X14734604Y-15384674D01*
X14734604Y-15384674D02*
X14734604Y-15432293D01*
X14734604Y-15432293D02*
X14725080Y-15470388D01*
X14725080Y-15470388D02*
X14715557Y-15489436D01*
X14715557Y-15489436D02*
X14706033Y-15498960D01*
X14706033Y-15498960D02*
X14686985Y-15508484D01*
X14686985Y-15508484D02*
X14667938Y-15508484D01*
X14667938Y-15508484D02*
X14648890Y-15498960D01*
X14648890Y-15498960D02*
X14639366Y-15489436D01*
X14639366Y-15489436D02*
X14629842Y-15470388D01*
X14629842Y-15470388D02*
X14620319Y-15432293D01*
X14620319Y-15432293D02*
X14620319Y-15384674D01*
X14620319Y-15384674D02*
X14629842Y-15346579D01*
X14629842Y-15346579D02*
X14639366Y-15327531D01*
X14639366Y-15327531D02*
X14648890Y-15318008D01*
X14648890Y-15318008D02*
X14667938Y-15308484D01*
X14972700Y-15508484D02*
X14972700Y-15308484D01*
X15058414Y-15508484D02*
X15058414Y-15403722D01*
X15058414Y-15403722D02*
X15048890Y-15384674D01*
X15048890Y-15384674D02*
X15029842Y-15375150D01*
X15029842Y-15375150D02*
X15001271Y-15375150D01*
X15001271Y-15375150D02*
X14982223Y-15384674D01*
X14982223Y-15384674D02*
X14972700Y-15394198D01*
X15182223Y-15508484D02*
X15163176Y-15498960D01*
X15163176Y-15498960D02*
X15153652Y-15489436D01*
X15153652Y-15489436D02*
X15144128Y-15470388D01*
X15144128Y-15470388D02*
X15144128Y-15413246D01*
X15144128Y-15413246D02*
X15153652Y-15394198D01*
X15153652Y-15394198D02*
X15163176Y-15384674D01*
X15163176Y-15384674D02*
X15182223Y-15375150D01*
X15182223Y-15375150D02*
X15210795Y-15375150D01*
X15210795Y-15375150D02*
X15229842Y-15384674D01*
X15229842Y-15384674D02*
X15239366Y-15394198D01*
X15239366Y-15394198D02*
X15248890Y-15413246D01*
X15248890Y-15413246D02*
X15248890Y-15470388D01*
X15248890Y-15470388D02*
X15239366Y-15489436D01*
X15239366Y-15489436D02*
X15229842Y-15498960D01*
X15229842Y-15498960D02*
X15210795Y-15508484D01*
X15210795Y-15508484D02*
X15182223Y-15508484D01*
X15363176Y-15508484D02*
X15344128Y-15498960D01*
X15344128Y-15498960D02*
X15334604Y-15479912D01*
X15334604Y-15479912D02*
X15334604Y-15308484D01*
X15515557Y-15498960D02*
X15496509Y-15508484D01*
X15496509Y-15508484D02*
X15458414Y-15508484D01*
X15458414Y-15508484D02*
X15439366Y-15498960D01*
X15439366Y-15498960D02*
X15429842Y-15479912D01*
X15429842Y-15479912D02*
X15429842Y-15403722D01*
X15429842Y-15403722D02*
X15439366Y-15384674D01*
X15439366Y-15384674D02*
X15458414Y-15375150D01*
X15458414Y-15375150D02*
X15496509Y-15375150D01*
X15496509Y-15375150D02*
X15515557Y-15384674D01*
X15515557Y-15384674D02*
X15525081Y-15403722D01*
X15525081Y-15403722D02*
X15525081Y-15422769D01*
X15525081Y-15422769D02*
X15429842Y-15441817D01*
X15601271Y-15498960D02*
X15620319Y-15508484D01*
X15620319Y-15508484D02*
X15658414Y-15508484D01*
X15658414Y-15508484D02*
X15677462Y-15498960D01*
X15677462Y-15498960D02*
X15686985Y-15479912D01*
X15686985Y-15479912D02*
X15686985Y-15470388D01*
X15686985Y-15470388D02*
X15677462Y-15451341D01*
X15677462Y-15451341D02*
X15658414Y-15441817D01*
X15658414Y-15441817D02*
X15629842Y-15441817D01*
X15629842Y-15441817D02*
X15610795Y-15432293D01*
X15610795Y-15432293D02*
X15601271Y-15413246D01*
X15601271Y-15413246D02*
X15601271Y-15403722D01*
X15601271Y-15403722D02*
X15610795Y-15384674D01*
X15610795Y-15384674D02*
X15629842Y-15375150D01*
X15629842Y-15375150D02*
X15658414Y-15375150D01*
X15658414Y-15375150D02*
X15677462Y-15384674D01*
X15753652Y-15584674D02*
X15763176Y-15575150D01*
X15763176Y-15575150D02*
X15782223Y-15546579D01*
X15782223Y-15546579D02*
X15791747Y-15527531D01*
X15791747Y-15527531D02*
X15801271Y-15498960D01*
X15801271Y-15498960D02*
X15810795Y-15451341D01*
X15810795Y-15451341D02*
X15810795Y-15413246D01*
X15810795Y-15413246D02*
X15801271Y-15365627D01*
X15801271Y-15365627D02*
X15791747Y-15337055D01*
X15791747Y-15337055D02*
X15782223Y-15318008D01*
X15782223Y-15318008D02*
X15763176Y-15289436D01*
X15763176Y-15289436D02*
X15753652Y-15279912D01*
D13*
X10658113Y-15616000D02*
X10788113Y-15746000D01*
X10788113Y-15616000D02*
X10658113Y-15746000D01*
X10788113Y-15681000D02*
G75*
G02*
X10658113Y-15681000I-65000J0D01*
G01*
X10658113Y-15681000D02*
G75*
G02*
X10788113Y-15681000I65000J0D01*
G01*
D11*
X11153652Y-15772484D02*
X11039366Y-15772484D01*
X11096509Y-15772484D02*
X11096509Y-15572484D01*
X11096509Y-15572484D02*
X11077461Y-15601055D01*
X11077461Y-15601055D02*
X11058414Y-15620103D01*
X11058414Y-15620103D02*
X11039366Y-15629627D01*
X11239366Y-15753436D02*
X11248890Y-15762960D01*
X11248890Y-15762960D02*
X11239366Y-15772484D01*
X11239366Y-15772484D02*
X11229842Y-15762960D01*
X11229842Y-15762960D02*
X11239366Y-15753436D01*
X11239366Y-15753436D02*
X11239366Y-15772484D01*
X11315556Y-15572484D02*
X11439366Y-15572484D01*
X11439366Y-15572484D02*
X11372699Y-15648674D01*
X11372699Y-15648674D02*
X11401271Y-15648674D01*
X11401271Y-15648674D02*
X11420318Y-15658198D01*
X11420318Y-15658198D02*
X11429842Y-15667722D01*
X11429842Y-15667722D02*
X11439366Y-15686769D01*
X11439366Y-15686769D02*
X11439366Y-15734388D01*
X11439366Y-15734388D02*
X11429842Y-15753436D01*
X11429842Y-15753436D02*
X11420318Y-15762960D01*
X11420318Y-15762960D02*
X11401271Y-15772484D01*
X11401271Y-15772484D02*
X11344128Y-15772484D01*
X11344128Y-15772484D02*
X11325080Y-15762960D01*
X11325080Y-15762960D02*
X11315556Y-15753436D01*
X11563175Y-15572484D02*
X11582223Y-15572484D01*
X11582223Y-15572484D02*
X11601271Y-15582008D01*
X11601271Y-15582008D02*
X11610794Y-15591531D01*
X11610794Y-15591531D02*
X11620318Y-15610579D01*
X11620318Y-15610579D02*
X11629842Y-15648674D01*
X11629842Y-15648674D02*
X11629842Y-15696293D01*
X11629842Y-15696293D02*
X11620318Y-15734388D01*
X11620318Y-15734388D02*
X11610794Y-15753436D01*
X11610794Y-15753436D02*
X11601271Y-15762960D01*
X11601271Y-15762960D02*
X11582223Y-15772484D01*
X11582223Y-15772484D02*
X11563175Y-15772484D01*
X11563175Y-15772484D02*
X11544128Y-15762960D01*
X11544128Y-15762960D02*
X11534604Y-15753436D01*
X11534604Y-15753436D02*
X11525080Y-15734388D01*
X11525080Y-15734388D02*
X11515556Y-15696293D01*
X11515556Y-15696293D02*
X11515556Y-15648674D01*
X11515556Y-15648674D02*
X11525080Y-15610579D01*
X11525080Y-15610579D02*
X11534604Y-15591531D01*
X11534604Y-15591531D02*
X11544128Y-15582008D01*
X11544128Y-15582008D02*
X11563175Y-15572484D01*
X11753652Y-15572484D02*
X11772699Y-15572484D01*
X11772699Y-15572484D02*
X11791747Y-15582008D01*
X11791747Y-15582008D02*
X11801271Y-15591531D01*
X11801271Y-15591531D02*
X11810794Y-15610579D01*
X11810794Y-15610579D02*
X11820318Y-15648674D01*
X11820318Y-15648674D02*
X11820318Y-15696293D01*
X11820318Y-15696293D02*
X11810794Y-15734388D01*
X11810794Y-15734388D02*
X11801271Y-15753436D01*
X11801271Y-15753436D02*
X11791747Y-15762960D01*
X11791747Y-15762960D02*
X11772699Y-15772484D01*
X11772699Y-15772484D02*
X11753652Y-15772484D01*
X11753652Y-15772484D02*
X11734604Y-15762960D01*
X11734604Y-15762960D02*
X11725080Y-15753436D01*
X11725080Y-15753436D02*
X11715556Y-15734388D01*
X11715556Y-15734388D02*
X11706033Y-15696293D01*
X11706033Y-15696293D02*
X11706033Y-15648674D01*
X11706033Y-15648674D02*
X11715556Y-15610579D01*
X11715556Y-15610579D02*
X11725080Y-15591531D01*
X11725080Y-15591531D02*
X11734604Y-15582008D01*
X11734604Y-15582008D02*
X11753652Y-15572484D01*
X11906033Y-15772484D02*
X11906033Y-15639150D01*
X11906033Y-15658198D02*
X11915556Y-15648674D01*
X11915556Y-15648674D02*
X11934604Y-15639150D01*
X11934604Y-15639150D02*
X11963175Y-15639150D01*
X11963175Y-15639150D02*
X11982223Y-15648674D01*
X11982223Y-15648674D02*
X11991747Y-15667722D01*
X11991747Y-15667722D02*
X11991747Y-15772484D01*
X11991747Y-15667722D02*
X12001271Y-15648674D01*
X12001271Y-15648674D02*
X12020318Y-15639150D01*
X12020318Y-15639150D02*
X12048890Y-15639150D01*
X12048890Y-15639150D02*
X12067937Y-15648674D01*
X12067937Y-15648674D02*
X12077461Y-15667722D01*
X12077461Y-15667722D02*
X12077461Y-15772484D01*
X12172699Y-15772484D02*
X12172699Y-15639150D01*
X12172699Y-15658198D02*
X12182223Y-15648674D01*
X12182223Y-15648674D02*
X12201271Y-15639150D01*
X12201271Y-15639150D02*
X12229842Y-15639150D01*
X12229842Y-15639150D02*
X12248890Y-15648674D01*
X12248890Y-15648674D02*
X12258414Y-15667722D01*
X12258414Y-15667722D02*
X12258414Y-15772484D01*
X12258414Y-15667722D02*
X12267937Y-15648674D01*
X12267937Y-15648674D02*
X12286985Y-15639150D01*
X12286985Y-15639150D02*
X12315556Y-15639150D01*
X12315556Y-15639150D02*
X12334604Y-15648674D01*
X12334604Y-15648674D02*
X12344128Y-15667722D01*
X12344128Y-15667722D02*
X12344128Y-15772484D01*
X12734604Y-15562960D02*
X12563176Y-15820103D01*
X12991747Y-15572484D02*
X13010795Y-15572484D01*
X13010795Y-15572484D02*
X13029842Y-15582008D01*
X13029842Y-15582008D02*
X13039366Y-15591531D01*
X13039366Y-15591531D02*
X13048890Y-15610579D01*
X13048890Y-15610579D02*
X13058414Y-15648674D01*
X13058414Y-15648674D02*
X13058414Y-15696293D01*
X13058414Y-15696293D02*
X13048890Y-15734388D01*
X13048890Y-15734388D02*
X13039366Y-15753436D01*
X13039366Y-15753436D02*
X13029842Y-15762960D01*
X13029842Y-15762960D02*
X13010795Y-15772484D01*
X13010795Y-15772484D02*
X12991747Y-15772484D01*
X12991747Y-15772484D02*
X12972699Y-15762960D01*
X12972699Y-15762960D02*
X12963176Y-15753436D01*
X12963176Y-15753436D02*
X12953652Y-15734388D01*
X12953652Y-15734388D02*
X12944128Y-15696293D01*
X12944128Y-15696293D02*
X12944128Y-15648674D01*
X12944128Y-15648674D02*
X12953652Y-15610579D01*
X12953652Y-15610579D02*
X12963176Y-15591531D01*
X12963176Y-15591531D02*
X12972699Y-15582008D01*
X12972699Y-15582008D02*
X12991747Y-15572484D01*
X13144128Y-15753436D02*
X13153652Y-15762960D01*
X13153652Y-15762960D02*
X13144128Y-15772484D01*
X13144128Y-15772484D02*
X13134604Y-15762960D01*
X13134604Y-15762960D02*
X13144128Y-15753436D01*
X13144128Y-15753436D02*
X13144128Y-15772484D01*
X13277461Y-15572484D02*
X13296509Y-15572484D01*
X13296509Y-15572484D02*
X13315557Y-15582008D01*
X13315557Y-15582008D02*
X13325080Y-15591531D01*
X13325080Y-15591531D02*
X13334604Y-15610579D01*
X13334604Y-15610579D02*
X13344128Y-15648674D01*
X13344128Y-15648674D02*
X13344128Y-15696293D01*
X13344128Y-15696293D02*
X13334604Y-15734388D01*
X13334604Y-15734388D02*
X13325080Y-15753436D01*
X13325080Y-15753436D02*
X13315557Y-15762960D01*
X13315557Y-15762960D02*
X13296509Y-15772484D01*
X13296509Y-15772484D02*
X13277461Y-15772484D01*
X13277461Y-15772484D02*
X13258414Y-15762960D01*
X13258414Y-15762960D02*
X13248890Y-15753436D01*
X13248890Y-15753436D02*
X13239366Y-15734388D01*
X13239366Y-15734388D02*
X13229842Y-15696293D01*
X13229842Y-15696293D02*
X13229842Y-15648674D01*
X13229842Y-15648674D02*
X13239366Y-15610579D01*
X13239366Y-15610579D02*
X13248890Y-15591531D01*
X13248890Y-15591531D02*
X13258414Y-15582008D01*
X13258414Y-15582008D02*
X13277461Y-15572484D01*
X13525080Y-15572484D02*
X13429842Y-15572484D01*
X13429842Y-15572484D02*
X13420318Y-15667722D01*
X13420318Y-15667722D02*
X13429842Y-15658198D01*
X13429842Y-15658198D02*
X13448890Y-15648674D01*
X13448890Y-15648674D02*
X13496509Y-15648674D01*
X13496509Y-15648674D02*
X13515557Y-15658198D01*
X13515557Y-15658198D02*
X13525080Y-15667722D01*
X13525080Y-15667722D02*
X13534604Y-15686769D01*
X13534604Y-15686769D02*
X13534604Y-15734388D01*
X13534604Y-15734388D02*
X13525080Y-15753436D01*
X13525080Y-15753436D02*
X13515557Y-15762960D01*
X13515557Y-15762960D02*
X13496509Y-15772484D01*
X13496509Y-15772484D02*
X13448890Y-15772484D01*
X13448890Y-15772484D02*
X13429842Y-15762960D01*
X13429842Y-15762960D02*
X13420318Y-15753436D01*
X13725080Y-15772484D02*
X13610795Y-15772484D01*
X13667937Y-15772484D02*
X13667937Y-15572484D01*
X13667937Y-15572484D02*
X13648890Y-15601055D01*
X13648890Y-15601055D02*
X13629842Y-15620103D01*
X13629842Y-15620103D02*
X13610795Y-15629627D01*
X13801271Y-15591531D02*
X13810795Y-15582008D01*
X13810795Y-15582008D02*
X13829842Y-15572484D01*
X13829842Y-15572484D02*
X13877461Y-15572484D01*
X13877461Y-15572484D02*
X13896509Y-15582008D01*
X13896509Y-15582008D02*
X13906033Y-15591531D01*
X13906033Y-15591531D02*
X13915557Y-15610579D01*
X13915557Y-15610579D02*
X13915557Y-15629627D01*
X13915557Y-15629627D02*
X13906033Y-15658198D01*
X13906033Y-15658198D02*
X13791747Y-15772484D01*
X13791747Y-15772484D02*
X13915557Y-15772484D01*
X13991747Y-15572484D02*
X13991747Y-15610579D01*
X14067938Y-15572484D02*
X14067938Y-15610579D01*
X14363176Y-15848674D02*
X14353652Y-15839150D01*
X14353652Y-15839150D02*
X14334604Y-15810579D01*
X14334604Y-15810579D02*
X14325080Y-15791531D01*
X14325080Y-15791531D02*
X14315557Y-15762960D01*
X14315557Y-15762960D02*
X14306033Y-15715341D01*
X14306033Y-15715341D02*
X14306033Y-15677246D01*
X14306033Y-15677246D02*
X14315557Y-15629627D01*
X14315557Y-15629627D02*
X14325080Y-15601055D01*
X14325080Y-15601055D02*
X14334604Y-15582008D01*
X14334604Y-15582008D02*
X14353652Y-15553436D01*
X14353652Y-15553436D02*
X14363176Y-15543912D01*
X14420319Y-15572484D02*
X14544128Y-15572484D01*
X14544128Y-15572484D02*
X14477461Y-15648674D01*
X14477461Y-15648674D02*
X14506033Y-15648674D01*
X14506033Y-15648674D02*
X14525080Y-15658198D01*
X14525080Y-15658198D02*
X14534604Y-15667722D01*
X14534604Y-15667722D02*
X14544128Y-15686769D01*
X14544128Y-15686769D02*
X14544128Y-15734388D01*
X14544128Y-15734388D02*
X14534604Y-15753436D01*
X14534604Y-15753436D02*
X14525080Y-15762960D01*
X14525080Y-15762960D02*
X14506033Y-15772484D01*
X14506033Y-15772484D02*
X14448890Y-15772484D01*
X14448890Y-15772484D02*
X14429842Y-15762960D01*
X14429842Y-15762960D02*
X14420319Y-15753436D01*
X14782223Y-15772484D02*
X14782223Y-15572484D01*
X14867938Y-15772484D02*
X14867938Y-15667722D01*
X14867938Y-15667722D02*
X14858414Y-15648674D01*
X14858414Y-15648674D02*
X14839366Y-15639150D01*
X14839366Y-15639150D02*
X14810795Y-15639150D01*
X14810795Y-15639150D02*
X14791747Y-15648674D01*
X14791747Y-15648674D02*
X14782223Y-15658198D01*
X14991747Y-15772484D02*
X14972700Y-15762960D01*
X14972700Y-15762960D02*
X14963176Y-15753436D01*
X14963176Y-15753436D02*
X14953652Y-15734388D01*
X14953652Y-15734388D02*
X14953652Y-15677246D01*
X14953652Y-15677246D02*
X14963176Y-15658198D01*
X14963176Y-15658198D02*
X14972700Y-15648674D01*
X14972700Y-15648674D02*
X14991747Y-15639150D01*
X14991747Y-15639150D02*
X15020319Y-15639150D01*
X15020319Y-15639150D02*
X15039366Y-15648674D01*
X15039366Y-15648674D02*
X15048890Y-15658198D01*
X15048890Y-15658198D02*
X15058414Y-15677246D01*
X15058414Y-15677246D02*
X15058414Y-15734388D01*
X15058414Y-15734388D02*
X15048890Y-15753436D01*
X15048890Y-15753436D02*
X15039366Y-15762960D01*
X15039366Y-15762960D02*
X15020319Y-15772484D01*
X15020319Y-15772484D02*
X14991747Y-15772484D01*
X15172700Y-15772484D02*
X15153652Y-15762960D01*
X15153652Y-15762960D02*
X15144128Y-15743912D01*
X15144128Y-15743912D02*
X15144128Y-15572484D01*
X15325081Y-15762960D02*
X15306033Y-15772484D01*
X15306033Y-15772484D02*
X15267938Y-15772484D01*
X15267938Y-15772484D02*
X15248890Y-15762960D01*
X15248890Y-15762960D02*
X15239366Y-15743912D01*
X15239366Y-15743912D02*
X15239366Y-15667722D01*
X15239366Y-15667722D02*
X15248890Y-15648674D01*
X15248890Y-15648674D02*
X15267938Y-15639150D01*
X15267938Y-15639150D02*
X15306033Y-15639150D01*
X15306033Y-15639150D02*
X15325081Y-15648674D01*
X15325081Y-15648674D02*
X15334604Y-15667722D01*
X15334604Y-15667722D02*
X15334604Y-15686769D01*
X15334604Y-15686769D02*
X15239366Y-15705817D01*
X15410795Y-15762960D02*
X15429842Y-15772484D01*
X15429842Y-15772484D02*
X15467938Y-15772484D01*
X15467938Y-15772484D02*
X15486985Y-15762960D01*
X15486985Y-15762960D02*
X15496509Y-15743912D01*
X15496509Y-15743912D02*
X15496509Y-15734388D01*
X15496509Y-15734388D02*
X15486985Y-15715341D01*
X15486985Y-15715341D02*
X15467938Y-15705817D01*
X15467938Y-15705817D02*
X15439366Y-15705817D01*
X15439366Y-15705817D02*
X15420319Y-15696293D01*
X15420319Y-15696293D02*
X15410795Y-15677246D01*
X15410795Y-15677246D02*
X15410795Y-15667722D01*
X15410795Y-15667722D02*
X15420319Y-15648674D01*
X15420319Y-15648674D02*
X15439366Y-15639150D01*
X15439366Y-15639150D02*
X15467938Y-15639150D01*
X15467938Y-15639150D02*
X15486985Y-15648674D01*
X15563176Y-15848674D02*
X15572700Y-15839150D01*
X15572700Y-15839150D02*
X15591747Y-15810579D01*
X15591747Y-15810579D02*
X15601271Y-15791531D01*
X15601271Y-15791531D02*
X15610795Y-15762960D01*
X15610795Y-15762960D02*
X15620319Y-15715341D01*
X15620319Y-15715341D02*
X15620319Y-15677246D01*
X15620319Y-15677246D02*
X15610795Y-15629627D01*
X15610795Y-15629627D02*
X15601271Y-15601055D01*
X15601271Y-15601055D02*
X15591747Y-15582008D01*
X15591747Y-15582008D02*
X15572700Y-15553436D01*
X15572700Y-15553436D02*
X15563176Y-15543912D01*
M02*
